<svg width="68" height="68" viewBox="0 0 68 68" fill="none" xmlns="http://www.w3.org/2000/svg">
<path d="M34 68C52.7777 68 68 52.7777 68 34C68 15.2223 52.7777 0 34 0C15.2223 0 0 15.2223 0 34C0 52.7777 15.2223 68 34 68Z" fill="#FCFCFC"/>
<path d="M31.2308 21.3407L31.5519 22.806C31.5568 22.8049 31.5617 22.8038 31.5666 22.8027L31.2308 21.3407ZM29.2006 21.8561L29.6021 23.3014C29.6112 23.2988 29.6202 23.2962 29.6293 23.2935L29.2006 21.8561ZM28.3729 21.8249L27.3764 22.946C27.4197 22.9845 27.4652 23.0205 27.5127 23.0537L28.3729 21.8249ZM28.7633 20.9503L28.0773 19.6164C28.072 19.6191 28.0667 19.6219 28.0615 19.6246L28.7633 20.9503ZM30.122 20.4662L30.4858 21.9214C30.4922 21.9198 30.4986 21.9182 30.5051 21.9165L30.122 20.4662ZM38.6799 21.3251L37.7173 22.4755C37.7211 22.4787 37.725 22.4819 37.7288 22.485L38.6799 21.3251ZM39.8043 22.8712L38.4018 23.4032C38.4055 23.413 38.4094 23.4227 38.4133 23.4325L39.8043 22.8712ZM39.6794 27.1345L38.3467 26.446C38.3437 26.4519 38.3407 26.4578 38.3377 26.4637L39.6794 27.1345ZM38.43 28.7587L37.4391 27.6326C37.4353 27.6359 37.4316 27.6392 37.4279 27.6426L38.43 28.7587ZM36.681 29.9455L37.3603 31.2829L36.681 29.9455ZM34.6508 30.8982L34.055 29.5216L34.0474 29.5249L34.6508 30.8982ZM32.6363 31.8352L33.2812 33.1894C33.287 33.1867 33.2927 33.1839 33.2985 33.181L32.6363 31.8352ZM30.8716 32.9596L31.8342 34.11L31.8364 34.1081L30.8716 32.9596ZM29.6222 34.49L28.3045 33.7733L28.3 33.7817L29.6222 34.49ZM29.1537 36.6139H27.6537C27.6537 37.4423 28.3253 38.1139 29.1537 38.1139V36.6139ZM28.1074 37.4884L26.6684 37.9116C26.6707 37.9197 26.6732 37.9278 26.6757 37.9358L28.1074 37.4884ZM29.7316 32.5067L30.7699 33.5892L30.7703 33.5888L29.7316 32.5067ZM31.4962 31.2105L30.7765 29.8944L30.7678 29.8993L31.4962 31.2105ZM33.5108 30.1798L32.8731 28.8221L32.8651 28.8259L33.5108 30.1798ZM35.5253 29.2272L36.1703 30.5815L36.1792 30.5771L35.5253 29.2272ZM37.29 28.1496L38.2093 29.335L38.2126 29.3324L37.29 28.1496ZM38.5394 26.7597L39.8257 27.5315L39.8323 27.5203L38.5394 26.7597ZM38.6331 23.121L37.2914 23.7919C37.2953 23.7996 37.2992 23.8073 37.3032 23.8149L38.6331 23.121ZM37.5867 21.9498L36.748 23.1934C36.7524 23.1964 36.7568 23.1993 36.7613 23.2022L37.5867 21.9498ZM35.947 21.2939L35.6166 22.7571C35.6241 22.7588 35.6316 22.7604 35.6392 22.762L35.947 21.2939ZM33.7607 19.5753C32.7489 19.5753 31.7913 19.6729 30.8949 19.8788L31.5666 22.8027C32.2111 22.6546 32.9401 22.5753 33.7607 22.5753V19.5753ZM30.9096 19.8755C30.1221 20.0481 29.4084 20.2288 28.7719 20.4187L29.6293 23.2935C30.1796 23.1294 30.8194 22.9665 31.5519 22.806L30.9096 19.8755ZM28.7991 20.4108C28.7658 20.4201 28.7386 20.4271 28.7171 20.4323C28.6953 20.4376 28.6817 20.4404 28.6753 20.4416C28.6722 20.4422 28.6718 20.4423 28.6738 20.4419C28.6758 20.4416 28.6811 20.4408 28.6895 20.4398C28.6977 20.4388 28.7105 20.4375 28.7271 20.4364C28.7436 20.4353 28.7664 20.4342 28.7946 20.4342V23.4342C29.1015 23.4342 29.4111 23.3544 29.6021 23.3014L28.7991 20.4108ZM28.7946 20.4342C28.8081 20.4342 29.0036 20.4354 29.2331 20.596L27.5127 23.0537C27.9504 23.3601 28.427 23.4342 28.7946 23.4342V20.4342ZM29.3694 20.7037C29.4515 20.7767 29.5486 20.8888 29.6231 21.0461C29.6992 21.2067 29.7324 21.3739 29.7324 21.5281H26.7324C26.7324 22.1146 26.9964 22.6083 27.3764 22.946L29.3694 20.7037ZM29.7324 21.5281C29.7324 21.9131 29.5516 22.1611 29.4696 22.2503C29.3982 22.328 29.3676 22.3277 29.4651 22.276L28.0615 19.6246C27.8051 19.7604 27.509 19.9501 27.2606 20.2204C27.0016 20.5022 26.7324 20.9454 26.7324 21.5281H29.7324ZM29.4493 22.2843C29.6821 22.1646 30.0189 22.0381 30.4858 21.9214L29.7582 19.011C29.1423 19.165 28.5733 19.3613 28.0773 19.6164L29.4493 22.2843ZM30.5051 21.9165C30.986 21.7894 31.52 21.6864 32.1098 21.6103L31.7259 18.635C31.0247 18.7255 30.3615 18.8515 29.7389 19.016L30.5051 21.9165ZM32.1098 21.6103C32.6989 21.5343 33.2487 21.4977 33.7607 21.4977V18.4977C33.1066 18.4977 32.4279 18.5444 31.7259 18.635L32.1098 21.6103ZM33.7607 21.4977C34.8137 21.4977 35.6475 21.6039 36.2894 21.785L37.1038 18.8976C36.1216 18.6206 34.998 18.4977 33.7607 18.4977V21.4977ZM36.2894 21.785C36.9505 21.9714 37.4069 22.2158 37.7173 22.4755L39.6425 20.1747C38.9326 19.5807 38.0668 19.1692 37.1038 18.8976L36.2894 21.785ZM37.7288 22.485C38.0555 22.753 38.2698 23.0551 38.4018 23.4032L41.2068 22.3392C40.8808 21.4796 40.3454 20.751 39.631 20.1652L37.7288 22.485ZM38.4133 23.4325C38.5715 23.8245 38.6635 24.2916 38.6635 24.8545H41.6635C41.6635 23.9599 41.5161 23.1047 41.1953 22.3099L38.4133 23.4325ZM38.6635 24.8545C38.6635 25.574 38.5336 26.0844 38.3467 26.446L41.012 27.8231C41.4707 26.9353 41.6635 25.9257 41.6635 24.8545H38.6635ZM38.3377 26.4637C38.1112 26.9167 37.8134 27.3032 37.4391 27.6326L39.421 29.8847C40.0878 29.298 40.6229 28.6017 41.021 27.8054L38.3377 26.4637ZM37.4279 27.6426C37.022 28.007 36.5492 28.3301 36.0017 28.6082L37.3603 31.2829C38.1245 30.8947 38.8178 30.4265 39.4322 29.8747L37.4279 27.6426ZM36.0017 28.6082C35.3741 28.927 34.7252 29.2315 34.055 29.5216L35.2466 32.2747C35.9715 31.961 36.6761 31.6304 37.3603 31.2829L36.0017 28.6082ZM34.0474 29.5249C33.341 29.8353 32.6498 30.1567 31.974 30.4893L33.2985 33.181C33.9345 32.8681 34.5864 32.5649 35.2542 32.2714L34.0474 29.5249ZM31.9914 30.4809C31.2284 30.8442 30.5312 31.2865 29.9068 31.811L31.8364 34.1081C32.253 33.7581 32.7323 33.4508 33.2812 33.1894L31.9914 30.4809ZM29.909 31.8092C29.252 32.3589 28.7159 33.0169 28.3045 33.7733L30.94 35.2067C31.1741 34.7762 31.4709 34.4139 31.8342 34.11L29.909 31.8092ZM28.3 33.7817C27.8445 34.6319 27.6537 35.5966 27.6537 36.6139H30.6537C30.6537 35.9654 30.7753 35.5142 30.9445 35.1983L28.3 33.7817ZM29.1537 38.1139H38.5237V35.1139H29.1537V38.1139ZM38.5237 38.1139C38.5546 38.1139 38.2711 38.1233 37.9941 37.8463L40.1154 35.725C39.6093 35.2189 38.9718 35.1139 38.5237 35.1139V38.1139ZM37.9941 37.8463C37.9379 37.7902 37.8665 37.7004 37.8106 37.5733C37.7533 37.4431 37.7265 37.3058 37.7265 37.1761H40.7265C40.7265 36.5865 40.4769 36.0866 40.1154 35.725L37.9941 37.8463ZM37.7265 37.1761C37.7265 37.0463 37.7533 36.909 37.8106 36.7789C37.8665 36.6517 37.9379 36.5619 37.9941 36.5058L40.1154 38.6271C40.4769 38.2656 40.7265 37.7656 40.7265 37.1761H37.7265ZM37.9941 36.5058C38.2711 36.2288 38.5546 36.2383 38.5237 36.2383V39.2383C38.9718 39.2383 39.6093 39.1332 40.1154 38.6271L37.9941 36.5058ZM38.5237 36.2383H28.6384V39.2383H38.5237V36.2383ZM28.6384 36.2383C28.6 36.2383 28.7276 36.229 28.9179 36.3186C29.0233 36.3682 29.1537 36.4511 29.2756 36.5841C29.4004 36.7203 29.4884 36.8787 29.5391 37.041L26.6757 37.9358C27.0474 39.1251 28.2226 39.2383 28.6384 39.2383V36.2383ZM29.5465 37.0651C29.5595 37.1095 29.5516 37.1011 29.5429 37.0036C29.535 36.9155 29.5293 36.788 29.5293 36.6139H26.5293C26.5293 37.0337 26.5509 37.5122 26.6684 37.9116L29.5465 37.0651ZM29.5293 36.6139C29.5293 35.8652 29.6571 35.3012 29.856 34.8768L27.1396 33.6035C26.7139 34.5117 26.5293 35.5301 26.5293 36.6139H29.5293ZM29.856 34.8768C30.0933 34.3705 30.3983 33.9456 30.7699 33.5892L28.6932 31.4242C28.0445 32.0464 27.527 32.7771 27.1396 33.6035L29.856 34.8768ZM30.7703 33.5888C31.1941 33.1819 31.6772 32.8259 32.2247 32.5217L30.7678 29.8993C30.0035 30.3239 29.3101 30.8319 28.6928 31.4246L30.7703 33.5888ZM32.216 32.5265C32.8583 32.1753 33.5051 31.8444 34.1565 31.5337L32.8651 28.8259C32.163 29.1607 31.4668 29.5169 30.7765 29.8944L32.216 32.5265ZM34.1485 31.5375C34.8379 31.2137 35.5118 30.895 36.1702 30.5815L34.8804 27.8729C34.227 28.184 33.5579 28.5004 32.8731 28.8221L34.1485 31.5375ZM36.1792 30.5771C36.9261 30.2154 37.6057 29.8031 38.2093 29.3349L36.3708 26.9643C35.9541 27.2874 35.4572 27.5935 34.8714 27.8772L36.1792 30.5771ZM38.2126 29.3324C38.8658 28.8228 39.4104 28.2236 39.8256 27.5315L37.2531 25.988C37.0437 26.337 36.7553 26.6643 36.3675 26.9669L38.2126 29.3324ZM39.8323 27.5203C40.305 26.7166 40.5079 25.8075 40.5079 24.8545H37.5079C37.5079 25.3799 37.3984 25.7409 37.2465 25.9992L39.8323 27.5203ZM40.5079 24.8545C40.5079 23.996 40.3493 23.1677 39.9629 22.4272L37.3032 23.8149C37.4166 24.0322 37.5079 24.3596 37.5079 24.8545H40.5079ZM39.9747 22.4502C39.6143 21.7294 39.0848 21.1407 38.4122 20.6974L36.7613 23.2022C37.0049 23.3628 37.1729 23.5548 37.2914 23.7919L39.9747 22.4502ZM38.4255 20.7062C37.7857 20.2747 37.0493 19.9924 36.2548 19.8258L35.6392 22.762C36.1357 22.8661 36.4925 23.021 36.748 23.1934L38.4255 20.7062ZM36.2774 19.8307C35.5023 19.6557 34.6598 19.5753 33.7607 19.5753V22.5753C34.4856 22.5753 35.1007 22.6406 35.6166 22.7571L36.2774 19.8307Z" fill="#72E3A2"/>
</svg>
