<svg width="68" height="68" viewBox="0 0 68 68" fill="none" xmlns="http://www.w3.org/2000/svg">
<path d="M34 68C52.7777 68 68 52.7777 68 34C68 15.2223 52.7777 0 34 0C15.2223 0 0 15.2223 0 34C0 52.7777 15.2223 68 34 68Z" fill="#FCFCFC"/>
<path d="M30.7016 28.6494L29.5303 29.5864C29.5484 29.6091 29.5672 29.6312 29.5866 29.6528L30.7016 28.6494ZM30.7016 27.9622L29.5866 26.9588C29.5672 26.9804 29.5484 27.0025 29.5303 27.0252L30.7016 27.9622ZM35.8238 27.5093L35.3969 26.0714L35.3907 26.0732L35.8238 27.5093ZM37.4167 26.7441L38.3462 27.9214C38.3525 27.9165 38.3587 27.9115 38.3649 27.9064L37.4167 26.7441ZM38.2444 25.651L36.8567 25.0816C36.8525 25.0919 36.8484 25.1021 36.8444 25.1125L38.2444 25.651ZM38.3069 23.2304L36.8632 23.6376C36.8674 23.6525 36.8719 23.6673 36.8765 23.6821L38.3069 23.2304ZM37.6198 22.1528L36.5928 23.2461C36.5987 23.2517 36.6047 23.2572 36.6108 23.2627L37.6198 22.1528ZM32.0134 21.2002L32.2062 22.6877C32.2152 22.6866 32.2242 22.6853 32.2332 22.684L32.0134 21.2002ZM30.4986 21.4501L30.1913 19.9819L30.4986 21.4501ZM29.4054 21.7155L29.7953 23.164C29.8074 23.1607 29.8195 23.1573 29.8315 23.1537L29.4054 21.7155ZM28.9994 21.8405L29.4008 23.2858C30.05 23.1054 30.4994 22.5143 30.4994 21.8405H28.9994ZM28.1717 21.8092L27.1751 22.9304C27.2185 22.9689 27.264 23.0048 27.3115 23.0381L28.1717 21.8092ZM28.5621 20.9347L27.8761 19.6008C27.8708 19.6035 27.8655 19.6062 27.8603 19.609L28.5621 20.9347ZM29.9207 20.4506L30.2845 21.9058C30.291 21.9042 30.2974 21.9025 30.3038 21.9009L29.9207 20.4506ZM38.4474 21.4032L37.4123 22.4888C37.4168 22.4931 37.4213 22.4973 37.4258 22.5015L38.4474 21.4032ZM39.3532 22.8243L37.9142 23.2476C37.9167 23.2562 37.9193 23.2648 37.922 23.2733L39.3532 22.8243ZM39.4157 25.6041L40.8494 26.0452L40.8524 26.0351L39.4157 25.6041ZM38.7442 26.7754L37.6075 25.7966L37.6053 25.7992L38.7442 26.7754ZM37.4636 27.7436L38.1449 29.08L38.1548 29.0748L37.4636 27.7436ZM35.4334 28.2746L35.2823 26.7822C34.5265 26.8587 33.9472 27.4882 33.9337 28.2478C33.9201 29.0073 34.4765 29.6571 35.2291 29.7606L35.4334 28.2746ZM37.5573 28.8524L36.9256 30.2129C36.9323 30.216 36.9391 30.2191 36.9458 30.2221L37.5573 28.8524ZM38.9784 29.8518L37.8621 30.8537C37.8664 30.8585 37.8707 30.8633 37.8751 30.8681L38.9784 29.8518ZM39.7749 31.2261L38.3462 31.6833L38.349 31.6917L39.7749 31.2261ZM39.6968 34.9273L38.281 34.4317C38.2785 34.4388 38.2761 34.4458 38.2738 34.4529L39.6968 34.9273ZM38.6348 36.567L39.6484 37.6727C39.6526 37.669 39.6567 37.6651 39.6608 37.6613L38.6348 36.567ZM36.6359 37.6446L36.1885 36.2128L36.1833 36.2145L36.6359 37.6446ZM31.6542 37.8944L31.8663 36.4095C31.8586 36.4084 31.8509 36.4074 31.8431 36.4064L31.6542 37.8944ZM29.8583 37.5665L29.4612 39.013C29.4723 39.016 29.4833 39.0189 29.4945 39.0217L29.8583 37.5665ZM28.1717 36.2234L29.0926 37.4075C29.098 37.4033 29.1034 37.399 29.1087 37.3947L28.1717 36.2234ZM28.9681 36.161L28.556 37.6033C28.5884 37.6125 28.621 37.6206 28.6538 37.6277L28.9681 36.161ZM29.9364 36.4421L29.4889 37.8738C29.497 37.8763 29.505 37.8788 29.5131 37.8811L29.9364 36.4421ZM30.4361 36.567L30.7504 35.1003C30.7437 35.0989 30.737 35.0975 30.7303 35.0961L30.4361 36.567ZM31.8884 36.8325L31.656 38.3144L31.6604 38.3151L31.8884 36.8325ZM36.2143 36.6607L36.6235 38.1038C36.6282 38.1025 36.6328 38.1011 36.6375 38.0998L36.2143 36.6607ZM37.8852 35.8018L36.8975 34.6729C36.8928 34.6771 36.8881 34.6812 36.8834 34.6854L37.8852 35.8018ZM38.7442 34.5056L37.3183 34.04C37.3163 34.0461 37.3143 34.0521 37.3124 34.0582L38.7442 34.5056ZM38.7285 31.3198L37.3086 31.8032C37.3127 31.8155 37.3171 31.8276 37.3216 31.8398L38.7285 31.3198ZM37.8384 30.0392L36.8487 31.1664C36.8539 31.171 36.8592 31.1756 36.8645 31.1801L37.8384 30.0392ZM36.1049 29.1491L35.6552 30.5801C35.6614 30.582 35.6677 30.584 35.6739 30.5858L36.1049 29.1491ZM31.1232 27.3055C31.1646 27.3055 31.2659 27.3108 31.3982 27.3599C31.5393 27.4121 31.6896 27.5049 31.8165 27.6459L29.5866 29.6528C30.0521 30.17 30.6614 30.3055 31.1232 30.3055V27.3055ZM31.8729 27.7123C31.9237 27.7758 31.9776 27.8628 32.0176 27.9728C32.058 28.084 32.0766 28.1979 32.0766 28.3058H29.0766C29.0766 28.7951 29.2495 29.2355 29.5303 29.5864L31.8729 27.7123ZM32.0766 28.3058C32.0766 28.4137 32.058 28.5276 32.0176 28.6388C31.9776 28.7488 31.9237 28.8357 31.8729 28.8993L29.5303 27.0252C29.2495 27.3761 29.0766 27.8165 29.0766 28.3058H32.0766ZM31.8165 28.9657C31.6896 29.1067 31.5393 29.1995 31.3982 29.2517C31.2659 29.3007 31.1646 29.3061 31.1232 29.3061V26.3061C30.6614 26.3061 30.0521 26.4416 29.5866 26.9588L31.8165 28.9657ZM31.1232 29.3061H33.3408V26.3061H31.1232V29.3061ZM33.3408 29.3061C34.4262 29.3061 35.4123 29.2002 36.257 28.9454L35.3907 26.0732C34.9236 26.2141 34.2544 26.3061 33.3408 26.3061V29.3061ZM36.2507 28.9473C37.0351 28.7144 37.7561 28.3873 38.3462 27.9214L36.4873 25.5668C36.2861 25.7256 35.9452 25.9086 35.3969 26.0714L36.2507 28.9473ZM38.3649 27.9064C38.9275 27.4475 39.3794 26.8785 39.6444 26.1894L36.8444 25.1125C36.7971 25.2354 36.6972 25.3953 36.4686 25.5818L38.3649 27.9064ZM39.6322 26.2203C39.8688 25.6435 39.9943 25.0394 39.9943 24.4172H36.9943C36.9943 24.628 36.9532 24.8464 36.8567 25.0816L39.6322 26.2203ZM39.9943 24.4172C39.9943 23.861 39.9061 23.3133 39.7373 22.7787L36.8765 23.6821C36.9576 23.9387 36.9943 24.1822 36.9943 24.4172H39.9943ZM39.7506 22.8232C39.5522 22.12 39.1585 21.5245 38.6288 21.0429L36.6108 23.2627C36.7681 23.4058 36.8325 23.5286 36.8632 23.6376L39.7506 22.8232ZM38.6468 21.0595C38.0885 20.5351 37.3806 20.1828 36.6202 19.942L35.7146 22.802C36.2035 22.9568 36.4639 23.125 36.5928 23.2461L38.6468 21.0595ZM36.6202 19.942C35.7924 19.6798 34.8054 19.5753 33.7156 19.5753V22.5753C34.6455 22.5753 35.2931 22.6685 35.7146 22.802L36.6202 19.942ZM33.7156 19.5753C33.07 19.5753 32.4291 19.6222 31.7936 19.7164L32.2332 22.684C32.7221 22.6116 33.216 22.5753 33.7156 22.5753V19.5753ZM31.8205 19.7126C31.2286 19.7894 30.6845 19.8786 30.1913 19.9819L30.8059 22.9182C31.208 22.8341 31.6737 22.7568 32.2062 22.6877L31.8205 19.7126ZM30.1913 19.9819C29.723 20.0799 29.3148 20.1779 28.9793 20.2773L29.8315 23.1537C30.0581 23.0866 30.3787 23.0076 30.8059 22.9182L30.1913 19.9819ZM29.0154 20.2671C28.8761 20.3046 28.7537 20.3389 28.6597 20.3678C28.6177 20.3807 28.5526 20.4013 28.4863 20.4268C28.4607 20.4366 28.3837 20.4664 28.2945 20.5144C28.257 20.5346 28.15 20.5933 28.032 20.6931C27.973 20.7431 27.8648 20.8418 27.7618 20.9924C27.6624 21.1376 27.4994 21.432 27.4994 21.8405H30.4994C30.4994 22.2484 30.3365 22.542 30.2377 22.6864C30.1352 22.8363 30.0279 22.9342 29.9699 22.9832C29.854 23.0812 29.7502 23.1379 29.7168 23.1558C29.6361 23.1993 29.5719 23.2235 29.5632 23.2268C29.5307 23.2393 29.5164 23.243 29.542 23.2351C29.5834 23.2224 29.664 23.1993 29.7953 23.164L29.0154 20.2671ZM28.5979 20.3952C28.5646 20.4045 28.5374 20.4115 28.5158 20.4167C28.494 20.422 28.4805 20.4248 28.474 20.426C28.471 20.4266 28.4706 20.4266 28.4726 20.4263C28.4746 20.426 28.4799 20.4252 28.4882 20.4242C28.4965 20.4232 28.5092 20.4219 28.5259 20.4208C28.5424 20.4196 28.5652 20.4186 28.5933 20.4186V23.4186C28.9003 23.4186 29.2099 23.3388 29.4008 23.2858L28.5979 20.3952ZM28.5933 20.4186C28.6069 20.4186 28.8024 20.4198 29.0319 20.5804L27.3115 23.0381C27.7492 23.3445 28.2258 23.4186 28.5933 23.4186V20.4186ZM29.1682 20.6881C29.2502 20.761 29.3473 20.8731 29.4219 21.0305C29.4979 21.1911 29.5311 21.3583 29.5311 21.5125H26.5311C26.5311 22.099 26.7952 22.5926 27.1751 22.9304L29.1682 20.6881ZM29.5311 21.5125C29.5311 21.8974 29.3503 22.1454 29.2684 22.2347C29.197 22.3124 29.1664 22.312 29.2639 22.2604L27.8603 19.609C27.6038 19.7448 27.3078 19.9345 27.0594 20.2048C26.8004 20.4866 26.5311 20.9298 26.5311 21.5125H29.5311ZM29.2481 22.2686C29.4808 22.149 29.8177 22.0225 30.2845 21.9058L29.5569 18.9954C28.9411 19.1493 28.3721 19.3457 27.8761 19.6008L29.2481 22.2686ZM30.3038 21.9009C30.7848 21.7738 31.3188 21.6708 31.9086 21.5947L31.5247 18.6194C30.8235 18.7098 30.1603 18.8359 29.5377 19.0003L30.3038 21.9009ZM31.9086 21.5947C32.4977 21.5187 33.0475 21.4821 33.5594 21.4821V18.4821C32.9053 18.4821 32.2266 18.5288 31.5247 18.6194L31.9086 21.5947ZM33.5594 21.4821C34.7221 21.4821 35.56 21.6054 36.1303 21.7955L37.079 18.9495C36.0877 18.619 34.8954 18.4821 33.5594 18.4821V21.4821ZM36.1303 21.7955C36.7677 22.008 37.1681 22.256 37.4123 22.4888L39.4826 20.3176C38.8314 19.6967 38.0033 19.2576 37.079 18.9495L36.1303 21.7955ZM37.4258 22.5015C37.6975 22.7542 37.8418 23.0015 37.9142 23.2476L40.7923 22.4011C40.5523 21.5852 40.0928 20.8851 39.4691 20.3049L37.4258 22.5015ZM37.922 23.2733C38.0443 23.6631 38.1031 24.048 38.1031 24.4328H41.1031C41.1031 23.7349 40.9953 23.0475 40.7844 22.3753L37.922 23.2733ZM38.1031 24.4328C38.1031 24.6263 38.0698 24.8703 37.9789 25.1731L40.8524 26.0351C41.0115 25.505 41.1031 24.9682 41.1031 24.4328H38.1031ZM37.982 25.163C37.9271 25.3414 37.8172 25.5531 37.6075 25.7966L39.8808 27.7541C40.3166 27.248 40.6544 26.6789 40.8494 26.0452L37.982 25.163ZM37.6053 25.7992C37.4469 25.9839 37.1875 26.1968 36.7724 26.4123L38.1548 29.0748C38.8224 28.7282 39.4168 28.2955 39.883 27.7515L37.6053 25.7992ZM36.7823 26.4072C36.4675 26.5677 35.9864 26.7109 35.2823 26.7822L35.5846 29.7669C36.5254 29.6716 37.3978 29.4608 38.1449 29.0799L36.7823 26.4072ZM35.2291 29.7606C35.9569 29.8606 36.5123 30.021 36.9256 30.2129L38.189 27.4919C37.4362 27.1424 36.5757 26.9175 35.6378 26.7885L35.2291 29.7606ZM36.9458 30.2221C37.369 30.411 37.6602 30.6288 37.8621 30.8537L40.0948 28.85C39.5679 28.2628 38.9116 27.8143 38.1688 27.4827L36.9458 30.2221ZM37.8751 30.8681C38.0892 31.1005 38.245 31.367 38.3462 31.6833L41.2035 30.7689C40.9715 30.0441 40.5964 29.3944 40.0817 28.8356L37.8751 30.8681ZM38.349 31.6917C38.4599 32.0316 38.5247 32.4341 38.5247 32.9127H41.5247C41.5247 32.1628 41.423 31.4409 41.2008 30.7605L38.349 31.6917ZM38.5247 32.9127C38.5247 33.4768 38.4393 33.9794 38.281 34.4317L41.1126 35.4228C41.3915 34.6258 41.5247 33.7854 41.5247 32.9127H38.5247ZM38.2738 34.4529C38.1476 34.8315 37.9345 35.1675 37.6089 35.4727L39.6608 37.6613C40.3347 37.0295 40.8295 36.2724 41.1198 35.4016L38.2738 34.4529ZM37.6213 35.4613C37.3237 35.7341 36.8692 36.0001 36.1885 36.2128L37.0833 39.0763C38.0684 38.7685 38.9466 38.3161 39.6484 37.6727L37.6213 35.4613ZM36.1833 36.2145C35.5548 36.4134 34.6938 36.535 33.5594 36.535V39.535C34.882 39.535 36.0721 39.3963 37.0885 39.0747L36.1833 36.2145ZM33.5594 36.535C33.0214 36.535 32.4574 36.4939 31.8663 36.4095L31.4421 39.3794C32.1628 39.4823 32.8689 39.535 33.5594 39.535V36.535ZM31.8431 36.4064C31.2357 36.3292 30.6965 36.2299 30.2221 36.1113L29.4945 39.0217C30.1028 39.1738 30.7609 39.293 31.4652 39.3825L31.8431 36.4064ZM30.2553 36.12C29.7947 35.9935 29.4748 35.8645 29.2647 35.7499L27.8282 38.3836C28.3053 38.6438 28.8599 38.8479 29.4612 39.013L30.2553 36.12ZM29.2647 35.7499C29.1684 35.6974 29.1968 35.6969 29.2657 35.7721C29.3417 35.855 29.5311 36.1064 29.5311 36.5045H26.5311C26.5311 37.0901 26.8064 37.5289 27.0542 37.7992C27.2949 38.0618 27.5809 38.2487 27.8282 38.3836L29.2647 35.7499ZM29.5311 36.5045C29.5311 36.6581 29.4981 36.8389 29.4079 37.0192C29.3186 37.1978 29.1989 37.3248 29.0926 37.4075L27.2508 35.0394C26.8072 35.3844 26.5311 35.9078 26.5311 36.5045H29.5311ZM29.1087 37.3947C28.871 37.5849 28.6451 37.5985 28.5933 37.5985V34.5985C28.1875 34.5985 27.6806 34.6954 27.2346 35.0521L29.1087 37.3947ZM28.5933 37.5985C28.5696 37.5985 28.5514 37.5973 28.5395 37.5963C28.5275 37.5952 28.5204 37.594 28.5185 37.5937C28.5156 37.5932 28.5274 37.5951 28.556 37.6033L29.3802 34.7187C29.1556 34.6545 28.8844 34.5985 28.5933 34.5985V37.5985ZM28.6538 37.6277C28.7479 37.6478 28.8593 37.677 28.9892 37.7176L29.884 34.8542C29.6808 34.7907 29.4798 34.7366 29.2824 34.6943L28.6538 37.6277ZM28.9892 37.7176C29.0262 37.7292 29.2021 37.7842 29.2391 37.7957C29.3501 37.8304 29.253 37.8001 29.364 37.8348C29.475 37.8694 29.3779 37.8391 29.4889 37.8738L30.3838 35.0104C30.3468 34.9988 30.1709 34.9438 30.1339 34.9323C30.1154 34.9265 30.1212 34.9283 30.1027 34.9225C30.0842 34.9167 30.0899 34.9185 30.0714 34.9128C30.0529 34.907 30.0587 34.9088 30.0402 34.903C30.0217 34.8972 30.0275 34.899 30.009 34.8932C29.9905 34.8875 29.9962 34.8893 29.9777 34.8835C29.9592 34.8777 29.965 34.8795 29.9465 34.8737C29.928 34.8679 29.9338 34.8697 29.9153 34.864C29.8968 34.8582 29.9025 34.86 29.884 34.8542L28.9892 37.7176ZM29.5131 37.8811C29.7261 37.9438 29.9361 37.9967 30.1419 38.0379L30.7303 35.0961C30.6237 35.0748 30.5005 35.0445 30.3596 35.003L29.5131 37.8811ZM30.1218 38.0337C30.5909 38.1342 31.1029 38.2276 31.656 38.3144L32.1209 35.3506C31.6121 35.2708 31.1558 35.1872 30.7504 35.1003L30.1218 38.0337ZM31.6604 38.3151C32.2805 38.4105 32.9139 38.4574 33.5594 38.4574V35.4574C33.0597 35.4574 32.5791 35.4211 32.1165 35.3499L31.6604 38.3151ZM33.5594 38.4574C34.7107 38.4574 35.7457 38.3527 36.6235 38.1038L35.805 35.2176C35.2877 35.3643 34.5529 35.4574 33.5594 35.4574V38.4574ZM36.6375 38.0998C37.4883 37.8495 38.2668 37.4749 38.8871 36.9182L36.8834 34.6854C36.6916 34.8575 36.3562 35.0554 35.791 35.2217L36.6375 38.0998ZM38.873 36.9307C39.485 36.3951 39.9325 35.7317 40.1759 34.953L37.3124 34.0582C37.2434 34.279 37.1184 34.4797 36.8975 34.6729L38.873 36.9307ZM40.1701 34.9712C40.3923 34.2908 40.494 33.5689 40.494 32.819H37.494C37.494 33.2976 37.4292 33.7001 37.3183 34.04L40.1701 34.9712ZM40.494 32.819C40.494 32.1245 40.3753 31.4485 40.1355 30.7998L37.3216 31.8398C37.4358 32.149 37.494 32.4724 37.494 32.819H40.494ZM40.1485 30.8364C39.8877 30.0701 39.4261 29.4223 38.8123 28.8984L36.8645 31.1801C37.1045 31.3849 37.2363 31.5909 37.3086 31.8032L40.1485 30.8364ZM38.8281 28.9121C38.1943 28.3556 37.4046 27.9729 36.536 27.7123L35.6739 30.5858C36.2629 30.7625 36.6288 30.9733 36.8487 31.1664L38.8281 28.9121ZM36.5547 27.7181C35.6303 27.4276 34.5441 27.3055 33.3408 27.3055V30.3055C34.3655 30.3055 35.122 30.4125 35.6552 30.5801L36.5547 27.7181ZM33.3408 27.3055H31.1232V30.3055H33.3408V27.3055Z" fill="#72E3A2"/>
</svg>
