<svg width="68" height="68" viewBox="0 0 68 68" fill="none" xmlns="http://www.w3.org/2000/svg">
<path d="M34 68C52.7777 68 68 52.7777 68 34C68 15.2223 52.7777 0 34 0C15.2223 0 0 15.2223 0 34C0 52.7777 15.2223 68 34 68Z" fill="#FCFCFC"/>
<path d="M36.2208 36.9262L36.7475 38.3307C36.7548 38.328 36.7621 38.3252 36.7693 38.3223L36.2208 36.9262ZM37.6263 35.9736L38.757 36.9593C38.7611 36.9546 38.7652 36.9498 38.7692 36.9451L37.6263 35.9736ZM38.3759 34.49L36.9288 34.0953C36.9265 34.1035 36.9244 34.1117 36.9223 34.12L38.3759 34.49ZM38.3759 31.1168L36.9601 31.6123C36.9652 31.6267 36.9704 31.641 36.9759 31.6553L38.3759 31.1168ZM37.6263 30.1017L36.698 31.2799C36.7111 31.2902 36.7243 31.3003 36.7377 31.3102L37.6263 30.1017ZM29.7087 29.3209L29.6018 30.8171C29.6374 30.8196 29.673 30.8209 29.7087 30.8209V29.3209ZM28.9903 28.9773L27.7422 29.8094C27.7535 29.8263 27.7652 29.8431 27.7772 29.8596L28.9903 28.9773ZM28.881 28.2277L30.2226 28.8985C30.3051 28.7335 30.3565 28.5546 30.3741 28.3709L28.881 28.2277ZM29.5056 21.7155L30.9988 21.8588C30.9994 21.8526 30.9999 21.8463 31.0005 21.8401L29.5056 21.7155ZM29.5369 21.3407L28.0543 21.1127C28.049 21.147 28.0449 21.1815 28.0421 21.2162L29.5369 21.3407ZM29.6618 20.9816L28.433 20.1214C28.4128 20.1502 28.3937 20.1797 28.3756 20.2098L29.6618 20.9816ZM29.9898 20.7317L30.5806 22.1104C30.5952 22.1042 30.6097 22.0977 30.6241 22.091L29.9898 20.7317ZM37.9543 20.7942L36.8444 21.8032C36.8604 21.8208 36.8768 21.838 36.8936 21.8548L37.9543 20.7942ZM37.9543 21.5438L39.0149 22.6044C39.0318 22.5876 39.0482 22.5704 39.0642 22.5528L37.9543 21.5438ZM30.6457 21.6999V20.1999C29.8726 20.1999 29.2261 20.7875 29.1525 21.557L30.6457 21.6999ZM30.021 28.2277L28.5278 28.0848C28.4876 28.5056 28.6267 28.9238 28.911 29.2366C29.1953 29.5494 29.5983 29.7277 30.021 29.7277V28.2277ZM36.3926 28.462L36.0649 29.9257C36.0733 29.9276 36.0817 29.9294 36.0901 29.9311L36.3926 28.462ZM39.3598 30.5702L38.0036 31.2113L38.0083 31.2209L39.3598 30.5702ZM39.3598 35.3333L40.7634 35.8622L40.7659 35.8556L39.3598 35.3333ZM36.3926 38.035L36.0088 36.5849C36.0003 36.5872 35.9918 36.5895 35.9834 36.5919L36.3926 38.035ZM32.1605 38.1911L32.3726 36.7062C32.3649 36.7051 32.3572 36.7041 32.3494 36.7031L32.1605 38.1911ZM30.3646 37.8476L30.7545 36.3992C30.748 36.3974 30.7416 36.3957 30.7351 36.3941L30.3646 37.8476ZM28.678 36.5202L29.5989 37.7042C29.6043 37.7 29.6097 37.6957 29.615 37.6915L28.678 36.5202ZM29.4744 36.4577L29.0623 37.9C29.0946 37.9092 29.1273 37.9174 29.1601 37.9244L29.4744 36.4577ZM30.4426 36.7388L29.9952 38.1705C30.0033 38.173 30.0113 38.1755 30.0194 38.1778L30.4426 36.7388ZM30.9424 36.8637L31.2567 35.397C31.25 35.3956 31.2433 35.3942 31.2366 35.3929L30.9424 36.8637ZM34.0657 38.7541C35.0371 38.7541 35.9463 38.6311 36.7475 38.3307L35.6941 35.5217C35.3293 35.6585 34.8017 35.7541 34.0657 35.7541V38.7541ZM36.7693 38.3223C37.5399 38.0196 38.2207 37.5744 38.757 36.9593L36.4957 34.9879C36.3239 35.1849 36.0678 35.3747 35.6723 35.5301L36.7693 38.3223ZM38.7692 36.9451C39.283 36.3406 39.6321 35.6359 39.8296 34.86L36.9223 34.12C36.8283 34.4893 36.6776 34.7737 36.4834 35.0021L38.7692 36.9451ZM39.8231 34.8847C40.0198 34.1633 40.1102 33.393 40.1102 32.5848H37.1102C37.1102 33.1716 37.0444 33.6715 36.9288 34.0953L39.8231 34.8847ZM40.1102 32.5848C40.1102 31.8831 40.0154 31.201 39.7759 30.5783L36.9759 31.6553C37.0487 31.8446 37.1102 32.1412 37.1102 32.5848H40.1102ZM39.7917 30.6213C39.5465 29.9208 39.1135 29.3334 38.5149 28.8932L36.7377 31.3102C36.8471 31.3906 36.9138 31.4799 36.9601 31.6123L39.7917 30.6213ZM38.5546 28.9235C37.978 28.4692 37.2807 28.198 36.5507 28.0416L35.9221 30.975C36.3582 31.0684 36.5875 31.1929 36.698 31.2799L38.5546 28.9235ZM36.5507 28.0416C35.8297 27.8871 34.9928 27.8209 34.0657 27.8209V30.8209C34.8669 30.8209 35.4771 30.8796 35.9221 30.975L36.5507 28.0416ZM34.0657 27.8209H30.1615V30.8209H34.0657V27.8209ZM30.1615 27.8209C30.1613 27.8209 30.161 27.8209 30.1607 27.8209C30.1604 27.8209 30.1601 27.8209 30.1598 27.8209C30.1596 27.8209 30.1593 27.8209 30.159 27.8209C30.1587 27.8209 30.1584 27.8209 30.1581 27.8209C30.1578 27.8209 30.1576 27.8209 30.1573 27.8209C30.157 27.8209 30.1567 27.8209 30.1564 27.8209C30.1561 27.8209 30.1558 27.8209 30.1556 27.8209C30.1553 27.8209 30.155 27.8209 30.1547 27.8209C30.1544 27.8209 30.1541 27.8209 30.1539 27.8209C30.1536 27.8209 30.1533 27.8209 30.153 27.8209C30.1527 27.8209 30.1524 27.8209 30.1521 27.8209C30.1519 27.8209 30.1516 27.8209 30.1513 27.8209C30.151 27.8209 30.1507 27.8209 30.1504 27.8209C30.1501 27.8209 30.1499 27.8209 30.1496 27.8209C30.1493 27.8209 30.149 27.8209 30.1487 27.8209C30.1484 27.8209 30.1482 27.8209 30.1479 27.8209C30.1476 27.8209 30.1473 27.8209 30.147 27.8209C30.1467 27.8209 30.1464 27.8209 30.1462 27.8209C30.1459 27.8209 30.1456 27.8209 30.1453 27.8209C30.145 27.8209 30.1447 27.8209 30.1444 27.8209C30.1442 27.8209 30.1439 27.8209 30.1436 27.8209C30.1433 27.8209 30.143 27.8209 30.1427 27.8209C30.1424 27.8209 30.1422 27.8209 30.1419 27.8209C30.1416 27.8209 30.1413 27.8209 30.141 27.8209C30.1407 27.8209 30.1404 27.8209 30.1402 27.8209C30.1399 27.8209 30.1396 27.8209 30.1393 27.8209C30.139 27.8209 30.1387 27.8209 30.1384 27.8209C30.1382 27.8209 30.1379 27.8209 30.1376 27.8209C30.1373 27.8209 30.137 27.8209 30.1367 27.8209C30.1364 27.8209 30.1362 27.8209 30.1359 27.8209C30.1356 27.8209 30.1353 27.8209 30.135 27.8209C30.1347 27.8209 30.1344 27.8209 30.1342 27.8209C30.1339 27.8209 30.1336 27.8209 30.1333 27.8209C30.133 27.8209 30.1327 27.8209 30.1324 27.8209C30.1322 27.8209 30.1319 27.8209 30.1316 27.8209C30.1313 27.8209 30.131 27.8209 30.1307 27.8209C30.1304 27.8209 30.1302 27.8209 30.1299 27.8209C30.1296 27.8209 30.1293 27.8209 30.129 27.8209C30.1287 27.8209 30.1284 27.8209 30.1281 27.8209C30.1279 27.8209 30.1276 27.8209 30.1273 27.8209C30.127 27.8209 30.1267 27.8209 30.1264 27.8209C30.1261 27.8209 30.1259 27.8209 30.1256 27.8209C30.1253 27.8209 30.125 27.8209 30.1247 27.8209C30.1244 27.8209 30.1241 27.8209 30.1239 27.8209C30.1236 27.8209 30.1233 27.8209 30.123 27.8209C30.1227 27.8209 30.1224 27.8209 30.1221 27.8209C30.1218 27.8209 30.1216 27.8209 30.1213 27.8209C30.121 27.8209 30.1207 27.8209 30.1204 27.8209C30.1201 27.8209 30.1198 27.8209 30.1196 27.8209C30.1193 27.8209 30.119 27.8209 30.1187 27.8209C30.1184 27.8209 30.1181 27.8209 30.1178 27.8209C30.1175 27.8209 30.1173 27.8209 30.117 27.8209C30.1167 27.8209 30.1164 27.8209 30.1161 27.8209C30.1158 27.8209 30.1155 27.8209 30.1153 27.8209C30.115 27.8209 30.1147 27.8209 30.1144 27.8209C30.1141 27.8209 30.1138 27.8209 30.1135 27.8209C30.1132 27.8209 30.113 27.8209 30.1127 27.8209C30.1124 27.8209 30.1121 27.8209 30.1118 27.8209C30.1115 27.8209 30.1112 27.8209 30.1109 27.8209C30.1107 27.8209 30.1104 27.8209 30.1101 27.8209C30.1098 27.8209 30.1095 27.8209 30.1092 27.8209C30.1089 27.8209 30.1087 27.8209 30.1084 27.8209C30.1081 27.8209 30.1078 27.8209 30.1075 27.8209C30.1072 27.8209 30.1069 27.8209 30.1066 27.8209C30.1064 27.8209 30.1061 27.8209 30.1058 27.8209C30.1055 27.8209 30.1052 27.8209 30.1049 27.8209C30.1046 27.8209 30.1043 27.8209 30.1041 27.8209C30.1038 27.8209 30.1035 27.8209 30.1032 27.8209C30.1029 27.8209 30.1026 27.8209 30.1023 27.8209C30.102 27.8209 30.1018 27.8209 30.1015 27.8209C30.1012 27.8209 30.1009 27.8209 30.1006 27.8209C30.1003 27.8209 30.1 27.8209 30.0997 27.8209C30.0995 27.8209 30.0992 27.8209 30.0989 27.8209C30.0986 27.8209 30.0983 27.8209 30.098 27.8209C30.0977 27.8209 30.0974 27.8209 30.0972 27.8209C30.0969 27.8209 30.0966 27.8209 30.0963 27.8209C30.096 27.8209 30.0957 27.8209 30.0954 27.8209C30.0951 27.8209 30.0949 27.8209 30.0946 27.8209C30.0943 27.8209 30.094 27.8209 30.0937 27.8209C30.0934 27.8209 30.0931 27.8209 30.0928 27.8209C30.0926 27.8209 30.0923 27.8209 30.092 27.8209C30.0917 27.8209 30.0914 27.8209 30.0911 27.8209C30.0908 27.8209 30.0905 27.8209 30.0902 27.8209C30.09 27.8209 30.0897 27.8209 30.0894 27.8209C30.0891 27.8209 30.0888 27.8209 30.0885 27.8209C30.0882 27.8209 30.0879 27.8209 30.0877 27.8209C30.0874 27.8209 30.0871 27.8209 30.0868 27.8209C30.0865 27.8209 30.0862 27.8209 30.0859 27.8209C30.0856 27.8209 30.0854 27.8209 30.0851 27.8209C30.0848 27.8209 30.0845 27.8209 30.0842 27.8209C30.0839 27.8209 30.0836 27.8209 30.0833 27.8209C30.083 27.8209 30.0828 27.8209 30.0825 27.8209C30.0822 27.8209 30.0819 27.8209 30.0816 27.8209C30.0813 27.8209 30.081 27.8209 30.0807 27.8209C30.0805 27.8209 30.0802 27.8209 30.0799 27.8209C30.0796 27.8209 30.0793 27.8209 30.079 27.8209C30.0787 27.8209 30.0784 27.8209 30.0781 27.8209C30.0779 27.8209 30.0776 27.8209 30.0773 27.8209C30.077 27.8209 30.0767 27.8209 30.0764 27.8209C30.0761 27.8209 30.0758 27.8209 30.0755 27.8209C30.0753 27.8209 30.075 27.8209 30.0747 27.8209C30.0744 27.8209 30.0741 27.8209 30.0738 27.8209C30.0735 27.8209 30.0732 27.8209 30.0729 27.8209C30.0727 27.8209 30.0724 27.8209 30.0721 27.8209C30.0718 27.8209 30.0715 27.8209 30.0712 27.8209C30.0709 27.8209 30.0706 27.8209 30.0703 27.8209C30.0701 27.8209 30.0698 27.8209 30.0695 27.8209C30.0692 27.8209 30.0689 27.8209 30.0686 27.8209C30.0683 27.8209 30.068 27.8209 30.0677 27.8209C30.0675 27.8209 30.0672 27.8209 30.0669 27.8209C30.0666 27.8209 30.0663 27.8209 30.066 27.8209C30.0657 27.8209 30.0654 27.8209 30.0651 27.8209C30.0649 27.8209 30.0646 27.8209 30.0643 27.8209C30.064 27.8209 30.0637 27.8209 30.0634 27.8209C30.0631 27.8209 30.0628 27.8209 30.0625 27.8209C30.0623 27.8209 30.062 27.8209 30.0617 27.8209C30.0614 27.8209 30.0611 27.8209 30.0608 27.8209C30.0605 27.8209 30.0602 27.8209 30.0599 27.8209C30.0596 27.8209 30.0594 27.8209 30.0591 27.8209C30.0588 27.8209 30.0585 27.8209 30.0582 27.8209C30.0579 27.8209 30.0576 27.8209 30.0573 27.8209C30.057 27.8209 30.0568 27.8209 30.0565 27.8209C30.0562 27.8209 30.0559 27.8209 30.0556 27.8209C30.0553 27.8209 30.055 27.8209 30.0547 27.8209C30.0544 27.8209 30.0541 27.8209 30.0539 27.8209C30.0536 27.8209 30.0533 27.8209 30.053 27.8209C30.0527 27.8209 30.0524 27.8209 30.0521 27.8209C30.0518 27.8209 30.0515 27.8209 30.0513 27.8209C30.051 27.8209 30.0507 27.8209 30.0504 27.8209C30.0501 27.8209 30.0498 27.8209 30.0495 27.8209C30.0492 27.8209 30.0489 27.8209 30.0486 27.8209C30.0484 27.8209 30.0481 27.8209 30.0478 27.8209C30.0475 27.8209 30.0472 27.8209 30.0469 27.8209C30.0466 27.8209 30.0463 27.8209 30.046 27.8209C30.0457 27.8209 30.0455 27.8209 30.0452 27.8209C30.0449 27.8209 30.0446 27.8209 30.0443 27.8209C30.044 27.8209 30.0437 27.8209 30.0434 27.8209C30.0431 27.8209 30.0428 27.8209 30.0426 27.8209C30.0423 27.8209 30.042 27.8209 30.0417 27.8209C30.0414 27.8209 30.0411 27.8209 30.0408 27.8209C30.0405 27.8209 30.0402 27.8209 30.0399 27.8209C30.0397 27.8209 30.0394 27.8209 30.0391 27.8209C30.0388 27.8209 30.0385 27.8209 30.0382 27.8209C30.0379 27.8209 30.0376 27.8209 30.0373 27.8209C30.037 27.8209 30.0367 27.8209 30.0365 27.8209C30.0362 27.8209 30.0359 27.8209 30.0356 27.8209C30.0353 27.8209 30.035 27.8209 30.0347 27.8209C30.0344 27.8209 30.0341 27.8209 30.0338 27.8209C30.0336 27.8209 30.0333 27.8209 30.033 27.8209C30.0327 27.8209 30.0324 27.8209 30.0321 27.8209C30.0318 27.8209 30.0315 27.8209 30.0312 27.8209C30.0309 27.8209 30.0306 27.8209 30.0304 27.8209C30.0301 27.8209 30.0298 27.8209 30.0295 27.8209C30.0292 27.8209 30.0289 27.8209 30.0286 27.8209C30.0283 27.8209 30.028 27.8209 30.0277 27.8209C30.0274 27.8209 30.0272 27.8209 30.0269 27.8209C30.0266 27.8209 30.0263 27.8209 30.026 27.8209C30.0257 27.8209 30.0254 27.8209 30.0251 27.8209C30.0248 27.8209 30.0245 27.8209 30.0242 27.8209C30.024 27.8209 30.0237 27.8209 30.0234 27.8209C30.0231 27.8209 30.0228 27.8209 30.0225 27.8209C30.0222 27.8209 30.0219 27.8209 30.0216 27.8209C30.0213 27.8209 30.021 27.8209 30.0208 27.8209C30.0205 27.8209 30.0202 27.8209 30.0199 27.8209C30.0196 27.8209 30.0193 27.8209 30.019 27.8209C30.0187 27.8209 30.0184 27.8209 30.0181 27.8209C30.0178 27.8209 30.0176 27.8209 30.0173 27.8209C30.017 27.8209 30.0167 27.8209 30.0164 27.8209C30.0161 27.8209 30.0158 27.8209 30.0155 27.8209C30.0152 27.8209 30.0149 27.8209 30.0146 27.8209C30.0143 27.8209 30.0141 27.8209 30.0138 27.8209C30.0135 27.8209 30.0132 27.8209 30.0129 27.8209C30.0126 27.8209 30.0123 27.8209 30.012 27.8209C30.0117 27.8209 30.0114 27.8209 30.0111 27.8209C30.0108 27.8209 30.0106 27.8209 30.0103 27.8209C30.01 27.8209 30.0097 27.8209 30.0094 27.8209C30.0091 27.8209 30.0088 27.8209 30.0085 27.8209C30.0082 27.8209 30.0079 27.8209 30.0076 27.8209C30.0073 27.8209 30.0071 27.8209 30.0068 27.8209C30.0065 27.8209 30.0062 27.8209 30.0059 27.8209C30.0056 27.8209 30.0053 27.8209 30.005 27.8209C30.0047 27.8209 30.0044 27.8209 30.0041 27.8209C30.0038 27.8209 30.0036 27.8209 30.0033 27.8209C30.003 27.8209 30.0027 27.8209 30.0024 27.8209C30.0021 27.8209 30.0018 27.8209 30.0015 27.8209C30.0012 27.8209 30.0009 27.8209 30.0006 27.8209C30.0003 27.8209 30 27.8209 29.9998 27.8209C29.9995 27.8209 29.9992 27.8209 29.9989 27.8209C29.9986 27.8209 29.9983 27.8209 29.998 27.8209C29.9977 27.8209 29.9974 27.8209 29.9971 27.8209C29.9968 27.8209 29.9965 27.8209 29.9963 27.8209C29.996 27.8209 29.9957 27.8209 29.9954 27.8209C29.9951 27.8209 29.9948 27.8209 29.9945 27.8209C29.9942 27.8209 29.9939 27.8209 29.9936 27.8209C29.9933 27.8209 29.993 27.8209 29.9927 27.8209C29.9924 27.8209 29.9922 27.8209 29.9919 27.8209C29.9916 27.8209 29.9913 27.8209 29.991 27.8209C29.9907 27.8209 29.9904 27.8209 29.9901 27.8209C29.9898 27.8209 29.9895 27.8209 29.9892 27.8209C29.9889 27.8209 29.9886 27.8209 29.9884 27.8209C29.9881 27.8209 29.9878 27.8209 29.9875 27.8209C29.9872 27.8209 29.9869 27.8209 29.9866 27.8209C29.9863 27.8209 29.986 27.8209 29.9857 27.8209C29.9854 27.8209 29.9851 27.8209 29.9848 27.8209C29.9845 27.8209 29.9843 27.8209 29.984 27.8209C29.9837 27.8209 29.9834 27.8209 29.9831 27.8209C29.9828 27.8209 29.9825 27.8209 29.9822 27.8209C29.9819 27.8209 29.9816 27.8209 29.9813 27.8209C29.981 27.8209 29.9807 27.8209 29.9804 27.8209C29.9802 27.8209 29.9799 27.8209 29.9796 27.8209C29.9793 27.8209 29.979 27.8209 29.9787 27.8209C29.9784 27.8209 29.9781 27.8209 29.9778 27.8209C29.9775 27.8209 29.9772 27.8209 29.9769 27.8209C29.9766 27.8209 29.9763 27.8209 29.9761 27.8209C29.9758 27.8209 29.9755 27.8209 29.9752 27.8209C29.9749 27.8209 29.9746 27.8209 29.9743 27.8209C29.974 27.8209 29.9737 27.8209 29.9734 27.8209C29.9731 27.8209 29.9728 27.8209 29.9725 27.8209C29.9722 27.8209 29.9719 27.8209 29.9717 27.8209C29.9714 27.8209 29.9711 27.8209 29.9708 27.8209C29.9705 27.8209 29.9702 27.8209 29.9699 27.8209C29.9696 27.8209 29.9693 27.8209 29.969 27.8209C29.9687 27.8209 29.9684 27.8209 29.9681 27.8209C29.9678 27.8209 29.9675 27.8209 29.9673 27.8209C29.967 27.8209 29.9667 27.8209 29.9664 27.8209C29.9661 27.8209 29.9658 27.8209 29.9655 27.8209C29.9652 27.8209 29.9649 27.8209 29.9646 27.8209C29.9643 27.8209 29.964 27.8209 29.9637 27.8209C29.9634 27.8209 29.9631 27.8209 29.9628 27.8209C29.9626 27.8209 29.9623 27.8209 29.962 27.8209C29.9617 27.8209 29.9614 27.8209 29.9611 27.8209C29.9608 27.8209 29.9605 27.8209 29.9602 27.8209C29.9599 27.8209 29.9596 27.8209 29.9593 27.8209C29.959 27.8209 29.9587 27.8209 29.9584 27.8209C29.9581 27.8209 29.9579 27.8209 29.9576 27.8209C29.9573 27.8209 29.957 27.8209 29.9567 27.8209C29.9564 27.8209 29.9561 27.8209 29.9558 27.8209C29.9555 27.8209 29.9552 27.8209 29.9549 27.8209C29.9546 27.8209 29.9543 27.8209 29.954 27.8209C29.9537 27.8209 29.9534 27.8209 29.9531 27.8209C29.9529 27.8209 29.9526 27.8209 29.9523 27.8209C29.952 27.8209 29.9517 27.8209 29.9514 27.8209C29.9511 27.8209 29.9508 27.8209 29.9505 27.8209C29.9502 27.8209 29.9499 27.8209 29.9496 27.8209C29.9493 27.8209 29.949 27.8209 29.9487 27.8209C29.9484 27.8209 29.9481 27.8209 29.9478 27.8209C29.9476 27.8209 29.9473 27.8209 29.947 27.8209C29.9467 27.8209 29.9464 27.8209 29.9461 27.8209C29.9458 27.8209 29.9455 27.8209 29.9452 27.8209C29.9449 27.8209 29.9446 27.8209 29.9443 27.8209C29.944 27.8209 29.9437 27.8209 29.9434 27.8209C29.9431 27.8209 29.9428 27.8209 29.9425 27.8209C29.9422 27.8209 29.942 27.8209 29.9417 27.8209C29.9414 27.8209 29.9411 27.8209 29.9408 27.8209C29.9405 27.8209 29.9402 27.8209 29.9399 27.8209C29.9396 27.8209 29.9393 27.8209 29.939 27.8209C29.9387 27.8209 29.9384 27.8209 29.9381 27.8209C29.9378 27.8209 29.9375 27.8209 29.9372 27.8209C29.9369 27.8209 29.9366 27.8209 29.9364 27.8209C29.9361 27.8209 29.9358 27.8209 29.9355 27.8209C29.9352 27.8209 29.9349 27.8209 29.9346 27.8209C29.9343 27.8209 29.934 27.8209 29.9337 27.8209C29.9334 27.8209 29.9331 27.8209 29.9328 27.8209C29.9325 27.8209 29.9322 27.8209 29.9319 27.8209C29.9316 27.8209 29.9313 27.8209 29.931 27.8209C29.9307 27.8209 29.9305 27.8209 29.9302 27.8209C29.9299 27.8209 29.9296 27.8209 29.9293 27.8209C29.929 27.8209 29.9287 27.8209 29.9284 27.8209C29.9281 27.8209 29.9278 27.8209 29.9275 27.8209C29.9272 27.8209 29.9269 27.8209 29.9266 27.8209C29.9263 27.8209 29.926 27.8209 29.9257 27.8209C29.9254 27.8209 29.9251 27.8209 29.9248 27.8209C29.9245 27.8209 29.9242 27.8209 29.924 27.8209C29.9237 27.8209 29.9234 27.8209 29.9231 27.8209C29.9228 27.8209 29.9225 27.8209 29.9222 27.8209C29.9219 27.8209 29.9216 27.8209 29.9213 27.8209C29.921 27.8209 29.9207 27.8209 29.9204 27.8209C29.9201 27.8209 29.9198 27.8209 29.9195 27.8209C29.9192 27.8209 29.9189 27.8209 29.9186 27.8209C29.9183 27.8209 29.918 27.8209 29.9177 27.8209C29.9174 27.8209 29.9172 27.8209 29.9169 27.8209C29.9166 27.8209 29.9163 27.8209 29.916 27.8209C29.9157 27.8209 29.9154 27.8209 29.9151 27.8209C29.9148 27.8209 29.9145 27.8209 29.9142 27.8209C29.9139 27.8209 29.9136 27.8209 29.9133 27.8209C29.913 27.8209 29.9127 27.8209 29.9124 27.8209C29.9121 27.8209 29.9118 27.8209 29.9115 27.8209C29.9112 27.8209 29.9109 27.8209 29.9106 27.8209C29.9103 27.8209 29.91 27.8209 29.9098 27.8209C29.9095 27.8209 29.9092 27.8209 29.9089 27.8209C29.9086 27.8209 29.9083 27.8209 29.908 27.8209C29.9077 27.8209 29.9074 27.8209 29.9071 27.8209C29.9068 27.8209 29.9065 27.8209 29.9062 27.8209C29.9059 27.8209 29.9056 27.8209 29.9053 27.8209C29.905 27.8209 29.9047 27.8209 29.9044 27.8209C29.9041 27.8209 29.9038 27.8209 29.9035 27.8209C29.9032 27.8209 29.9029 27.8209 29.9026 27.8209C29.9023 27.8209 29.902 27.8209 29.9018 27.8209C29.9015 27.8209 29.9012 27.8209 29.9009 27.8209C29.9006 27.8209 29.9003 27.8209 29.9 27.8209C29.8997 27.8209 29.8994 27.8209 29.8991 27.8209C29.8988 27.8209 29.8985 27.8209 29.8982 27.8209C29.8979 27.8209 29.8976 27.8209 29.8973 27.8209C29.897 27.8209 29.8967 27.8209 29.8964 27.8209C29.8961 27.8209 29.8958 27.8209 29.8955 27.8209C29.8952 27.8209 29.8949 27.8209 29.8946 27.8209C29.8943 27.8209 29.894 27.8209 29.8937 27.8209C29.8934 27.8209 29.8931 27.8209 29.8929 27.8209C29.8926 27.8209 29.8923 27.8209 29.892 27.8209C29.8917 27.8209 29.8914 27.8209 29.8911 27.8209C29.8908 27.8209 29.8905 27.8209 29.8902 27.8209C29.8899 27.8209 29.8896 27.8209 29.8893 27.8209C29.889 27.8209 29.8887 27.8209 29.8884 27.8209C29.8881 27.8209 29.8878 27.8209 29.8875 27.8209C29.8872 27.8209 29.8869 27.8209 29.8866 27.8209C29.8863 27.8209 29.886 27.8209 29.8857 27.8209C29.8854 27.8209 29.8851 27.8209 29.8848 27.8209C29.8845 27.8209 29.8842 27.8209 29.8839 27.8209C29.8836 27.8209 29.8833 27.8209 29.883 27.8209C29.8827 27.8209 29.8825 27.8209 29.8822 27.8209C29.8819 27.8209 29.8816 27.8209 29.8813 27.8209C29.881 27.8209 29.8807 27.8209 29.8804 27.8209C29.8801 27.8209 29.8798 27.8209 29.8795 27.8209C29.8792 27.8209 29.8789 27.8209 29.8786 27.8209C29.8783 27.8209 29.878 27.8209 29.8777 27.8209C29.8774 27.8209 29.8771 27.8209 29.8768 27.8209C29.8765 27.8209 29.8762 27.8209 29.8759 27.8209C29.8756 27.8209 29.8753 27.8209 29.875 27.8209C29.8747 27.8209 29.8744 27.8209 29.8741 27.8209C29.8738 27.8209 29.8735 27.8209 29.8732 27.8209C29.8729 27.8209 29.8726 27.8209 29.8723 27.8209C29.872 27.8209 29.8717 27.8209 29.8714 27.8209C29.8711 27.8209 29.8708 27.8209 29.8705 27.8209C29.8702 27.8209 29.8699 27.8209 29.8697 27.8209C29.8694 27.8209 29.8691 27.8209 29.8688 27.8209C29.8685 27.8209 29.8682 27.8209 29.8679 27.8209C29.8676 27.8209 29.8673 27.8209 29.867 27.8209C29.8667 27.8209 29.8664 27.8209 29.8661 27.8209C29.8658 27.8209 29.8655 27.8209 29.8652 27.8209C29.8649 27.8209 29.8646 27.8209 29.8643 27.8209C29.864 27.8209 29.8637 27.8209 29.8634 27.8209C29.8631 27.8209 29.8628 27.8209 29.8625 27.8209C29.8622 27.8209 29.8619 27.8209 29.8616 27.8209C29.8613 27.8209 29.861 27.8209 29.8607 27.8209C29.8604 27.8209 29.8601 27.8209 29.8598 27.8209C29.8595 27.8209 29.8592 27.8209 29.8589 27.8209C29.8586 27.8209 29.8583 27.8209 29.858 27.8209C29.8577 27.8209 29.8574 27.8209 29.8571 27.8209C29.8568 27.8209 29.8565 27.8209 29.8562 27.8209C29.8559 27.8209 29.8556 27.8209 29.8553 27.8209C29.855 27.8209 29.8547 27.8209 29.8544 27.8209C29.8541 27.8209 29.8538 27.8209 29.8535 27.8209C29.8532 27.8209 29.8529 27.8209 29.8526 27.8209C29.8523 27.8209 29.852 27.8209 29.8518 27.8209C29.8515 27.8209 29.8512 27.8209 29.8509 27.8209C29.8506 27.8209 29.8503 27.8209 29.85 27.8209C29.8497 27.8209 29.8494 27.8209 29.8491 27.8209C29.8488 27.8209 29.8485 27.8209 29.8482 27.8209C29.8479 27.8209 29.8476 27.8209 29.8473 27.8209C29.847 27.8209 29.8467 27.8209 29.8464 27.8209C29.8461 27.8209 29.8458 27.8209 29.8455 27.8209C29.8452 27.8209 29.8449 27.8209 29.8446 27.8209C29.8443 27.8209 29.844 27.8209 29.8437 27.8209C29.8434 27.8209 29.8431 27.8209 29.8428 27.8209C29.8425 27.8209 29.8422 27.8209 29.8419 27.8209C29.8416 27.8209 29.8413 27.8209 29.841 27.8209C29.8407 27.8209 29.8404 27.8209 29.8401 27.8209C29.8398 27.8209 29.8395 27.8209 29.8392 27.8209C29.8389 27.8209 29.8386 27.8209 29.8383 27.8209C29.838 27.8209 29.8377 27.8209 29.8374 27.8209C29.8371 27.8209 29.8368 27.8209 29.8365 27.8209C29.8362 27.8209 29.8359 27.8209 29.8356 27.8209C29.8353 27.8209 29.835 27.8209 29.8347 27.8209C29.8344 27.8209 29.8341 27.8209 29.8338 27.8209C29.8335 27.8209 29.8332 27.8209 29.8329 27.8209C29.8326 27.8209 29.8323 27.8209 29.832 27.8209C29.8317 27.8209 29.8314 27.8209 29.8311 27.8209C29.8308 27.8209 29.8305 27.8209 29.8302 27.8209C29.8299 27.8209 29.8296 27.8209 29.8293 27.8209C29.829 27.8209 29.8287 27.8209 29.8284 27.8209C29.8281 27.8209 29.8278 27.8209 29.8275 27.8209C29.8272 27.8209 29.8269 27.8209 29.8266 27.8209C29.8263 27.8209 29.826 27.8209 29.8257 27.8209C29.8254 27.8209 29.8251 27.8209 29.8248 27.8209C29.8245 27.8209 29.8242 27.8209 29.8239 27.8209C29.8236 27.8209 29.8233 27.8209 29.823 27.8209C29.8227 27.8209 29.8224 27.8209 29.8221 27.8209C29.8218 27.8209 29.8215 27.8209 29.8212 27.8209C29.8209 27.8209 29.8206 27.8209 29.8203 27.8209C29.82 27.8209 29.8197 27.8209 29.8194 27.8209C29.8191 27.8209 29.8188 27.8209 29.8185 27.8209C29.8182 27.8209 29.8179 27.8209 29.8176 27.8209C29.8173 27.8209 29.817 27.8209 29.8167 27.8209C29.8164 27.8209 29.8161 27.8209 29.8158 27.8209C29.8155 27.8209 29.8152 27.8209 29.8149 27.8209C29.8146 27.8209 29.8143 27.8209 29.814 27.8209C29.8137 27.8209 29.8134 27.8209 29.8131 27.8209C29.8128 27.8209 29.8125 27.8209 29.8122 27.8209C29.8119 27.8209 29.8116 27.8209 29.8113 27.8209C29.811 27.8209 29.8107 27.8209 29.8104 27.8209C29.8101 27.8209 29.8098 27.8209 29.8095 27.8209C29.8092 27.8209 29.8089 27.8209 29.8086 27.8209C29.8083 27.8209 29.808 27.8209 29.8077 27.8209C29.8074 27.8209 29.8071 27.8209 29.8068 27.8209C29.8065 27.8209 29.8062 27.8209 29.8059 27.8209C29.8056 27.8209 29.8053 27.8209 29.805 27.8209C29.8047 27.8209 29.8044 27.8209 29.8041 27.8209C29.8038 27.8209 29.8035 27.8209 29.8032 27.8209C29.8029 27.8209 29.8026 27.8209 29.8023 27.8209C29.802 27.8209 29.8017 27.8209 29.8014 27.8209C29.8011 27.8209 29.8008 27.8209 29.8005 27.8209C29.8002 27.8209 29.7999 27.8209 29.7996 27.8209C29.7993 27.8209 29.799 27.8209 29.7987 27.8209C29.7984 27.8209 29.7981 27.8209 29.7978 27.8209C29.7975 27.8209 29.7972 27.8209 29.7969 27.8209C29.7966 27.8209 29.7963 27.8209 29.796 27.8209C29.7957 27.8209 29.7954 27.8209 29.7951 27.8209C29.7948 27.8209 29.7944 27.8209 29.7941 27.8209C29.7938 27.8209 29.7935 27.8209 29.7932 27.8209C29.7929 27.8209 29.7926 27.8209 29.7923 27.8209C29.792 27.8209 29.7917 27.8209 29.7914 27.8209C29.7911 27.8209 29.7908 27.8209 29.7905 27.8209C29.7902 27.8209 29.7899 27.8209 29.7896 27.8209C29.7893 27.8209 29.789 27.8209 29.7887 27.8209C29.7884 27.8209 29.7881 27.8209 29.7878 27.8209C29.7875 27.8209 29.7872 27.8209 29.7869 27.8209C29.7866 27.8209 29.7863 27.8209 29.786 27.8209C29.7857 27.8209 29.7854 27.8209 29.7851 27.8209C29.7848 27.8209 29.7845 27.8209 29.7842 27.8209C29.7839 27.8209 29.7836 27.8209 29.7833 27.8209C29.783 27.8209 29.7827 27.8209 29.7824 27.8209C29.7821 27.8209 29.7818 27.8209 29.7815 27.8209C29.7812 27.8209 29.7809 27.8209 29.7806 27.8209C29.7803 27.8209 29.78 27.8209 29.7797 27.8209C29.7794 27.8209 29.7791 27.8209 29.7788 27.8209C29.7785 27.8209 29.7782 27.8209 29.7779 27.8209C29.7776 27.8209 29.7773 27.8209 29.777 27.8209C29.7767 27.8209 29.7764 27.8209 29.776 27.8209C29.7757 27.8209 29.7754 27.8209 29.7751 27.8209C29.7748 27.8209 29.7745 27.8209 29.7742 27.8209C29.7739 27.8209 29.7736 27.8209 29.7733 27.8209C29.773 27.8209 29.7727 27.8209 29.7724 27.8209C29.7721 27.8209 29.7718 27.8209 29.7715 27.8209C29.7712 27.8209 29.7709 27.8209 29.7706 27.8209C29.7703 27.8209 29.77 27.8209 29.7697 27.8209C29.7694 27.8209 29.7691 27.8209 29.7688 27.8209C29.7685 27.8209 29.7682 27.8209 29.7679 27.8209C29.7676 27.8209 29.7673 27.8209 29.767 27.8209C29.7667 27.8209 29.7664 27.8209 29.7661 27.8209C29.7658 27.8209 29.7655 27.8209 29.7652 27.8209C29.7649 27.8209 29.7646 27.8209 29.7643 27.8209C29.764 27.8209 29.7637 27.8209 29.7633 27.8209C29.763 27.8209 29.7627 27.8209 29.7624 27.8209C29.7621 27.8209 29.7618 27.8209 29.7615 27.8209C29.7612 27.8209 29.7609 27.8209 29.7606 27.8209C29.7603 27.8209 29.76 27.8209 29.7597 27.8209C29.7594 27.8209 29.7591 27.8209 29.7588 27.8209C29.7585 27.8209 29.7582 27.8209 29.7579 27.8209C29.7576 27.8209 29.7573 27.8209 29.757 27.8209C29.7567 27.8209 29.7564 27.8209 29.7561 27.8209C29.7558 27.8209 29.7555 27.8209 29.7552 27.8209C29.7549 27.8209 29.7546 27.8209 29.7543 27.8209C29.754 27.8209 29.7537 27.8209 29.7534 27.8209C29.7531 27.8209 29.7527 27.8209 29.7524 27.8209C29.7521 27.8209 29.7518 27.8209 29.7515 27.8209C29.7512 27.8209 29.7509 27.8209 29.7506 27.8209C29.7503 27.8209 29.75 27.8209 29.7497 27.8209C29.7494 27.8209 29.7491 27.8209 29.7488 27.8209C29.7485 27.8209 29.7482 27.8209 29.7479 27.8209C29.7476 27.8209 29.7473 27.8209 29.747 27.8209C29.7467 27.8209 29.7464 27.8209 29.7461 27.8209C29.7458 27.8209 29.7455 27.8209 29.7452 27.8209C29.7449 27.8209 29.7446 27.8209 29.7443 27.8209C29.744 27.8209 29.7437 27.8209 29.7433 27.8209C29.743 27.8209 29.7427 27.8209 29.7424 27.8209C29.7421 27.8209 29.7418 27.8209 29.7415 27.8209C29.7412 27.8209 29.7409 27.8209 29.7406 27.8209C29.7403 27.8209 29.74 27.8209 29.7397 27.8209C29.7394 27.8209 29.7391 27.8209 29.7388 27.8209C29.7385 27.8209 29.7382 27.8209 29.7379 27.8209C29.7376 27.8209 29.7373 27.8209 29.737 27.8209C29.7367 27.8209 29.7364 27.8209 29.7361 27.8209C29.7358 27.8209 29.7355 27.8209 29.7351 27.8209C29.7348 27.8209 29.7345 27.8209 29.7342 27.8209C29.7339 27.8209 29.7336 27.8209 29.7333 27.8209C29.733 27.8209 29.7327 27.8209 29.7324 27.8209C29.7321 27.8209 29.7318 27.8209 29.7315 27.8209C29.7312 27.8209 29.7309 27.8209 29.7306 27.8209C29.7303 27.8209 29.73 27.8209 29.7297 27.8209C29.7294 27.8209 29.7291 27.8209 29.7288 27.8209C29.7285 27.8209 29.7282 27.8209 29.7279 27.8209C29.7275 27.8209 29.7272 27.8209 29.7269 27.8209C29.7266 27.8209 29.7263 27.8209 29.726 27.8209C29.7257 27.8209 29.7254 27.8209 29.7251 27.8209C29.7248 27.8209 29.7245 27.8209 29.7242 27.8209C29.7239 27.8209 29.7236 27.8209 29.7233 27.8209C29.723 27.8209 29.7227 27.8209 29.7224 27.8209C29.7221 27.8209 29.7218 27.8209 29.7215 27.8209C29.7212 27.8209 29.7209 27.8209 29.7205 27.8209C29.7202 27.8209 29.7199 27.8209 29.7196 27.8209C29.7193 27.8209 29.719 27.8209 29.7187 27.8209C29.7184 27.8209 29.7181 27.8209 29.7178 27.8209C29.7175 27.8209 29.7172 27.8209 29.7169 27.8209C29.7166 27.8209 29.7163 27.8209 29.716 27.8209C29.7157 27.8209 29.7154 27.8209 29.7151 27.8209C29.7148 27.8209 29.7145 27.8209 29.7141 27.8209C29.7138 27.8209 29.7135 27.8209 29.7132 27.8209C29.7129 27.8209 29.7126 27.8209 29.7123 27.8209C29.712 27.8209 29.7117 27.8209 29.7114 27.8209C29.7111 27.8209 29.7108 27.8209 29.7105 27.8209C29.7102 27.8209 29.7099 27.8209 29.7096 27.8209C29.7093 27.8209 29.709 27.8209 29.7087 27.8209V30.8209C29.709 30.8209 29.7093 30.8209 29.7096 30.8209C29.7099 30.8209 29.7102 30.8209 29.7105 30.8209C29.7108 30.8209 29.7111 30.8209 29.7114 30.8209C29.7117 30.8209 29.712 30.8209 29.7123 30.8209C29.7126 30.8209 29.7129 30.8209 29.7132 30.8209C29.7135 30.8209 29.7138 30.8209 29.7141 30.8209C29.7145 30.8209 29.7148 30.8209 29.7151 30.8209C29.7154 30.8209 29.7157 30.8209 29.716 30.8209C29.7163 30.8209 29.7166 30.8209 29.7169 30.8209C29.7172 30.8209 29.7175 30.8209 29.7178 30.8209C29.7181 30.8209 29.7184 30.8209 29.7187 30.8209C29.719 30.8209 29.7193 30.8209 29.7196 30.8209C29.7199 30.8209 29.7202 30.8209 29.7205 30.8209C29.7209 30.8209 29.7212 30.8209 29.7215 30.8209C29.7218 30.8209 29.7221 30.8209 29.7224 30.8209C29.7227 30.8209 29.723 30.8209 29.7233 30.8209C29.7236 30.8209 29.7239 30.8209 29.7242 30.8209C29.7245 30.8209 29.7248 30.8209 29.7251 30.8209C29.7254 30.8209 29.7257 30.8209 29.726 30.8209C29.7263 30.8209 29.7266 30.8209 29.7269 30.8209C29.7272 30.8209 29.7275 30.8209 29.7279 30.8209C29.7282 30.8209 29.7285 30.8209 29.7288 30.8209C29.7291 30.8209 29.7294 30.8209 29.7297 30.8209C29.73 30.8209 29.7303 30.8209 29.7306 30.8209C29.7309 30.8209 29.7312 30.8209 29.7315 30.8209C29.7318 30.8209 29.7321 30.8209 29.7324 30.8209C29.7327 30.8209 29.733 30.8209 29.7333 30.8209C29.7336 30.8209 29.7339 30.8209 29.7342 30.8209C29.7345 30.8209 29.7348 30.8209 29.7351 30.8209C29.7355 30.8209 29.7358 30.8209 29.7361 30.8209C29.7364 30.8209 29.7367 30.8209 29.737 30.8209C29.7373 30.8209 29.7376 30.8209 29.7379 30.8209C29.7382 30.8209 29.7385 30.8209 29.7388 30.8209C29.7391 30.8209 29.7394 30.8209 29.7397 30.8209C29.74 30.8209 29.7403 30.8209 29.7406 30.8209C29.7409 30.8209 29.7412 30.8209 29.7415 30.8209C29.7418 30.8209 29.7421 30.8209 29.7424 30.8209C29.7427 30.8209 29.743 30.8209 29.7433 30.8209C29.7437 30.8209 29.744 30.8209 29.7443 30.8209C29.7446 30.8209 29.7449 30.8209 29.7452 30.8209C29.7455 30.8209 29.7458 30.8209 29.7461 30.8209C29.7464 30.8209 29.7467 30.8209 29.747 30.8209C29.7473 30.8209 29.7476 30.8209 29.7479 30.8209C29.7482 30.8209 29.7485 30.8209 29.7488 30.8209C29.7491 30.8209 29.7494 30.8209 29.7497 30.8209C29.75 30.8209 29.7503 30.8209 29.7506 30.8209C29.7509 30.8209 29.7512 30.8209 29.7515 30.8209C29.7518 30.8209 29.7521 30.8209 29.7524 30.8209C29.7527 30.8209 29.7531 30.8209 29.7534 30.8209C29.7537 30.8209 29.754 30.8209 29.7543 30.8209C29.7546 30.8209 29.7549 30.8209 29.7552 30.8209C29.7555 30.8209 29.7558 30.8209 29.7561 30.8209C29.7564 30.8209 29.7567 30.8209 29.757 30.8209C29.7573 30.8209 29.7576 30.8209 29.7579 30.8209C29.7582 30.8209 29.7585 30.8209 29.7588 30.8209C29.7591 30.8209 29.7594 30.8209 29.7597 30.8209C29.76 30.8209 29.7603 30.8209 29.7606 30.8209C29.7609 30.8209 29.7612 30.8209 29.7615 30.8209C29.7618 30.8209 29.7621 30.8209 29.7624 30.8209C29.7627 30.8209 29.763 30.8209 29.7633 30.8209C29.7637 30.8209 29.764 30.8209 29.7643 30.8209C29.7646 30.8209 29.7649 30.8209 29.7652 30.8209C29.7655 30.8209 29.7658 30.8209 29.7661 30.8209C29.7664 30.8209 29.7667 30.8209 29.767 30.8209C29.7673 30.8209 29.7676 30.8209 29.7679 30.8209C29.7682 30.8209 29.7685 30.8209 29.7688 30.8209C29.7691 30.8209 29.7694 30.8209 29.7697 30.8209C29.77 30.8209 29.7703 30.8209 29.7706 30.8209C29.7709 30.8209 29.7712 30.8209 29.7715 30.8209C29.7718 30.8209 29.7721 30.8209 29.7724 30.8209C29.7727 30.8209 29.773 30.8209 29.7733 30.8209C29.7736 30.8209 29.7739 30.8209 29.7742 30.8209C29.7745 30.8209 29.7748 30.8209 29.7751 30.8209C29.7754 30.8209 29.7757 30.8209 29.776 30.8209C29.7764 30.8209 29.7767 30.8209 29.777 30.8209C29.7773 30.8209 29.7776 30.8209 29.7779 30.8209C29.7782 30.8209 29.7785 30.8209 29.7788 30.8209C29.7791 30.8209 29.7794 30.8209 29.7797 30.8209C29.78 30.8209 29.7803 30.8209 29.7806 30.8209C29.7809 30.8209 29.7812 30.8209 29.7815 30.8209C29.7818 30.8209 29.7821 30.8209 29.7824 30.8209C29.7827 30.8209 29.783 30.8209 29.7833 30.8209C29.7836 30.8209 29.7839 30.8209 29.7842 30.8209C29.7845 30.8209 29.7848 30.8209 29.7851 30.8209C29.7854 30.8209 29.7857 30.8209 29.786 30.8209C29.7863 30.8209 29.7866 30.8209 29.7869 30.8209C29.7872 30.8209 29.7875 30.8209 29.7878 30.8209C29.7881 30.8209 29.7884 30.8209 29.7887 30.8209C29.789 30.8209 29.7893 30.8209 29.7896 30.8209C29.7899 30.8209 29.7902 30.8209 29.7905 30.8209C29.7908 30.8209 29.7911 30.8209 29.7914 30.8209C29.7917 30.8209 29.792 30.8209 29.7923 30.8209C29.7926 30.8209 29.7929 30.8209 29.7932 30.8209C29.7935 30.8209 29.7938 30.8209 29.7941 30.8209C29.7944 30.8209 29.7948 30.8209 29.7951 30.8209C29.7954 30.8209 29.7957 30.8209 29.796 30.8209C29.7963 30.8209 29.7966 30.8209 29.7969 30.8209C29.7972 30.8209 29.7975 30.8209 29.7978 30.8209C29.7981 30.8209 29.7984 30.8209 29.7987 30.8209C29.799 30.8209 29.7993 30.8209 29.7996 30.8209C29.7999 30.8209 29.8002 30.8209 29.8005 30.8209C29.8008 30.8209 29.8011 30.8209 29.8014 30.8209C29.8017 30.8209 29.802 30.8209 29.8023 30.8209C29.8026 30.8209 29.8029 30.8209 29.8032 30.8209C29.8035 30.8209 29.8038 30.8209 29.8041 30.8209C29.8044 30.8209 29.8047 30.8209 29.805 30.8209C29.8053 30.8209 29.8056 30.8209 29.8059 30.8209C29.8062 30.8209 29.8065 30.8209 29.8068 30.8209C29.8071 30.8209 29.8074 30.8209 29.8077 30.8209C29.808 30.8209 29.8083 30.8209 29.8086 30.8209C29.8089 30.8209 29.8092 30.8209 29.8095 30.8209C29.8098 30.8209 29.8101 30.8209 29.8104 30.8209C29.8107 30.8209 29.811 30.8209 29.8113 30.8209C29.8116 30.8209 29.8119 30.8209 29.8122 30.8209C29.8125 30.8209 29.8128 30.8209 29.8131 30.8209C29.8134 30.8209 29.8137 30.8209 29.814 30.8209C29.8143 30.8209 29.8146 30.8209 29.8149 30.8209C29.8152 30.8209 29.8155 30.8209 29.8158 30.8209C29.8161 30.8209 29.8164 30.8209 29.8167 30.8209C29.817 30.8209 29.8173 30.8209 29.8176 30.8209C29.8179 30.8209 29.8182 30.8209 29.8185 30.8209C29.8188 30.8209 29.8191 30.8209 29.8194 30.8209C29.8197 30.8209 29.82 30.8209 29.8203 30.8209C29.8206 30.8209 29.8209 30.8209 29.8212 30.8209C29.8215 30.8209 29.8218 30.8209 29.8221 30.8209C29.8224 30.8209 29.8227 30.8209 29.823 30.8209C29.8233 30.8209 29.8236 30.8209 29.8239 30.8209C29.8242 30.8209 29.8245 30.8209 29.8248 30.8209C29.8251 30.8209 29.8254 30.8209 29.8257 30.8209C29.826 30.8209 29.8263 30.8209 29.8266 30.8209C29.8269 30.8209 29.8272 30.8209 29.8275 30.8209C29.8278 30.8209 29.8281 30.8209 29.8284 30.8209C29.8287 30.8209 29.829 30.8209 29.8293 30.8209C29.8296 30.8209 29.8299 30.8209 29.8302 30.8209C29.8305 30.8209 29.8308 30.8209 29.8311 30.8209C29.8314 30.8209 29.8317 30.8209 29.832 30.8209C29.8323 30.8209 29.8326 30.8209 29.8329 30.8209C29.8332 30.8209 29.8335 30.8209 29.8338 30.8209C29.8341 30.8209 29.8344 30.8209 29.8347 30.8209C29.835 30.8209 29.8353 30.8209 29.8356 30.8209C29.8359 30.8209 29.8362 30.8209 29.8365 30.8209C29.8368 30.8209 29.8371 30.8209 29.8374 30.8209C29.8377 30.8209 29.838 30.8209 29.8383 30.8209C29.8386 30.8209 29.8389 30.8209 29.8392 30.8209C29.8395 30.8209 29.8398 30.8209 29.8401 30.8209C29.8404 30.8209 29.8407 30.8209 29.841 30.8209C29.8413 30.8209 29.8416 30.8209 29.8419 30.8209C29.8422 30.8209 29.8425 30.8209 29.8428 30.8209C29.8431 30.8209 29.8434 30.8209 29.8437 30.8209C29.844 30.8209 29.8443 30.8209 29.8446 30.8209C29.8449 30.8209 29.8452 30.8209 29.8455 30.8209C29.8458 30.8209 29.8461 30.8209 29.8464 30.8209C29.8467 30.8209 29.847 30.8209 29.8473 30.8209C29.8476 30.8209 29.8479 30.8209 29.8482 30.8209C29.8485 30.8209 29.8488 30.8209 29.8491 30.8209C29.8494 30.8209 29.8497 30.8209 29.85 30.8209C29.8503 30.8209 29.8506 30.8209 29.8509 30.8209C29.8512 30.8209 29.8515 30.8209 29.8518 30.8209C29.852 30.8209 29.8523 30.8209 29.8526 30.8209C29.8529 30.8209 29.8532 30.8209 29.8535 30.8209C29.8538 30.8209 29.8541 30.8209 29.8544 30.8209C29.8547 30.8209 29.855 30.8209 29.8553 30.8209C29.8556 30.8209 29.8559 30.8209 29.8562 30.8209C29.8565 30.8209 29.8568 30.8209 29.8571 30.8209C29.8574 30.8209 29.8577 30.8209 29.858 30.8209C29.8583 30.8209 29.8586 30.8209 29.8589 30.8209C29.8592 30.8209 29.8595 30.8209 29.8598 30.8209C29.8601 30.8209 29.8604 30.8209 29.8607 30.8209C29.861 30.8209 29.8613 30.8209 29.8616 30.8209C29.8619 30.8209 29.8622 30.8209 29.8625 30.8209C29.8628 30.8209 29.8631 30.8209 29.8634 30.8209C29.8637 30.8209 29.864 30.8209 29.8643 30.8209C29.8646 30.8209 29.8649 30.8209 29.8652 30.8209C29.8655 30.8209 29.8658 30.8209 29.8661 30.8209C29.8664 30.8209 29.8667 30.8209 29.867 30.8209C29.8673 30.8209 29.8676 30.8209 29.8679 30.8209C29.8682 30.8209 29.8685 30.8209 29.8688 30.8209C29.8691 30.8209 29.8694 30.8209 29.8697 30.8209C29.8699 30.8209 29.8702 30.8209 29.8705 30.8209C29.8708 30.8209 29.8711 30.8209 29.8714 30.8209C29.8717 30.8209 29.872 30.8209 29.8723 30.8209C29.8726 30.8209 29.8729 30.8209 29.8732 30.8209C29.8735 30.8209 29.8738 30.8209 29.8741 30.8209C29.8744 30.8209 29.8747 30.8209 29.875 30.8209C29.8753 30.8209 29.8756 30.8209 29.8759 30.8209C29.8762 30.8209 29.8765 30.8209 29.8768 30.8209C29.8771 30.8209 29.8774 30.8209 29.8777 30.8209C29.878 30.8209 29.8783 30.8209 29.8786 30.8209C29.8789 30.8209 29.8792 30.8209 29.8795 30.8209C29.8798 30.8209 29.8801 30.8209 29.8804 30.8209C29.8807 30.8209 29.881 30.8209 29.8813 30.8209C29.8816 30.8209 29.8819 30.8209 29.8822 30.8209C29.8825 30.8209 29.8827 30.8209 29.883 30.8209C29.8833 30.8209 29.8836 30.8209 29.8839 30.8209C29.8842 30.8209 29.8845 30.8209 29.8848 30.8209C29.8851 30.8209 29.8854 30.8209 29.8857 30.8209C29.886 30.8209 29.8863 30.8209 29.8866 30.8209C29.8869 30.8209 29.8872 30.8209 29.8875 30.8209C29.8878 30.8209 29.8881 30.8209 29.8884 30.8209C29.8887 30.8209 29.889 30.8209 29.8893 30.8209C29.8896 30.8209 29.8899 30.8209 29.8902 30.8209C29.8905 30.8209 29.8908 30.8209 29.8911 30.8209C29.8914 30.8209 29.8917 30.8209 29.892 30.8209C29.8923 30.8209 29.8926 30.8209 29.8929 30.8209C29.8931 30.8209 29.8934 30.8209 29.8937 30.8209C29.894 30.8209 29.8943 30.8209 29.8946 30.8209C29.8949 30.8209 29.8952 30.8209 29.8955 30.8209C29.8958 30.8209 29.8961 30.8209 29.8964 30.8209C29.8967 30.8209 29.897 30.8209 29.8973 30.8209C29.8976 30.8209 29.8979 30.8209 29.8982 30.8209C29.8985 30.8209 29.8988 30.8209 29.8991 30.8209C29.8994 30.8209 29.8997 30.8209 29.9 30.8209C29.9003 30.8209 29.9006 30.8209 29.9009 30.8209C29.9012 30.8209 29.9015 30.8209 29.9018 30.8209C29.902 30.8209 29.9023 30.8209 29.9026 30.8209C29.9029 30.8209 29.9032 30.8209 29.9035 30.8209C29.9038 30.8209 29.9041 30.8209 29.9044 30.8209C29.9047 30.8209 29.905 30.8209 29.9053 30.8209C29.9056 30.8209 29.9059 30.8209 29.9062 30.8209C29.9065 30.8209 29.9068 30.8209 29.9071 30.8209C29.9074 30.8209 29.9077 30.8209 29.908 30.8209C29.9083 30.8209 29.9086 30.8209 29.9089 30.8209C29.9092 30.8209 29.9095 30.8209 29.9098 30.8209C29.91 30.8209 29.9103 30.8209 29.9106 30.8209C29.9109 30.8209 29.9112 30.8209 29.9115 30.8209C29.9118 30.8209 29.9121 30.8209 29.9124 30.8209C29.9127 30.8209 29.913 30.8209 29.9133 30.8209C29.9136 30.8209 29.9139 30.8209 29.9142 30.8209C29.9145 30.8209 29.9148 30.8209 29.9151 30.8209C29.9154 30.8209 29.9157 30.8209 29.916 30.8209C29.9163 30.8209 29.9166 30.8209 29.9169 30.8209C29.9172 30.8209 29.9174 30.8209 29.9177 30.8209C29.918 30.8209 29.9183 30.8209 29.9186 30.8209C29.9189 30.8209 29.9192 30.8209 29.9195 30.8209C29.9198 30.8209 29.9201 30.8209 29.9204 30.8209C29.9207 30.8209 29.921 30.8209 29.9213 30.8209C29.9216 30.8209 29.9219 30.8209 29.9222 30.8209C29.9225 30.8209 29.9228 30.8209 29.9231 30.8209C29.9234 30.8209 29.9237 30.8209 29.924 30.8209C29.9242 30.8209 29.9245 30.8209 29.9248 30.8209C29.9251 30.8209 29.9254 30.8209 29.9257 30.8209C29.926 30.8209 29.9263 30.8209 29.9266 30.8209C29.9269 30.8209 29.9272 30.8209 29.9275 30.8209C29.9278 30.8209 29.9281 30.8209 29.9284 30.8209C29.9287 30.8209 29.929 30.8209 29.9293 30.8209C29.9296 30.8209 29.9299 30.8209 29.9302 30.8209C29.9305 30.8209 29.9307 30.8209 29.931 30.8209C29.9313 30.8209 29.9316 30.8209 29.9319 30.8209C29.9322 30.8209 29.9325 30.8209 29.9328 30.8209C29.9331 30.8209 29.9334 30.8209 29.9337 30.8209C29.934 30.8209 29.9343 30.8209 29.9346 30.8209C29.9349 30.8209 29.9352 30.8209 29.9355 30.8209C29.9358 30.8209 29.9361 30.8209 29.9364 30.8209C29.9366 30.8209 29.9369 30.8209 29.9372 30.8209C29.9375 30.8209 29.9378 30.8209 29.9381 30.8209C29.9384 30.8209 29.9387 30.8209 29.939 30.8209C29.9393 30.8209 29.9396 30.8209 29.9399 30.8209C29.9402 30.8209 29.9405 30.8209 29.9408 30.8209C29.9411 30.8209 29.9414 30.8209 29.9417 30.8209C29.942 30.8209 29.9422 30.8209 29.9425 30.8209C29.9428 30.8209 29.9431 30.8209 29.9434 30.8209C29.9437 30.8209 29.944 30.8209 29.9443 30.8209C29.9446 30.8209 29.9449 30.8209 29.9452 30.8209C29.9455 30.8209 29.9458 30.8209 29.9461 30.8209C29.9464 30.8209 29.9467 30.8209 29.947 30.8209C29.9473 30.8209 29.9476 30.8209 29.9478 30.8209C29.9481 30.8209 29.9484 30.8209 29.9487 30.8209C29.949 30.8209 29.9493 30.8209 29.9496 30.8209C29.9499 30.8209 29.9502 30.8209 29.9505 30.8209C29.9508 30.8209 29.9511 30.8209 29.9514 30.8209C29.9517 30.8209 29.952 30.8209 29.9523 30.8209C29.9526 30.8209 29.9529 30.8209 29.9531 30.8209C29.9534 30.8209 29.9537 30.8209 29.954 30.8209C29.9543 30.8209 29.9546 30.8209 29.9549 30.8209C29.9552 30.8209 29.9555 30.8209 29.9558 30.8209C29.9561 30.8209 29.9564 30.8209 29.9567 30.8209C29.957 30.8209 29.9573 30.8209 29.9576 30.8209C29.9579 30.8209 29.9581 30.8209 29.9584 30.8209C29.9587 30.8209 29.959 30.8209 29.9593 30.8209C29.9596 30.8209 29.9599 30.8209 29.9602 30.8209C29.9605 30.8209 29.9608 30.8209 29.9611 30.8209C29.9614 30.8209 29.9617 30.8209 29.962 30.8209C29.9623 30.8209 29.9626 30.8209 29.9628 30.8209C29.9631 30.8209 29.9634 30.8209 29.9637 30.8209C29.964 30.8209 29.9643 30.8209 29.9646 30.8209C29.9649 30.8209 29.9652 30.8209 29.9655 30.8209C29.9658 30.8209 29.9661 30.8209 29.9664 30.8209C29.9667 30.8209 29.967 30.8209 29.9673 30.8209C29.9675 30.8209 29.9678 30.8209 29.9681 30.8209C29.9684 30.8209 29.9687 30.8209 29.969 30.8209C29.9693 30.8209 29.9696 30.8209 29.9699 30.8209C29.9702 30.8209 29.9705 30.8209 29.9708 30.8209C29.9711 30.8209 29.9714 30.8209 29.9717 30.8209C29.9719 30.8209 29.9722 30.8209 29.9725 30.8209C29.9728 30.8209 29.9731 30.8209 29.9734 30.8209C29.9737 30.8209 29.974 30.8209 29.9743 30.8209C29.9746 30.8209 29.9749 30.8209 29.9752 30.8209C29.9755 30.8209 29.9758 30.8209 29.9761 30.8209C29.9763 30.8209 29.9766 30.8209 29.9769 30.8209C29.9772 30.8209 29.9775 30.8209 29.9778 30.8209C29.9781 30.8209 29.9784 30.8209 29.9787 30.8209C29.979 30.8209 29.9793 30.8209 29.9796 30.8209C29.9799 30.8209 29.9802 30.8209 29.9804 30.8209C29.9807 30.8209 29.981 30.8209 29.9813 30.8209C29.9816 30.8209 29.9819 30.8209 29.9822 30.8209C29.9825 30.8209 29.9828 30.8209 29.9831 30.8209C29.9834 30.8209 29.9837 30.8209 29.984 30.8209C29.9843 30.8209 29.9845 30.8209 29.9848 30.8209C29.9851 30.8209 29.9854 30.8209 29.9857 30.8209C29.986 30.8209 29.9863 30.8209 29.9866 30.8209C29.9869 30.8209 29.9872 30.8209 29.9875 30.8209C29.9878 30.8209 29.9881 30.8209 29.9884 30.8209C29.9886 30.8209 29.9889 30.8209 29.9892 30.8209C29.9895 30.8209 29.9898 30.8209 29.9901 30.8209C29.9904 30.8209 29.9907 30.8209 29.991 30.8209C29.9913 30.8209 29.9916 30.8209 29.9919 30.8209C29.9922 30.8209 29.9924 30.8209 29.9927 30.8209C29.993 30.8209 29.9933 30.8209 29.9936 30.8209C29.9939 30.8209 29.9942 30.8209 29.9945 30.8209C29.9948 30.8209 29.9951 30.8209 29.9954 30.8209C29.9957 30.8209 29.996 30.8209 29.9963 30.8209C29.9965 30.8209 29.9968 30.8209 29.9971 30.8209C29.9974 30.8209 29.9977 30.8209 29.998 30.8209C29.9983 30.8209 29.9986 30.8209 29.9989 30.8209C29.9992 30.8209 29.9995 30.8209 29.9998 30.8209C30 30.8209 30.0003 30.8209 30.0006 30.8209C30.0009 30.8209 30.0012 30.8209 30.0015 30.8209C30.0018 30.8209 30.0021 30.8209 30.0024 30.8209C30.0027 30.8209 30.003 30.8209 30.0033 30.8209C30.0036 30.8209 30.0038 30.8209 30.0041 30.8209C30.0044 30.8209 30.0047 30.8209 30.005 30.8209C30.0053 30.8209 30.0056 30.8209 30.0059 30.8209C30.0062 30.8209 30.0065 30.8209 30.0068 30.8209C30.0071 30.8209 30.0073 30.8209 30.0076 30.8209C30.0079 30.8209 30.0082 30.8209 30.0085 30.8209C30.0088 30.8209 30.0091 30.8209 30.0094 30.8209C30.0097 30.8209 30.01 30.8209 30.0103 30.8209C30.0106 30.8209 30.0108 30.8209 30.0111 30.8209C30.0114 30.8209 30.0117 30.8209 30.012 30.8209C30.0123 30.8209 30.0126 30.8209 30.0129 30.8209C30.0132 30.8209 30.0135 30.8209 30.0138 30.8209C30.0141 30.8209 30.0143 30.8209 30.0146 30.8209C30.0149 30.8209 30.0152 30.8209 30.0155 30.8209C30.0158 30.8209 30.0161 30.8209 30.0164 30.8209C30.0167 30.8209 30.017 30.8209 30.0173 30.8209C30.0176 30.8209 30.0178 30.8209 30.0181 30.8209C30.0184 30.8209 30.0187 30.8209 30.019 30.8209C30.0193 30.8209 30.0196 30.8209 30.0199 30.8209C30.0202 30.8209 30.0205 30.8209 30.0208 30.8209C30.021 30.8209 30.0213 30.8209 30.0216 30.8209C30.0219 30.8209 30.0222 30.8209 30.0225 30.8209C30.0228 30.8209 30.0231 30.8209 30.0234 30.8209C30.0237 30.8209 30.024 30.8209 30.0242 30.8209C30.0245 30.8209 30.0248 30.8209 30.0251 30.8209C30.0254 30.8209 30.0257 30.8209 30.026 30.8209C30.0263 30.8209 30.0266 30.8209 30.0269 30.8209C30.0272 30.8209 30.0274 30.8209 30.0277 30.8209C30.028 30.8209 30.0283 30.8209 30.0286 30.8209C30.0289 30.8209 30.0292 30.8209 30.0295 30.8209C30.0298 30.8209 30.0301 30.8209 30.0304 30.8209C30.0306 30.8209 30.0309 30.8209 30.0312 30.8209C30.0315 30.8209 30.0318 30.8209 30.0321 30.8209C30.0324 30.8209 30.0327 30.8209 30.033 30.8209C30.0333 30.8209 30.0336 30.8209 30.0338 30.8209C30.0341 30.8209 30.0344 30.8209 30.0347 30.8209C30.035 30.8209 30.0353 30.8209 30.0356 30.8209C30.0359 30.8209 30.0362 30.8209 30.0365 30.8209C30.0367 30.8209 30.037 30.8209 30.0373 30.8209C30.0376 30.8209 30.0379 30.8209 30.0382 30.8209C30.0385 30.8209 30.0388 30.8209 30.0391 30.8209C30.0394 30.8209 30.0397 30.8209 30.0399 30.8209C30.0402 30.8209 30.0405 30.8209 30.0408 30.8209C30.0411 30.8209 30.0414 30.8209 30.0417 30.8209C30.042 30.8209 30.0423 30.8209 30.0426 30.8209C30.0428 30.8209 30.0431 30.8209 30.0434 30.8209C30.0437 30.8209 30.044 30.8209 30.0443 30.8209C30.0446 30.8209 30.0449 30.8209 30.0452 30.8209C30.0455 30.8209 30.0457 30.8209 30.046 30.8209C30.0463 30.8209 30.0466 30.8209 30.0469 30.8209C30.0472 30.8209 30.0475 30.8209 30.0478 30.8209C30.0481 30.8209 30.0484 30.8209 30.0486 30.8209C30.0489 30.8209 30.0492 30.8209 30.0495 30.8209C30.0498 30.8209 30.0501 30.8209 30.0504 30.8209C30.0507 30.8209 30.051 30.8209 30.0513 30.8209C30.0515 30.8209 30.0518 30.8209 30.0521 30.8209C30.0524 30.8209 30.0527 30.8209 30.053 30.8209C30.0533 30.8209 30.0536 30.8209 30.0539 30.8209C30.0541 30.8209 30.0544 30.8209 30.0547 30.8209C30.055 30.8209 30.0553 30.8209 30.0556 30.8209C30.0559 30.8209 30.0562 30.8209 30.0565 30.8209C30.0568 30.8209 30.057 30.8209 30.0573 30.8209C30.0576 30.8209 30.0579 30.8209 30.0582 30.8209C30.0585 30.8209 30.0588 30.8209 30.0591 30.8209C30.0594 30.8209 30.0596 30.8209 30.0599 30.8209C30.0602 30.8209 30.0605 30.8209 30.0608 30.8209C30.0611 30.8209 30.0614 30.8209 30.0617 30.8209C30.062 30.8209 30.0623 30.8209 30.0625 30.8209C30.0628 30.8209 30.0631 30.8209 30.0634 30.8209C30.0637 30.8209 30.064 30.8209 30.0643 30.8209C30.0646 30.8209 30.0649 30.8209 30.0651 30.8209C30.0654 30.8209 30.0657 30.8209 30.066 30.8209C30.0663 30.8209 30.0666 30.8209 30.0669 30.8209C30.0672 30.8209 30.0675 30.8209 30.0677 30.8209C30.068 30.8209 30.0683 30.8209 30.0686 30.8209C30.0689 30.8209 30.0692 30.8209 30.0695 30.8209C30.0698 30.8209 30.0701 30.8209 30.0703 30.8209C30.0706 30.8209 30.0709 30.8209 30.0712 30.8209C30.0715 30.8209 30.0718 30.8209 30.0721 30.8209C30.0724 30.8209 30.0727 30.8209 30.0729 30.8209C30.0732 30.8209 30.0735 30.8209 30.0738 30.8209C30.0741 30.8209 30.0744 30.8209 30.0747 30.8209C30.075 30.8209 30.0753 30.8209 30.0755 30.8209C30.0758 30.8209 30.0761 30.8209 30.0764 30.8209C30.0767 30.8209 30.077 30.8209 30.0773 30.8209C30.0776 30.8209 30.0779 30.8209 30.0781 30.8209C30.0784 30.8209 30.0787 30.8209 30.079 30.8209C30.0793 30.8209 30.0796 30.8209 30.0799 30.8209C30.0802 30.8209 30.0805 30.8209 30.0807 30.8209C30.081 30.8209 30.0813 30.8209 30.0816 30.8209C30.0819 30.8209 30.0822 30.8209 30.0825 30.8209C30.0828 30.8209 30.083 30.8209 30.0833 30.8209C30.0836 30.8209 30.0839 30.8209 30.0842 30.8209C30.0845 30.8209 30.0848 30.8209 30.0851 30.8209C30.0854 30.8209 30.0856 30.8209 30.0859 30.8209C30.0862 30.8209 30.0865 30.8209 30.0868 30.8209C30.0871 30.8209 30.0874 30.8209 30.0877 30.8209C30.0879 30.8209 30.0882 30.8209 30.0885 30.8209C30.0888 30.8209 30.0891 30.8209 30.0894 30.8209C30.0897 30.8209 30.09 30.8209 30.0902 30.8209C30.0905 30.8209 30.0908 30.8209 30.0911 30.8209C30.0914 30.8209 30.0917 30.8209 30.092 30.8209C30.0923 30.8209 30.0926 30.8209 30.0928 30.8209C30.0931 30.8209 30.0934 30.8209 30.0937 30.8209C30.094 30.8209 30.0943 30.8209 30.0946 30.8209C30.0949 30.8209 30.0951 30.8209 30.0954 30.8209C30.0957 30.8209 30.096 30.8209 30.0963 30.8209C30.0966 30.8209 30.0969 30.8209 30.0972 30.8209C30.0974 30.8209 30.0977 30.8209 30.098 30.8209C30.0983 30.8209 30.0986 30.8209 30.0989 30.8209C30.0992 30.8209 30.0995 30.8209 30.0997 30.8209C30.1 30.8209 30.1003 30.8209 30.1006 30.8209C30.1009 30.8209 30.1012 30.8209 30.1015 30.8209C30.1018 30.8209 30.102 30.8209 30.1023 30.8209C30.1026 30.8209 30.1029 30.8209 30.1032 30.8209C30.1035 30.8209 30.1038 30.8209 30.1041 30.8209C30.1043 30.8209 30.1046 30.8209 30.1049 30.8209C30.1052 30.8209 30.1055 30.8209 30.1058 30.8209C30.1061 30.8209 30.1064 30.8209 30.1066 30.8209C30.1069 30.8209 30.1072 30.8209 30.1075 30.8209C30.1078 30.8209 30.1081 30.8209 30.1084 30.8209C30.1087 30.8209 30.1089 30.8209 30.1092 30.8209C30.1095 30.8209 30.1098 30.8209 30.1101 30.8209C30.1104 30.8209 30.1107 30.8209 30.1109 30.8209C30.1112 30.8209 30.1115 30.8209 30.1118 30.8209C30.1121 30.8209 30.1124 30.8209 30.1127 30.8209C30.113 30.8209 30.1132 30.8209 30.1135 30.8209C30.1138 30.8209 30.1141 30.8209 30.1144 30.8209C30.1147 30.8209 30.115 30.8209 30.1153 30.8209C30.1155 30.8209 30.1158 30.8209 30.1161 30.8209C30.1164 30.8209 30.1167 30.8209 30.117 30.8209C30.1173 30.8209 30.1175 30.8209 30.1178 30.8209C30.1181 30.8209 30.1184 30.8209 30.1187 30.8209C30.119 30.8209 30.1193 30.8209 30.1196 30.8209C30.1198 30.8209 30.1201 30.8209 30.1204 30.8209C30.1207 30.8209 30.121 30.8209 30.1213 30.8209C30.1216 30.8209 30.1218 30.8209 30.1221 30.8209C30.1224 30.8209 30.1227 30.8209 30.123 30.8209C30.1233 30.8209 30.1236 30.8209 30.1239 30.8209C30.1241 30.8209 30.1244 30.8209 30.1247 30.8209C30.125 30.8209 30.1253 30.8209 30.1256 30.8209C30.1259 30.8209 30.1261 30.8209 30.1264 30.8209C30.1267 30.8209 30.127 30.8209 30.1273 30.8209C30.1276 30.8209 30.1279 30.8209 30.1281 30.8209C30.1284 30.8209 30.1287 30.8209 30.129 30.8209C30.1293 30.8209 30.1296 30.8209 30.1299 30.8209C30.1302 30.8209 30.1304 30.8209 30.1307 30.8209C30.131 30.8209 30.1313 30.8209 30.1316 30.8209C30.1319 30.8209 30.1322 30.8209 30.1324 30.8209C30.1327 30.8209 30.133 30.8209 30.1333 30.8209C30.1336 30.8209 30.1339 30.8209 30.1342 30.8209C30.1344 30.8209 30.1347 30.8209 30.135 30.8209C30.1353 30.8209 30.1356 30.8209 30.1359 30.8209C30.1362 30.8209 30.1364 30.8209 30.1367 30.8209C30.137 30.8209 30.1373 30.8209 30.1376 30.8209C30.1379 30.8209 30.1382 30.8209 30.1384 30.8209C30.1387 30.8209 30.139 30.8209 30.1393 30.8209C30.1396 30.8209 30.1399 30.8209 30.1402 30.8209C30.1404 30.8209 30.1407 30.8209 30.141 30.8209C30.1413 30.8209 30.1416 30.8209 30.1419 30.8209C30.1422 30.8209 30.1424 30.8209 30.1427 30.8209C30.143 30.8209 30.1433 30.8209 30.1436 30.8209C30.1439 30.8209 30.1442 30.8209 30.1444 30.8209C30.1447 30.8209 30.145 30.8209 30.1453 30.8209C30.1456 30.8209 30.1459 30.8209 30.1462 30.8209C30.1464 30.8209 30.1467 30.8209 30.147 30.8209C30.1473 30.8209 30.1476 30.8209 30.1479 30.8209C30.1482 30.8209 30.1484 30.8209 30.1487 30.8209C30.149 30.8209 30.1493 30.8209 30.1496 30.8209C30.1499 30.8209 30.1501 30.8209 30.1504 30.8209C30.1507 30.8209 30.151 30.8209 30.1513 30.8209C30.1516 30.8209 30.1519 30.8209 30.1521 30.8209C30.1524 30.8209 30.1527 30.8209 30.153 30.8209C30.1533 30.8209 30.1536 30.8209 30.1539 30.8209C30.1541 30.8209 30.1544 30.8209 30.1547 30.8209C30.155 30.8209 30.1553 30.8209 30.1556 30.8209C30.1558 30.8209 30.1561 30.8209 30.1564 30.8209C30.1567 30.8209 30.157 30.8209 30.1573 30.8209C30.1576 30.8209 30.1578 30.8209 30.1581 30.8209C30.1584 30.8209 30.1587 30.8209 30.159 30.8209C30.1593 30.8209 30.1596 30.8209 30.1598 30.8209C30.1601 30.8209 30.1604 30.8209 30.1607 30.8209C30.161 30.8209 30.1613 30.8209 30.1615 30.8209V27.8209ZM29.8155 27.8247C29.8186 27.8249 29.8434 27.8275 29.8796 27.8426L28.7257 30.6118C29.0117 30.731 29.3072 30.796 29.6018 30.8171L29.8155 27.8247ZM29.8796 27.8426C30.0208 27.9014 30.1326 27.9977 30.2034 28.095L27.7772 29.8596C28.0146 30.186 28.3346 30.4488 28.7257 30.6118L29.8796 27.8426ZM30.2384 28.1453C30.3097 28.2522 30.341 28.3462 30.3544 28.4014C30.3673 28.4546 30.3654 28.479 30.3654 28.462H27.3654C27.3654 28.8485 27.4356 29.3495 27.7422 29.8094L30.2384 28.1453ZM30.3654 28.462C30.3654 28.4074 30.3666 28.3921 30.3659 28.4017C30.3657 28.4051 30.3636 28.4385 30.3558 28.488C30.3518 28.5132 30.3439 28.5582 30.3293 28.6146C30.317 28.6623 30.2868 28.7703 30.2226 28.8985L27.5393 27.5569C27.4262 27.7832 27.3974 27.9892 27.3925 28.0201C27.3808 28.0944 27.3754 28.1596 27.3726 28.2021C27.3667 28.2898 27.3654 28.3812 27.3654 28.462H30.3654ZM30.3741 28.3709L30.9988 21.8588L28.0125 21.5723L27.3878 28.0845L30.3741 28.3709ZM31.0005 21.8401C31.0051 21.7846 31.0115 21.7082 31.0161 21.6527C31.0178 21.6319 31.0182 21.6267 31.02 21.6059C31.0217 21.585 31.0222 21.5798 31.0239 21.559C31.0256 21.5382 31.0261 21.533 31.0278 21.5122C31.0295 21.4913 31.03 21.4861 31.0317 21.4653L28.0421 21.2162C28.042 21.2164 28.042 21.2167 28.042 21.2169C28.042 21.2172 28.042 21.2174 28.0419 21.2176C28.0419 21.2179 28.0419 21.2181 28.0419 21.2184C28.0419 21.2186 28.0418 21.2189 28.0418 21.2191C28.0418 21.2193 28.0418 21.2196 28.0418 21.2198C28.0417 21.2201 28.0417 21.2203 28.0417 21.2206C28.0417 21.2208 28.0417 21.2211 28.0416 21.2213C28.0416 21.2215 28.0416 21.2218 28.0416 21.222C28.0416 21.2223 28.0415 21.2225 28.0415 21.2228C28.0415 21.223 28.0415 21.2233 28.0414 21.2235C28.0414 21.2237 28.0414 21.224 28.0414 21.2242C28.0414 21.2245 28.0413 21.2247 28.0413 21.225C28.0413 21.2252 28.0413 21.2254 28.0413 21.2257C28.0412 21.2259 28.0412 21.2262 28.0412 21.2264C28.0412 21.2267 28.0412 21.2269 28.0411 21.2272C28.0411 21.2274 28.0411 21.2276 28.0411 21.2279C28.0411 21.2281 28.041 21.2284 28.041 21.2286C28.041 21.2289 28.041 21.2291 28.041 21.2294C28.0409 21.2296 28.0409 21.2298 28.0409 21.2301C28.0409 21.2303 28.0409 21.2306 28.0408 21.2308C28.0408 21.2311 28.0408 21.2313 28.0408 21.2315C28.0408 21.2318 28.0407 21.232 28.0407 21.2323C28.0407 21.2325 28.0407 21.2328 28.0407 21.233C28.0406 21.2333 28.0406 21.2335 28.0406 21.2337C28.0406 21.234 28.0406 21.2342 28.0405 21.2345C28.0405 21.2347 28.0405 21.235 28.0405 21.2352C28.0405 21.2355 28.0404 21.2357 28.0404 21.2359C28.0404 21.2362 28.0404 21.2364 28.0404 21.2367C28.0403 21.2369 28.0403 21.2372 28.0403 21.2374C28.0403 21.2376 28.0402 21.2379 28.0402 21.2381C28.0402 21.2384 28.0402 21.2386 28.0402 21.2389C28.0401 21.2391 28.0401 21.2394 28.0401 21.2396C28.0401 21.2398 28.0401 21.2401 28.04 21.2403C28.04 21.2406 28.04 21.2408 28.04 21.2411C28.04 21.2413 28.0399 21.2416 28.0399 21.2418C28.0399 21.242 28.0399 21.2423 28.0399 21.2425C28.0398 21.2428 28.0398 21.243 28.0398 21.2433C28.0398 21.2435 28.0398 21.2438 28.0397 21.244C28.0397 21.2442 28.0397 21.2445 28.0397 21.2447C28.0397 21.245 28.0396 21.2452 28.0396 21.2455C28.0396 21.2457 28.0396 21.2459 28.0396 21.2462C28.0395 21.2464 28.0395 21.2467 28.0395 21.2469C28.0395 21.2472 28.0395 21.2474 28.0394 21.2477C28.0394 21.2479 28.0394 21.2481 28.0394 21.2484C28.0394 21.2486 28.0393 21.2489 28.0393 21.2491C28.0393 21.2494 28.0393 21.2496 28.0393 21.2499C28.0392 21.2501 28.0392 21.2503 28.0392 21.2506C28.0392 21.2508 28.0392 21.2511 28.0391 21.2513C28.0391 21.2516 28.0391 21.2518 28.0391 21.252C28.039 21.2523 28.039 21.2525 28.039 21.2528C28.039 21.253 28.039 21.2533 28.0389 21.2535C28.0389 21.2538 28.0389 21.254 28.0389 21.2542C28.0389 21.2545 28.0388 21.2547 28.0388 21.255C28.0388 21.2552 28.0388 21.2555 28.0388 21.2557C28.0387 21.256 28.0387 21.2562 28.0387 21.2564C28.0387 21.2567 28.0387 21.2569 28.0386 21.2572C28.0386 21.2574 28.0386 21.2577 28.0386 21.2579C28.0386 21.2581 28.0385 21.2584 28.0385 21.2586C28.0385 21.2589 28.0385 21.2591 28.0385 21.2594C28.0384 21.2596 28.0384 21.2599 28.0384 21.2601C28.0384 21.2603 28.0384 21.2606 28.0383 21.2608C28.0383 21.2611 28.0383 21.2613 28.0383 21.2616C28.0383 21.2618 28.0382 21.2621 28.0382 21.2623C28.0382 21.2625 28.0382 21.2628 28.0382 21.263C28.0381 21.2633 28.0381 21.2635 28.0381 21.2638C28.0381 21.264 28.0381 21.2642 28.038 21.2645C28.038 21.2647 28.038 21.265 28.038 21.2652C28.038 21.2655 28.0379 21.2657 28.0379 21.266C28.0379 21.2662 28.0379 21.2664 28.0378 21.2667C28.0378 21.2669 28.0378 21.2672 28.0378 21.2674C28.0378 21.2677 28.0377 21.2679 28.0377 21.2682C28.0377 21.2684 28.0377 21.2686 28.0377 21.2689C28.0376 21.2691 28.0376 21.2694 28.0376 21.2696C28.0376 21.2699 28.0376 21.2701 28.0375 21.2703C28.0375 21.2706 28.0375 21.2708 28.0375 21.2711C28.0375 21.2713 28.0374 21.2716 28.0374 21.2718C28.0374 21.2721 28.0374 21.2723 28.0374 21.2725C28.0373 21.2728 28.0373 21.273 28.0373 21.2733C28.0373 21.2735 28.0373 21.2738 28.0372 21.274C28.0372 21.2743 28.0372 21.2745 28.0372 21.2747C28.0372 21.275 28.0371 21.2752 28.0371 21.2755C28.0371 21.2757 28.0371 21.276 28.0371 21.2762C28.037 21.2764 28.037 21.2767 28.037 21.2769C28.037 21.2772 28.037 21.2774 28.0369 21.2777C28.0369 21.2779 28.0369 21.2782 28.0369 21.2784C28.0369 21.2786 28.0368 21.2789 28.0368 21.2791C28.0368 21.2794 28.0368 21.2796 28.0368 21.2799C28.0367 21.2801 28.0367 21.2804 28.0367 21.2806C28.0367 21.2808 28.0367 21.2811 28.0366 21.2813C28.0366 21.2816 28.0366 21.2818 28.0366 21.2821C28.0365 21.2823 28.0365 21.2825 28.0365 21.2828C28.0365 21.283 28.0365 21.2833 28.0364 21.2835C28.0364 21.2838 28.0364 21.284 28.0364 21.2843C28.0364 21.2845 28.0363 21.2847 28.0363 21.285C28.0363 21.2852 28.0363 21.2855 28.0363 21.2857C28.0362 21.286 28.0362 21.2862 28.0362 21.2865C28.0362 21.2867 28.0362 21.2869 28.0361 21.2872C28.0361 21.2874 28.0361 21.2877 28.0361 21.2879C28.0361 21.2882 28.036 21.2884 28.036 21.2886C28.036 21.2889 28.036 21.2891 28.036 21.2894C28.0359 21.2896 28.0359 21.2899 28.0359 21.2901C28.0359 21.2904 28.0359 21.2906 28.0358 21.2908C28.0358 21.2911 28.0358 21.2913 28.0358 21.2916C28.0358 21.2918 28.0357 21.2921 28.0357 21.2923C28.0357 21.2926 28.0357 21.2928 28.0357 21.293C28.0356 21.2933 28.0356 21.2935 28.0356 21.2938C28.0356 21.294 28.0356 21.2943 28.0355 21.2945C28.0355 21.2947 28.0355 21.295 28.0355 21.2952C28.0355 21.2955 28.0354 21.2957 28.0354 21.296C28.0354 21.2962 28.0354 21.2965 28.0353 21.2967C28.0353 21.2969 28.0353 21.2972 28.0353 21.2974C28.0353 21.2977 28.0352 21.2979 28.0352 21.2982C28.0352 21.2984 28.0352 21.2987 28.0352 21.2989C28.0351 21.2991 28.0351 21.2994 28.0351 21.2996C28.0351 21.2999 28.0351 21.3001 28.035 21.3004C28.035 21.3006 28.035 21.3008 28.035 21.3011C28.035 21.3013 28.0349 21.3016 28.0349 21.3018C28.0349 21.3021 28.0349 21.3023 28.0349 21.3026C28.0348 21.3028 28.0348 21.303 28.0348 21.3033C28.0348 21.3035 28.0348 21.3038 28.0347 21.304C28.0347 21.3043 28.0347 21.3045 28.0347 21.3048C28.0347 21.305 28.0346 21.3052 28.0346 21.3055C28.0346 21.3057 28.0346 21.306 28.0346 21.3062C28.0345 21.3065 28.0345 21.3067 28.0345 21.3069C28.0345 21.3072 28.0345 21.3074 28.0344 21.3077C28.0344 21.3079 28.0344 21.3082 28.0344 21.3084C28.0344 21.3087 28.0343 21.3089 28.0343 21.3091C28.0343 21.3094 28.0343 21.3096 28.0343 21.3099C28.0342 21.3101 28.0342 21.3104 28.0342 21.3106C28.0342 21.3109 28.0341 21.3111 28.0341 21.3113C28.0341 21.3116 28.0341 21.3118 28.0341 21.3121C28.034 21.3123 28.034 21.3126 28.034 21.3128C28.034 21.313 28.034 21.3133 28.0339 21.3135C28.0339 21.3138 28.0339 21.314 28.0339 21.3143C28.0339 21.3145 28.0338 21.3148 28.0338 21.315C28.0338 21.3152 28.0338 21.3155 28.0338 21.3157C28.0337 21.316 28.0337 21.3162 28.0337 21.3165C28.0337 21.3167 28.0337 21.317 28.0336 21.3172C28.0336 21.3174 28.0336 21.3177 28.0336 21.3179C28.0336 21.3182 28.0335 21.3184 28.0335 21.3187C28.0335 21.3189 28.0335 21.3191 28.0335 21.3194C28.0334 21.3196 28.0334 21.3199 28.0334 21.3201C28.0334 21.3204 28.0334 21.3206 28.0333 21.3209C28.0333 21.3211 28.0333 21.3213 28.0333 21.3216C28.0333 21.3218 28.0332 21.3221 28.0332 21.3223C28.0332 21.3226 28.0332 21.3228 28.0332 21.3231C28.0331 21.3233 28.0331 21.3235 28.0331 21.3238C28.0331 21.324 28.0331 21.3243 28.033 21.3245C28.033 21.3248 28.033 21.325 28.033 21.3252C28.0329 21.3255 28.0329 21.3257 28.0329 21.326C28.0329 21.3262 28.0329 21.3265 28.0328 21.3267C28.0328 21.327 28.0328 21.3272 28.0328 21.3274C28.0328 21.3277 28.0327 21.3279 28.0327 21.3282C28.0327 21.3284 28.0327 21.3287 28.0327 21.3289C28.0326 21.3292 28.0326 21.3294 28.0326 21.3296C28.0326 21.3299 28.0326 21.3301 28.0325 21.3304C28.0325 21.3306 28.0325 21.3309 28.0325 21.3311C28.0325 21.3314 28.0324 21.3316 28.0324 21.3318C28.0324 21.3321 28.0324 21.3323 28.0324 21.3326C28.0323 21.3328 28.0323 21.3331 28.0323 21.3333C28.0323 21.3335 28.0323 21.3338 28.0322 21.334C28.0322 21.3343 28.0322 21.3345 28.0322 21.3348C28.0322 21.335 28.0321 21.3353 28.0321 21.3355C28.0321 21.3357 28.0321 21.336 28.0321 21.3362C28.032 21.3365 28.032 21.3367 28.032 21.337C28.032 21.3372 28.032 21.3375 28.0319 21.3377C28.0319 21.3379 28.0319 21.3382 28.0319 21.3384C28.0319 21.3387 28.0318 21.3389 28.0318 21.3392C28.0318 21.3394 28.0318 21.3396 28.0317 21.3399C28.0317 21.3401 28.0317 21.3404 28.0317 21.3406C28.0317 21.3409 28.0316 21.3411 28.0316 21.3414C28.0316 21.3416 28.0316 21.3418 28.0316 21.3421C28.0315 21.3423 28.0315 21.3426 28.0315 21.3428C28.0315 21.3431 28.0315 21.3433 28.0314 21.3436C28.0314 21.3438 28.0314 21.344 28.0314 21.3443C28.0314 21.3445 28.0313 21.3448 28.0313 21.345C28.0313 21.3453 28.0313 21.3455 28.0313 21.3457C28.0312 21.346 28.0312 21.3462 28.0312 21.3465C28.0312 21.3467 28.0312 21.347 28.0311 21.3472C28.0311 21.3475 28.0311 21.3477 28.0311 21.3479C28.0311 21.3482 28.031 21.3484 28.031 21.3487C28.031 21.3489 28.031 21.3492 28.031 21.3494C28.0309 21.3497 28.0309 21.3499 28.0309 21.3501C28.0309 21.3504 28.0309 21.3506 28.0308 21.3509C28.0308 21.3511 28.0308 21.3514 28.0308 21.3516C28.0308 21.3518 28.0307 21.3521 28.0307 21.3523C28.0307 21.3526 28.0307 21.3528 28.0307 21.3531C28.0306 21.3533 28.0306 21.3536 28.0306 21.3538C28.0306 21.354 28.0305 21.3543 28.0305 21.3545C28.0305 21.3548 28.0305 21.355 28.0305 21.3553C28.0304 21.3555 28.0304 21.3558 28.0304 21.356C28.0304 21.3562 28.0304 21.3565 28.0303 21.3567C28.0303 21.357 28.0303 21.3572 28.0303 21.3575C28.0303 21.3577 28.0302 21.3579 28.0302 21.3582C28.0302 21.3584 28.0302 21.3587 28.0302 21.3589C28.0301 21.3592 28.0301 21.3594 28.0301 21.3597C28.0301 21.3599 28.0301 21.3601 28.03 21.3604C28.03 21.3606 28.03 21.3609 28.03 21.3611C28.03 21.3614 28.0299 21.3616 28.0299 21.3619C28.0299 21.3621 28.0299 21.3623 28.0299 21.3626C28.0298 21.3628 28.0298 21.3631 28.0298 21.3633C28.0298 21.3636 28.0298 21.3638 28.0297 21.364C28.0297 21.3643 28.0297 21.3645 28.0297 21.3648C28.0297 21.365 28.0296 21.3653 28.0296 21.3655C28.0296 21.3658 28.0296 21.366 28.0296 21.3662C28.0295 21.3665 28.0295 21.3667 28.0295 21.367C28.0295 21.3672 28.0295 21.3675 28.0294 21.3677C28.0294 21.368 28.0294 21.3682 28.0294 21.3684C28.0294 21.3687 28.0293 21.3689 28.0293 21.3692C28.0293 21.3694 28.0293 21.3697 28.0292 21.3699C28.0292 21.3701 28.0292 21.3704 28.0292 21.3706C28.0292 21.3709 28.0291 21.3711 28.0291 21.3714C28.0291 21.3716 28.0291 21.3719 28.0291 21.3721C28.029 21.3723 28.029 21.3726 28.029 21.3728C28.029 21.3731 28.029 21.3733 28.0289 21.3736C28.0289 21.3738 28.0289 21.3741 28.0289 21.3743C28.0289 21.3745 28.0288 21.3748 28.0288 21.375C28.0288 21.3753 28.0288 21.3755 28.0288 21.3758C28.0287 21.376 28.0287 21.3762 28.0287 21.3765C28.0287 21.3767 28.0287 21.377 28.0286 21.3772C28.0286 21.3775 28.0286 21.3777 28.0286 21.378C28.0286 21.3782 28.0285 21.3784 28.0285 21.3787C28.0285 21.3789 28.0285 21.3792 28.0285 21.3794C28.0284 21.3797 28.0284 21.3799 28.0284 21.3802C28.0284 21.3804 28.0284 21.3806 28.0283 21.3809C28.0283 21.3811 28.0283 21.3814 28.0283 21.3816C28.0283 21.3819 28.0282 21.3821 28.0282 21.3823C28.0282 21.3826 28.0282 21.3828 28.0282 21.3831C28.0281 21.3833 28.0281 21.3836 28.0281 21.3838C28.0281 21.3841 28.028 21.3843 28.028 21.3845C28.028 21.3848 28.028 21.385 28.028 21.3853C28.0279 21.3855 28.0279 21.3858 28.0279 21.386C28.0279 21.3863 28.0279 21.3865 28.0278 21.3867C28.0278 21.387 28.0278 21.3872 28.0278 21.3875C28.0278 21.3877 28.0277 21.388 28.0277 21.3882C28.0277 21.3884 28.0277 21.3887 28.0277 21.3889C28.0276 21.3892 28.0276 21.3894 28.0276 21.3897C28.0276 21.3899 28.0276 21.3902 28.0275 21.3904C28.0275 21.3906 28.0275 21.3909 28.0275 21.3911C28.0275 21.3914 28.0274 21.3916 28.0274 21.3919C28.0274 21.3921 28.0274 21.3924 28.0274 21.3926C28.0273 21.3928 28.0273 21.3931 28.0273 21.3933C28.0273 21.3936 28.0273 21.3938 28.0272 21.3941C28.0272 21.3943 28.0272 21.3945 28.0272 21.3948C28.0272 21.395 28.0271 21.3953 28.0271 21.3955C28.0271 21.3958 28.0271 21.396 28.0271 21.3963C28.027 21.3965 28.027 21.3967 28.027 21.397C28.027 21.3972 28.027 21.3975 28.0269 21.3977C28.0269 21.398 28.0269 21.3982 28.0269 21.3985C28.0268 21.3987 28.0268 21.3989 28.0268 21.3992C28.0268 21.3994 28.0268 21.3997 28.0267 21.3999C28.0267 21.4002 28.0267 21.4004 28.0267 21.4006C28.0267 21.4009 28.0266 21.4011 28.0266 21.4014C28.0266 21.4016 28.0266 21.4019 28.0266 21.4021C28.0265 21.4024 28.0265 21.4026 28.0265 21.4028C28.0265 21.4031 28.0265 21.4033 28.0264 21.4036C28.0218 21.4591 28.0155 21.5355 28.0108 21.591L31.0005 21.8401ZM31.0194 21.5688C31.0144 21.6012 30.9976 21.6706 30.9481 21.7533L28.3756 20.2098C28.201 20.5007 28.101 20.8096 28.0543 21.1127L31.0194 21.5688ZM30.8907 21.8418C30.7679 22.0171 30.6284 22.09 30.5806 22.1104L29.3989 19.353C29.0597 19.4984 28.7014 19.7378 28.433 20.1214L30.8907 21.8418ZM30.6241 22.091C30.5855 22.109 30.5557 22.1189 30.5386 22.1239C30.5215 22.1289 30.5137 22.1299 30.5175 22.1293C30.5211 22.1287 30.5334 22.1269 30.5556 22.1252C30.5777 22.1236 30.6075 22.1224 30.6457 22.1224V19.1224C30.2673 19.1224 29.797 19.1663 29.3554 19.3724L30.6241 22.091ZM30.6457 22.1224H37.4858V19.1224H30.6457V22.1224ZM37.4858 22.1224C37.4563 22.1224 37.3657 22.1188 37.2427 22.0736C37.111 22.0254 36.9671 21.9382 36.8444 21.8032L39.0642 19.7852C38.5872 19.2605 37.964 19.1224 37.4858 19.1224V22.1224ZM36.8936 21.8548C36.8194 21.7806 36.7425 21.6766 36.6868 21.5429C36.6309 21.4088 36.6104 21.2787 36.6104 21.169H39.6104C39.6104 20.6209 39.3971 20.1157 39.0149 19.7335L36.8936 21.8548ZM36.6104 21.169C36.6104 21.0386 36.6366 20.9076 36.6868 20.7872C36.7356 20.67 36.7971 20.5867 36.8444 20.5348L39.0642 22.5528C39.3807 22.2046 39.6104 21.7311 39.6104 21.169H36.6104ZM36.8936 20.4831C37.17 20.2067 37.4628 20.1999 37.4858 20.1999V23.1999C37.9252 23.1999 38.5303 23.0891 39.0149 22.6044L36.8936 20.4831ZM37.4858 20.1999H30.6457V23.1999H37.4858V20.1999ZM29.1525 21.557L28.5278 28.0848L31.5142 28.3706L32.1388 21.8428L29.1525 21.557ZM30.021 29.7277H34.0657V26.7277H30.021V29.7277ZM34.0657 29.7277C34.8298 29.7277 35.4933 29.7977 36.0649 29.9257L36.7203 26.9982C35.8968 26.8138 35.0091 26.7277 34.0657 26.7277V29.7277ZM36.0901 29.9311C36.6388 30.0441 37.0481 30.2215 37.3543 30.432L39.0539 27.9599C38.3607 27.4833 37.5623 27.1713 36.6951 26.9928L36.0901 29.9311ZM37.3543 30.432C37.6258 30.6186 37.841 30.8671 38.0037 31.2113L40.7159 29.9291C40.3372 29.128 39.7819 28.4604 39.0539 27.9599L37.3543 30.432ZM38.0083 31.2209C38.1553 31.5262 38.2658 31.9814 38.2658 32.6472H41.2658C41.2658 31.6681 41.1057 30.7386 40.7113 29.9195L38.0083 31.2209ZM38.2658 32.6472C38.2658 33.5917 38.1441 34.2982 37.9536 34.811L40.7659 35.8556C41.1168 34.9108 41.2658 33.8266 41.2658 32.6472H38.2658ZM37.9561 34.8044C37.7581 35.3299 37.499 35.7002 37.2033 35.9651L39.205 38.1996C39.9087 37.5692 40.4201 36.7734 40.7634 35.8622L37.9561 34.8044ZM37.2033 35.9651C36.8958 36.2406 36.509 36.4525 36.0088 36.5849L36.7764 39.485C37.6921 39.2427 38.513 38.8195 39.205 38.1996L37.2033 35.9651ZM35.9834 36.5919C35.4401 36.746 34.8049 36.8317 34.0657 36.8317V39.8317C35.034 39.8317 35.95 39.7196 36.8018 39.4781L35.9834 36.5919ZM34.0657 36.8317C33.5277 36.8317 32.9637 36.7907 32.3726 36.7062L31.9483 39.6761C32.6691 39.779 33.3752 39.8317 34.0657 39.8317V36.8317ZM32.3494 36.7031C31.7497 36.6269 31.2194 36.5243 30.7545 36.3992L29.9746 39.296C30.5925 39.4623 31.2595 39.5888 31.9715 39.6792L32.3494 36.7031ZM30.7351 36.3941C30.281 36.2783 29.9709 36.1556 29.771 36.0466L28.3345 38.6803C28.8218 38.9461 29.3862 39.1462 29.9941 39.3011L30.7351 36.3941ZM29.771 36.0466C29.6747 35.9941 29.7031 35.9936 29.772 36.0688C29.848 36.1518 30.0374 36.4031 30.0374 36.8013H27.0374C27.0374 37.3868 27.3127 37.8256 27.5605 38.096C27.8012 38.3585 28.0872 38.5454 28.3345 38.6803L29.771 36.0466ZM30.0374 36.8013C30.0374 36.9548 30.0043 37.1356 29.9142 37.3159C29.8249 37.4946 29.7052 37.6215 29.5989 37.7042L27.757 35.3361C27.3135 35.6811 27.0374 36.2045 27.0374 36.8013H30.0374ZM29.615 37.6915C29.3773 37.8816 29.1514 37.8952 29.0996 37.8952V34.8952C28.6938 34.8952 28.1868 34.9921 27.7409 35.3489L29.615 37.6915ZM29.0996 37.8952C29.0759 37.8952 29.0577 37.8941 29.0458 37.893C29.0338 37.8919 29.0267 37.8907 29.0248 37.8904C29.0219 37.8899 29.0337 37.8918 29.0623 37.9L29.8865 35.0154C29.6619 34.9512 29.3907 34.8952 29.0996 34.8952V37.8952ZM29.1601 37.9244C29.2542 37.9446 29.3656 37.9737 29.4955 38.0143L30.3903 35.1509C30.1871 35.0874 29.9861 35.0333 29.7887 34.991L29.1601 37.9244ZM29.4955 38.0143C29.5325 38.0259 29.7084 38.0809 29.7454 38.0924C29.8564 38.1271 29.7593 38.0968 29.8703 38.1315C29.8706 38.1316 29.8709 38.1317 29.8713 38.1318C29.8716 38.1319 29.8719 38.132 29.8723 38.1321C29.8726 38.1322 29.8729 38.1323 29.8732 38.1324C29.8736 38.1325 29.8739 38.1326 29.8742 38.1327C29.8745 38.1328 29.8749 38.1329 29.8752 38.133C29.8755 38.1331 29.8758 38.1332 29.8762 38.1333C29.8765 38.1334 29.8768 38.1335 29.8771 38.1336C29.8775 38.1337 29.8778 38.1338 29.8781 38.1339C29.8784 38.134 29.8788 38.1341 29.8791 38.1342C29.8794 38.1343 29.8797 38.1344 29.8801 38.1345C29.8804 38.1346 29.8807 38.1347 29.881 38.1348C29.8814 38.1349 29.8817 38.135 29.882 38.1351C29.8823 38.1352 29.8827 38.1353 29.883 38.1354C29.8833 38.1355 29.8836 38.1356 29.884 38.1357C29.8843 38.1358 29.8846 38.1359 29.8849 38.1361C29.8853 38.1362 29.8856 38.1363 29.8859 38.1364C29.8862 38.1365 29.8866 38.1366 29.8869 38.1367C29.8872 38.1368 29.8875 38.1369 29.8879 38.137C29.8882 38.1371 29.8885 38.1372 29.8888 38.1373C29.8892 38.1374 29.8895 38.1375 29.8898 38.1376C29.8901 38.1377 29.8905 38.1378 29.8908 38.1379C29.8911 38.138 29.8914 38.1381 29.8918 38.1382C29.8921 38.1383 29.8924 38.1384 29.8927 38.1385C29.8931 38.1386 29.8934 38.1387 29.8937 38.1388C29.9085 38.1434 29.8809 38.1348 29.8957 38.1394C29.9104 38.144 29.8829 38.1354 29.8976 38.14C29.9124 38.1446 29.8848 38.136 29.8996 38.1406C29.9143 38.1452 29.8868 38.1366 29.9015 38.1412C29.9163 38.1458 29.8887 38.1372 29.9035 38.1418C29.9182 38.1465 29.8907 38.1378 29.9054 38.1425C29.9202 38.1471 29.8926 38.1385 29.9074 38.1431C29.9221 38.1477 29.8946 38.1391 29.9093 38.1437C29.9241 38.1483 29.8966 38.1397 29.9113 38.1443C29.926 38.1489 29.8985 38.1403 29.9132 38.1449C29.928 38.1495 29.9005 38.1409 29.9152 38.1455C29.9299 38.1501 29.9024 38.1415 29.9171 38.1461C29.9319 38.1507 29.9044 38.1421 29.9191 38.1467C29.9338 38.1513 29.9063 38.1427 29.9211 38.1473C29.9358 38.1519 29.9083 38.1433 29.923 38.1479C29.9377 38.1526 29.9102 38.1439 29.925 38.1486C29.9397 38.1532 29.9122 38.1446 29.9269 38.1492C29.9417 38.1538 29.9141 38.1452 29.9289 38.1498C29.9436 38.1544 29.9161 38.1458 29.9308 38.1504C29.9456 38.155 29.918 38.1464 29.9328 38.151C29.9475 38.1556 29.92 38.147 29.9347 38.1516C29.9495 38.1562 29.9219 38.1476 29.9367 38.1522C29.9514 38.1568 29.9239 38.1482 29.9386 38.1528C29.9534 38.1574 29.9258 38.1488 29.9406 38.1534C29.9553 38.158 29.9278 38.1494 29.9425 38.154C29.9573 38.1587 29.9297 38.15 29.9445 38.1547C29.9592 38.1593 29.9317 38.1507 29.9464 38.1553C29.9612 38.1599 29.9336 38.1513 29.9484 38.1559C29.9631 38.1605 29.9356 38.1519 29.9503 38.1565C29.9651 38.1611 29.9375 38.1525 29.9523 38.1571C29.967 38.1617 29.9395 38.1531 29.9542 38.1577C29.969 38.1623 29.9414 38.1537 29.9562 38.1583C29.9709 38.1629 29.9434 38.1543 29.9581 38.1589C29.9729 38.1635 29.9454 38.1549 29.9601 38.1595C29.9748 38.1641 29.9473 38.1555 29.962 38.1601C29.9768 38.1648 29.9493 38.1561 29.964 38.1608C29.9787 38.1654 29.9512 38.1568 29.966 38.1614C29.9807 38.166 29.9532 38.1574 29.9679 38.162C29.9826 38.1666 29.9551 38.158 29.9699 38.1626C29.9846 38.1672 29.9571 38.1586 29.9718 38.1632C29.9865 38.1678 29.959 38.1592 29.9738 38.1638C29.9885 38.1684 29.961 38.1598 29.9757 38.1644C29.9905 38.169 29.9629 38.1604 29.9777 38.165C29.9924 38.1696 29.9649 38.161 29.9796 38.1656C29.9944 38.1702 29.9668 38.1616 29.9816 38.1662C29.9963 38.1709 29.9688 38.1623 29.9835 38.1669C29.9983 38.1715 29.9707 38.1629 29.9855 38.1675C30.0002 38.1721 29.9727 38.1635 29.9874 38.1681C30.0022 38.1727 29.9746 38.1641 29.9894 38.1687C30.0041 38.1733 29.9766 38.1647 29.9913 38.1693C30.0061 38.1739 29.9785 38.1653 29.9933 38.1699C30.008 38.1745 29.9805 38.1659 29.9952 38.1705L30.8901 35.3071C30.8762 35.3027 30.8883 35.3065 30.8744 35.3022C30.8606 35.2979 30.8727 35.3017 30.8588 35.2973C30.845 35.293 30.8571 35.2968 30.8432 35.2924C30.8293 35.2881 30.8415 35.2919 30.8276 35.2876C30.8137 35.2832 30.8258 35.287 30.812 35.2827C30.7981 35.2783 30.8102 35.2821 30.7964 35.2778C30.7825 35.2735 30.7946 35.2773 30.7807 35.2729C30.7657 35.2682 30.7919 35.2764 30.7768 35.2717C30.7618 35.267 30.788 35.2752 30.7729 35.2705C30.7579 35.2658 30.7841 35.274 30.769 35.2693C30.754 35.2646 30.7802 35.2727 30.7651 35.268C30.7501 35.2633 30.7763 35.2715 30.7612 35.2668C30.7462 35.2621 30.7724 35.2703 30.7573 35.2656C30.7423 35.2609 30.7685 35.2691 30.7534 35.2644C30.7384 35.2597 30.7646 35.2679 30.7495 35.2632C30.7345 35.2585 30.7606 35.2666 30.7456 35.2619C30.7306 35.2572 30.7567 35.2654 30.7417 35.2607C30.7267 35.256 30.7528 35.2642 30.7378 35.2595C30.7228 35.2548 30.7489 35.263 30.7339 35.2583C30.7188 35.2536 30.745 35.2618 30.73 35.2571C30.7149 35.2524 30.7411 35.2605 30.7261 35.2558C30.711 35.2511 30.7372 35.2593 30.7222 35.2546C30.7071 35.2499 30.7333 35.2581 30.7183 35.2534C30.7032 35.2487 30.7294 35.2569 30.7144 35.2522C30.6993 35.2475 30.7255 35.2557 30.7105 35.251C30.6954 35.2463 30.7216 35.2544 30.7066 35.2497C30.6915 35.245 30.7177 35.2532 30.7027 35.2485C30.6876 35.2438 30.7138 35.252 30.6988 35.2473C30.6837 35.2426 30.7099 35.2508 30.6948 35.2461C30.6798 35.2414 30.706 35.2496 30.6909 35.2449C30.6759 35.2402 30.7021 35.2483 30.687 35.2436C30.672 35.2389 30.6982 35.2471 30.6831 35.2424C30.6681 35.2377 30.6943 35.2459 30.6792 35.2412C30.6642 35.2365 30.6904 35.2447 30.6753 35.24C30.6603 35.2353 30.6865 35.2435 30.6714 35.2388C30.6564 35.2341 30.6826 35.2422 30.6675 35.2375C30.6525 35.2328 30.6787 35.241 30.6636 35.2363C30.6486 35.2316 30.6748 35.2398 30.6597 35.2351C30.6447 35.2304 30.6709 35.2386 30.6558 35.2339C30.6408 35.2292 30.6669 35.2374 30.6519 35.2327C30.6369 35.228 30.663 35.2361 30.648 35.2314C30.633 35.2267 30.6591 35.2349 30.6441 35.2302C30.6291 35.2255 30.6552 35.2337 30.6402 35.229C30.6217 35.2232 30.6275 35.225 30.609 35.2192C30.5905 35.2135 30.5962 35.2153 30.5777 35.2095C30.5592 35.2037 30.565 35.2055 30.5465 35.1997C30.528 35.1939 30.5338 35.1957 30.5153 35.19C30.4968 35.1842 30.5025 35.186 30.484 35.1802C30.4655 35.1744 30.4713 35.1762 30.4528 35.1704C30.4343 35.1646 30.4401 35.1665 30.4216 35.1607C30.4031 35.1549 30.4088 35.1567 30.3903 35.1509L29.4955 38.0143ZM30.0194 38.1778C30.2324 38.2405 30.4424 38.2934 30.6482 38.3346L31.2366 35.3929C31.13 35.3716 31.0068 35.3412 30.8659 35.2997L30.0194 38.1778ZM30.6281 38.3304C31.0994 38.4314 31.6181 38.525 32.1823 38.6118L32.6384 35.6467C32.1198 35.5669 31.6599 35.4834 31.2567 35.397L30.6281 38.3304ZM32.1823 38.6118C32.8011 38.707 33.4292 38.7541 34.0657 38.7541V35.7541C33.5779 35.7541 33.1024 35.718 32.6384 35.6467L32.1823 38.6118Z" fill="#72E3A2"/>
</svg>
