<svg width="68" height="68" viewBox="0 0 68 68" fill="none" xmlns="http://www.w3.org/2000/svg">
<path d="M34 68C52.7777 68 68 52.7777 68 34C68 15.2223 52.7777 0 34 0C15.2223 0 0 15.2223 0 34C0 52.7777 15.2223 68 34 68Z" fill="#FCFCFC"/>
<path d="M27.7591 24.8545L26.2832 24.5862L26.2813 24.5969L27.7591 24.8545ZM28.8522 22.0591L27.646 21.1675C27.6432 21.1713 27.6404 21.1751 27.6376 21.179L28.8522 22.0591ZM31.023 20.4974L31.5213 21.9122C31.5261 21.9106 31.5308 21.9089 31.5356 21.9071L31.023 20.4974ZM36.4263 20.1383L36.2142 21.6232C36.2219 21.6243 36.2296 21.6253 36.2374 21.6263L36.4263 20.1383ZM38.2066 20.4818L37.8096 21.9283C37.8206 21.9314 37.8317 21.9343 37.8428 21.937L38.2066 20.4818ZM39.8932 21.8249L40.8141 23.0089C40.8195 23.0047 40.8249 23.0004 40.8303 22.9962L39.8932 21.8249ZM39.1124 21.8873L38.7003 23.3296C38.7326 23.3388 38.7652 23.347 38.7981 23.354L39.1124 21.8873ZM38.6439 21.7468L39.0913 20.3151L38.6439 21.7468ZM38.1285 21.5906L37.6811 23.0223C37.6892 23.0248 37.6972 23.0273 37.7053 23.0297L38.1285 21.5906ZM37.6444 21.4657L37.3301 22.9324C37.3368 22.9338 37.3435 22.9352 37.3503 22.9366L37.6444 21.4657ZM36.1765 21.2002L35.944 22.6821L35.9484 22.6828L36.1765 21.2002ZM32.0224 21.2939L31.7282 19.823L31.7241 19.8238L32.0224 21.2939ZM30.1953 22.2934L31.2668 23.343C31.2703 23.3394 31.2739 23.3358 31.2773 23.3322L30.1953 22.2934ZM28.6648 28.665H27.1648C27.1648 29.1785 27.4275 29.6563 27.8611 29.9315C28.2947 30.2066 28.8389 30.2409 29.3035 30.0222L28.6648 28.665ZM29.3207 28.4151L29.7779 29.8437C29.7891 29.8402 29.8003 29.8364 29.8114 29.8326L29.3207 28.4151ZM31.7882 27.9935L31.899 29.4894C31.9081 29.4887 31.9173 29.4879 31.9265 29.4871L31.7882 27.9935ZM36.848 28.1496L36.5843 29.6263C36.59 29.6273 36.5957 29.6283 36.6014 29.6292L36.848 28.1496ZM39.0343 28.9461L38.2074 30.1976C38.216 30.2032 38.2246 30.2088 38.2333 30.2143L39.0343 28.9461ZM40.3617 30.5077L38.9875 31.109C38.9901 31.1149 38.9928 31.1209 38.9954 31.1268L40.3617 30.5077ZM40.4554 34.9116L39.061 34.3587L39.056 34.3715L40.4554 34.9116ZM39.2998 36.4889L38.3309 35.3439C38.3272 35.3469 38.3236 35.3501 38.3199 35.3532L39.2998 36.4889ZM30.9449 37.5665L30.4182 38.971C30.4233 38.9729 30.4285 38.9748 30.4337 38.9767L30.9449 37.5665ZM28.9147 36.036L27.6977 36.913C27.7005 36.9169 27.7034 36.9208 27.7062 36.9246L28.9147 36.036ZM27.8059 33.2563L26.3345 33.5479L26.335 33.5504L27.8059 33.2563ZM28.6648 29.4927L28.3148 28.0341C27.6403 28.1959 27.1648 28.7991 27.1648 29.4927H28.6648ZM29.8673 35.3489L31.0699 34.4524L29.8673 35.3489ZM31.5383 36.5826L31.0257 37.9923C31.032 37.9946 31.0383 37.9969 31.0447 37.9991L31.5383 36.5826ZM38.4877 35.6925L37.498 34.5653C37.4934 34.5694 37.4888 34.5734 37.4843 34.5775L38.4877 35.6925ZM39.2686 30.8357L37.9058 31.4626L37.9107 31.4731L39.2686 30.8357ZM38.1754 29.6488L37.4373 30.9547L37.4493 30.9614L38.1754 29.6488ZM36.3639 29.1335L36.1935 30.6238C36.2006 30.6246 36.2076 30.6253 36.2146 30.626L36.3639 29.1335ZM32.038 29.0554L32.098 30.5542C32.108 30.5538 32.1179 30.5533 32.1279 30.5527L32.038 29.0554ZM30.6325 29.1647L30.7856 30.6569C30.7966 30.6557 30.8076 30.6545 30.8186 30.6531L30.6325 29.1647ZM29.5394 29.3209L29.7782 30.8017C29.7937 30.7992 29.809 30.7965 29.8244 30.7935L29.5394 29.3209ZM28.9623 29.0085C28.9623 27.4277 29.0585 26.1348 29.2368 25.1121L26.2813 24.5969C26.064 25.8438 25.9623 27.3203 25.9623 29.0085H28.9623ZM29.2349 25.1228C29.4149 24.1324 29.7125 23.4283 30.0669 22.9393L27.6376 21.179C26.9509 22.1267 26.5196 23.2861 26.2833 24.5862L29.2349 25.1228ZM30.0585 22.9507C30.3955 22.4948 30.8622 22.1444 31.5213 21.9122L30.5246 19.0827C29.3513 19.496 28.3709 20.1867 27.646 21.1675L30.0585 22.9507ZM31.5356 21.9071C32.2312 21.6542 33.208 21.4977 34.5211 21.4977V18.4977C33.0024 18.4977 31.6471 18.6744 30.5103 19.0878L31.5356 21.9071ZM34.5211 21.4977C35.0591 21.4977 35.6231 21.5387 36.2142 21.6232L36.6385 18.6533C35.9177 18.5504 35.2116 18.4977 34.5211 18.4977V21.4977ZM36.2374 21.6263C36.8365 21.7024 37.3588 21.8046 37.8096 21.9283L38.6037 19.0353C37.9925 18.8676 37.328 18.7407 36.6153 18.6502L36.2374 21.6263ZM37.8428 21.937C38.3084 22.0534 38.6202 22.1761 38.8158 22.2828L40.2523 19.6491C39.7607 19.3809 39.1876 19.1809 38.5704 19.0266L37.8428 21.937ZM38.8158 22.2828C38.9121 22.3353 38.8837 22.3358 38.8148 22.2606C38.7388 22.1777 38.5494 21.9263 38.5494 21.5281H41.5494C41.5494 20.9426 41.2741 20.5038 41.0263 20.2335C40.7856 19.9709 40.4996 19.784 40.2523 19.6491L38.8158 22.2828ZM38.5494 21.5281C38.5494 21.3482 38.5928 21.161 38.683 20.9896C38.7698 20.8246 38.8776 20.7165 38.9562 20.6536L40.8303 22.9962C41.2247 22.6807 41.5494 22.1761 41.5494 21.5281H38.5494ZM38.9723 20.6408C39.1089 20.5346 39.2406 20.4829 39.3315 20.4584C39.4191 20.4348 39.4768 20.4342 39.4872 20.4342V23.4342C39.841 23.4342 40.3556 23.3655 40.8141 23.0089L38.9723 20.6408ZM39.4872 20.4342C39.5086 20.4342 39.5145 20.4357 39.5015 20.434C39.489 20.4325 39.4646 20.4288 39.4267 20.4206L38.7981 23.354C39.0069 23.3988 39.243 23.4342 39.4872 23.4342V20.4342ZM39.5245 20.445C39.3921 20.4072 39.2479 20.364 39.0913 20.3151L38.1965 23.1785C38.3731 23.2337 38.5411 23.2841 38.7003 23.3296L39.5245 20.445ZM39.0913 20.3151C38.9163 20.2604 38.7364 20.2059 38.5518 20.1516L37.7053 23.0297C37.8747 23.0795 38.0384 23.1291 38.1965 23.1785L39.0913 20.3151ZM38.576 20.1589C38.3637 20.0926 38.1511 20.0373 37.9386 19.9948L37.3503 22.9366C37.4501 22.9565 37.5602 22.9845 37.6811 23.0223L38.576 20.1589ZM37.9587 19.999C37.4874 19.898 36.9687 19.8044 36.4045 19.7176L35.9484 22.6828C36.467 22.7625 36.9269 22.846 37.3301 22.9324L37.9587 19.999ZM36.4089 19.7183C35.7962 19.6222 35.1665 19.5753 34.5211 19.5753V22.5753C35.0209 22.5753 35.4947 22.6116 35.944 22.6821L36.4089 19.7183ZM34.5211 19.5753C33.5096 19.5753 32.5751 19.6537 31.7282 19.823L32.3166 22.7648C32.9273 22.6426 33.6586 22.5753 34.5211 22.5753V19.5753ZM31.7241 19.8238C30.7118 20.0293 29.8278 20.5102 29.1132 21.2546L31.2773 23.3322C31.5622 23.0354 31.8963 22.85 32.3207 22.7639L31.7241 19.8238ZM29.1237 21.2437C28.3743 22.0087 27.9004 23.0442 27.6027 24.199L30.5078 24.9478C30.7307 24.0829 31.0167 23.5983 31.2668 23.343L29.1237 21.2437ZM27.6027 24.199C27.2972 25.3843 27.1648 26.8909 27.1648 28.665H30.1648C30.1648 27.0033 30.2927 25.7823 30.5078 24.9478L27.6027 24.199ZM29.3035 30.0222C29.4037 29.9751 29.5573 29.9143 29.7779 29.8437L28.8636 26.9865C28.5636 27.0825 28.28 27.1883 28.0261 27.3077L29.3035 30.0222ZM29.8114 29.8326C29.9842 29.7727 30.2411 29.7062 30.6008 29.6416L30.0708 26.6888C29.6184 26.77 29.1986 26.8701 28.8301 26.9976L29.8114 29.8326ZM30.6008 29.6416C30.9412 29.5805 31.3712 29.5285 31.899 29.4894L31.6774 26.4976C31.0808 26.5417 30.5425 26.6042 30.0708 26.6888L30.6008 29.6416ZM31.9265 29.4871C32.4291 29.4405 33.052 29.4154 33.8027 29.4154V26.4154C32.9918 26.4154 32.2717 26.4423 31.6499 26.4998L31.9265 29.4871ZM33.8027 29.4154C34.8947 29.4154 35.8182 29.4895 36.5843 29.6263L37.1117 26.673C36.1287 26.4974 35.022 26.4154 33.8027 26.4154V29.4154ZM36.6014 29.6292C37.3224 29.7494 37.8401 29.9549 38.2074 30.1976L39.8612 27.6946C39.0625 27.1668 38.1226 26.8414 37.0946 26.67L36.6014 29.6292ZM38.2333 30.2143C38.5638 30.423 38.8115 30.7067 38.9875 31.109L41.736 29.9065C41.3289 28.9761 40.6917 28.2187 39.8353 27.6778L38.2333 30.2143ZM38.9954 31.1268C39.1809 31.5362 39.3146 32.1547 39.3146 33.0533H42.3146C42.3146 31.8904 42.1464 30.812 41.728 29.8886L38.9954 31.1268ZM39.3146 33.0533C39.3146 33.4946 39.2324 33.9267 39.0611 34.3587L41.8498 35.4646C42.1574 34.6889 42.3146 33.882 42.3146 33.0533H39.3146ZM39.056 34.3715C38.9276 34.7044 38.7028 35.0292 38.3309 35.3439L40.2687 37.634C40.9795 37.0325 41.5252 36.3057 41.8548 35.4518L39.056 34.3715ZM38.3199 35.3532C37.9774 35.6487 37.4713 35.9344 36.7431 36.1713L37.6712 39.0241C38.6713 38.6988 39.5603 38.2453 40.2796 37.6247L38.3199 35.3532ZM36.7431 36.1713C36.0753 36.3885 35.176 36.5194 34.0057 36.5194V39.5194C35.3758 39.5194 36.6108 39.3691 37.6712 39.0241L36.7431 36.1713ZM34.0057 36.5194C32.9134 36.5194 32.0775 36.3815 31.4561 36.1563L30.4337 38.9767C31.478 39.3553 32.6827 39.5194 34.0057 39.5194V36.5194ZM31.4716 36.162C30.9076 35.9505 30.4691 35.6179 30.1232 35.1475L27.7062 36.9246C28.4014 37.8701 29.3163 38.5578 30.4182 38.971L31.4716 36.162ZM30.1317 35.1591C29.7816 34.6733 29.4773 33.9646 29.2768 32.9621L26.335 33.5504C26.5926 34.8384 27.0275 35.9828 27.6977 36.913L30.1317 35.1591ZM29.2773 32.9647C29.0734 31.9359 28.9623 30.6242 28.9623 29.0085H25.9623C25.9623 30.7452 26.0803 32.2654 26.3345 33.5479L29.2773 32.9647ZM27.1648 29.4927C27.1648 30.9661 27.2616 32.2567 27.4738 33.3413L30.418 32.7652C30.2554 31.9342 30.1648 30.851 30.1648 29.4927H27.1648ZM27.4738 33.3413C27.6894 34.4432 28.0638 35.4393 28.6647 36.2454L31.0699 34.4524C30.8172 34.1133 30.5772 33.579 30.418 32.7652L27.4738 33.3413ZM28.6647 36.2454C29.2709 37.0586 30.0703 37.6449 31.0257 37.9923L32.0509 35.1729C31.632 35.0206 31.3175 34.7844 31.0699 34.4524L28.6647 36.2454ZM31.0447 37.9991C31.9375 38.3102 32.9589 38.4418 34.0682 38.4418V35.4418C33.1785 35.4418 32.5134 35.334 32.0319 35.1662L31.0447 37.9991ZM34.0682 38.4418C35.2529 38.4418 36.3255 38.3193 37.2412 38.0274L36.3298 35.1691C35.8088 35.3353 35.0698 35.4418 34.0682 35.4418V38.4418ZM37.2412 38.0274C38.096 37.7548 38.8718 37.3648 39.4912 36.8074L37.4843 34.5775C37.2708 34.7697 36.9118 34.9836 36.3298 35.1691L37.2412 38.0274ZM39.4774 36.8196C40.0751 36.2948 40.533 35.6568 40.7946 34.9047L37.9611 33.9191C37.8896 34.1249 37.754 34.3405 37.498 34.5653L39.4774 36.8196ZM40.7946 34.9047C41.0167 34.2663 41.1277 33.6052 41.1277 32.9283H38.1277C38.1277 33.2718 38.0723 33.5996 37.9611 33.9191L40.7946 34.9047ZM41.1277 32.9283C41.1277 31.9356 40.9977 30.9894 40.6264 30.1983L37.9107 31.4731C38.0183 31.7022 38.1277 32.1512 38.1277 32.9283H41.1277ZM40.6313 30.2088C40.2617 29.4054 39.678 28.7658 38.9015 28.3363L37.4493 30.9614C37.6514 31.0732 37.7965 31.2249 37.9058 31.4625L40.6313 30.2088ZM38.9135 28.343C38.204 27.9419 37.3839 27.728 36.5131 27.6409L36.2146 30.626C36.8014 30.6847 37.189 30.8143 37.4373 30.9547L38.9135 28.343ZM36.5342 27.6432C35.7338 27.5517 34.8208 27.5085 33.8027 27.5085V30.5085C34.742 30.5085 35.5364 30.5487 36.1935 30.6238L36.5342 27.6432ZM33.8027 27.5085C33.1241 27.5085 32.5051 27.5247 31.9482 27.5581L32.1279 30.5527C32.6121 30.5236 33.1695 30.5085 33.8027 30.5085V27.5085ZM31.9781 27.5566C31.4249 27.5787 30.9133 27.6179 30.4465 27.6763L30.8186 30.6531C31.1846 30.6074 31.61 30.5737 32.098 30.5542L31.9781 27.5566ZM30.4795 27.6725C30.0393 27.7177 29.6297 27.7756 29.2543 27.8482L29.8244 30.7935C30.0945 30.7413 30.4137 30.695 30.7856 30.6569L30.4795 27.6725ZM29.3005 27.84C28.9483 27.8968 28.6188 27.9611 28.3148 28.0341L29.0149 30.9512C29.2314 30.8993 29.485 30.849 29.7782 30.8017L29.3005 27.84Z" fill="#72E3A2"/>
</svg>
