<svg width="68" height="114" viewBox="0 0 68 114" fill="none" xmlns="http://www.w3.org/2000/svg">
<path d="M38.22 6.67981C47.9333 1.11981 55.21 -0.510184 60.05 1.78982C64.89 4.08982 67.3167 10.7765 67.33 21.8498L67.45 83.3198L61.1 86.9998L59.6 71.8098L59.11 72.0898C57.1973 76.653 54.8885 81.0397 52.21 85.1998C49.3615 89.5801 46.0048 93.6081 42.21 97.1998C37.8685 101.271 33.0462 104.797 27.85 107.7C22.15 110.96 17.2767 112.763 13.23 113.11C9.18334 113.456 6.05667 112.373 3.85001 109.86C1.67667 107.286 0.583341 103.333 0.570007 97.9998C0.570007 88.8932 4.19334 79.8932 11.44 70.9998C18.6867 62.1065 29.13 53.4398 42.77 44.9998L59.21 34.6798V27.9998C59.21 18.6131 57.4067 12.9465 53.8 10.9998C50.1933 9.05315 44.8933 10.0931 37.9 14.1198C33.2327 16.8078 28.8327 19.9354 24.76 23.4598C20.2642 27.3857 16.0034 31.5729 12 35.9998L9.38001 30.4098C13.6716 25.8329 18.2188 21.5026 23 17.4398C27.7308 13.3917 32.8259 9.78968 38.22 6.67981ZM59.14 41.3898L43.68 50.9198C32.44 57.9131 23.8967 64.8832 18.05 71.8298C12.2033 78.7765 9.28001 85.8498 9.28001 93.0498C9.28001 98.8498 11.04 102.29 14.56 103.37C18.08 104.45 22.9533 103.21 29.18 99.6498C38.8867 94.0898 46.3033 86.9765 51.43 78.3098C56.4745 69.8803 59.1455 60.2434 59.16 50.4198L59.14 41.3898Z" fill="#919191"/>
</svg>
