<svg width="64" height="154" viewBox="0 0 64 154" fill="none" xmlns="http://www.w3.org/2000/svg">
<path d="M9.76994 4.80016L9.18996 41.4902C9.14329 44.6502 9.0433 48.0835 8.88997 51.7902C8.73997 55.5102 8.59996 58.5802 8.46996 61.0202L8.86995 61.2502C10.7099 56.6702 13.82 53.7902 18.22 52.6402C22.62 51.4902 28.05 52.7602 34.53 56.4902C44.01 61.9502 51.2666 70.1202 56.2999 81.0002C61.3333 91.8801 63.7299 104.96 63.4899 120.24C63.3366 129.573 62.0433 137.11 59.6099 142.85C57.1766 148.59 53.64 152.11 49 153.41C44.3333 154.743 38.5666 153.41 31.7 149.41C25.7157 146.035 20.5469 141.385 16.56 135.79C12.825 130.6 9.98879 124.82 8.16997 118.69L7.62996 118.38L6.10994 133.01L0.949951 130.01L2.99995 0.910156L9.76994 4.80016ZM33.6799 63.3702C27.9133 60.0368 23.1933 58.8735 19.5199 59.8802C15.8466 60.8868 13.1166 63.8268 11.3299 68.7001C9.52994 73.5801 8.56328 80.2468 8.42995 88.7001V90.0302C8.22995 102.483 9.89661 113.03 13.4299 121.67C16.8773 130.153 23.1136 137.208 31.1099 141.67C39.2366 146.337 45.45 146.437 49.75 141.97C54.05 137.503 56.2966 128.897 56.4899 116.15C56.6899 103.143 54.8999 92.2135 51.1199 83.3602C47.6825 74.9483 41.5479 67.9167 33.6799 63.3702Z" fill="#BCBCBC"/>
</svg>
