<svg width="323" height="91" viewBox="0 0 323 91" fill="none" xmlns="http://www.w3.org/2000/svg">
<g filter="url(#filter0_d_315_544)">
<rect x="11" y="11" width="301" height="69" rx="34.5" fill="white"/>
</g>
<path d="M90.75 45C90.75 57.9787 80.2287 68.5 67.25 68.5C54.2713 68.5 43.75 57.9787 43.75 45C43.75 32.0213 54.2713 21.5 67.25 21.5C80.2287 21.5 90.75 32.0213 90.75 45Z" fill="#574A48" stroke="#767676"/>
<path d="M153.75 45C153.75 57.9787 143.229 68.5 130.25 68.5C117.271 68.5 106.75 57.9787 106.75 45C106.75 32.0213 117.271 21.5 130.25 21.5C143.229 21.5 153.75 32.0213 153.75 45Z" fill="#A92A2A" stroke="#767676"/>
<path d="M216.75 45C216.75 57.9787 206.229 68.5 193.25 68.5C180.271 68.5 169.75 57.9787 169.75 45C169.75 32.0213 180.271 21.5 193.25 21.5C206.229 21.5 216.75 32.0213 216.75 45Z" fill="#C8C8C8" stroke="#767676"/>
<path d="M279.75 45C279.75 57.9787 269.229 68.5 256.25 68.5C243.271 68.5 232.75 57.9787 232.75 45C232.75 32.0213 243.271 21.5 256.25 21.5C269.229 21.5 279.75 32.0213 279.75 45Z" fill="#FCFCFC" stroke="#767676"/>
<defs>
<filter id="filter0_d_315_544" x="0" y="0" width="323" height="91" filterUnits="userSpaceOnUse" color-interpolation-filters="sRGB">
<feFlood flood-opacity="0" result="BackgroundImageFix"/>
<feColorMatrix in="SourceAlpha" type="matrix" values="0 0 0 0 0 0 0 0 0 0 0 0 0 0 0 0 0 0 127 0" result="hardAlpha"/>
<feMorphology radius="1" operator="dilate" in="SourceAlpha" result="effect1_dropShadow_315_544"/>
<feOffset/>
<feGaussianBlur stdDeviation="5"/>
<feComposite in2="hardAlpha" operator="out"/>
<feColorMatrix type="matrix" values="0 0 0 0 0.668142 0 0 0 0 0.841187 0 0 0 0 0.895833 0 0 0 1 0"/>
<feBlend mode="normal" in2="BackgroundImageFix" result="effect1_dropShadow_315_544"/>
<feBlend mode="normal" in="SourceGraphic" in2="effect1_dropShadow_315_544" result="shape"/>
</filter>
</defs>
</svg>
