<svg width="68" height="68" viewBox="0 0 68 68" fill="none" xmlns="http://www.w3.org/2000/svg">
<path d="M34 68C52.7777 68 68 52.7777 68 34C68 15.2223 52.7777 0 34 0C15.2223 0 0 15.2223 0 34C0 52.7777 15.2223 68 34 68Z" fill="#FCFCFC"/>
<path d="M49.58 19L30.65 49L18.42 38.44" stroke="#72E3A2" stroke-width="2" stroke-linecap="round" stroke-linejoin="round"/>
<path d="M34 68C52.7777 68 68 52.7777 68 34C68 15.2223 52.7777 0 34 0C15.2223 0 0 15.2223 0 34C0 52.7777 15.2223 68 34 68Z" fill="#FCFCFC"/>
<path d="M49.58 19L30.65 49L18.42 38.44" stroke="#72E3A2" stroke-width="3" stroke-linecap="round" stroke-linejoin="round"/>
<path d="M34 68C52.7777 68 68 52.7777 68 34C68 15.2223 52.7777 0 34 0C15.2223 0 0 15.2223 0 34C0 52.7777 15.2223 68 34 68Z" fill="#FCFCFC"/>
<path d="M49.58 19L30.65 49L18.42 38.44" stroke="#72E3A2" stroke-width="3" stroke-linecap="round" stroke-linejoin="round"/>
</svg>
