<svg width="687" height="439" viewBox="0 0 687 439" fill="none" xmlns="http://www.w3.org/2000/svg">
<path d="M57.8721 246.486V264.821L359.869 439V420.671L57.8721 246.486Z" fill="#BCBCBC"/>
<path d="M57.8721 246.486L359.869 420.671L677.76 237.313L375.763 63.1339L57.8721 246.486Z" fill="#A7A7A7"/>
<path d="M359.869 439L677.76 255.648V237.313L359.869 420.665V439Z" fill="#919191"/>
<path d="M34.4224 420.671L37.0874 418.945" stroke="#D3B93C" stroke-width="80" stroke-miterlimit="10"/>
<path d="M42.4226 415.499L647.513 24.7073" stroke="#D3B93C" stroke-width="80" stroke-miterlimit="10" stroke-dasharray="11.98 11.98"/>
<path d="M650.178 22.9871L652.848 21.2617" stroke="#D3B93C" stroke-width="80" stroke-miterlimit="10"/>
<path d="M39.8106 417.188L42.4809 415.462" stroke="#303030" stroke-width="80" stroke-miterlimit="10"/>
<path d="M47.8109 412.022L652.901 21.2246" stroke="#303030" stroke-width="80" stroke-miterlimit="10" stroke-dasharray="11.98 11.98"/>
<path d="M655.571 19.5044L658.241 17.7789" stroke="#303030" stroke-width="80" stroke-miterlimit="10"/>
<path d="M9.24005 69.6972L12.1011 71.0786" stroke="#D3B93C" stroke-width="80" stroke-miterlimit="10"/>
<path d="M17.8125 73.8468L666.268 387.648" stroke="#D3B93C" stroke-width="80" stroke-miterlimit="10" stroke-dasharray="11.98 11.98"/>
<path d="M669.124 389.03L671.985 390.416" stroke="#D3B93C" stroke-width="80" stroke-miterlimit="10"/>
<path d="M15.0151 72.4918L17.8761 73.8786" stroke="#303030" stroke-width="80" stroke-miterlimit="10"/>
<path d="M23.5875 76.6415L672.043 390.443" stroke="#303030" stroke-width="80" stroke-miterlimit="10" stroke-dasharray="11.98 11.98"/>
<path d="M674.899 391.829L677.76 393.211" stroke="#303030" stroke-width="80" stroke-miterlimit="10"/>
<path d="M335.047 40.0621L154.935 351.709H515.159L335.047 40.0621L154.935 351.709H515.159L335.047 40.0621Z" fill="#EDDE00"/>
<path d="M335.047 40.0621L154.935 351.709H515.159L335.047 40.0621ZM335.047 40.0621L154.935 351.709H515.159L335.047 40.0621Z" stroke="#303030" stroke-width="30" stroke-miterlimit="10"/>
<path d="M277.185 210.706C277.195 211.967 277.078 213.226 276.836 214.464C276.64 215.501 276.283 216.502 275.776 217.428C275.033 218.634 273.854 219.506 272.482 219.864C271.111 220.222 269.655 220.038 268.417 219.349C267.63 218.871 266.981 218.198 266.531 217.396C266.02 216.47 265.662 215.467 265.471 214.427C265.229 213.192 265.112 211.937 265.121 210.679C265.077 208.939 265.308 207.203 265.805 205.535C266.153 204.316 266.865 203.233 267.845 202.428C268.809 201.707 269.989 201.334 271.193 201.369C272.45 201.318 273.681 201.739 274.642 202.549C275.593 203.436 276.272 204.574 276.602 205.831C277.031 207.419 277.227 209.061 277.185 210.706ZM267.913 210.706C267.89 211.984 268.013 213.261 268.279 214.511C268.438 215.364 268.811 216.162 269.365 216.83C269.592 217.074 269.866 217.268 270.172 217.402C270.477 217.535 270.807 217.603 271.14 217.603C271.473 217.603 271.803 217.535 272.108 217.402C272.414 217.268 272.688 217.074 272.915 216.83C273.456 216.165 273.821 215.375 273.975 214.533C274.238 213.267 274.359 211.977 274.335 210.685C274.335 208.377 274.065 206.646 273.535 205.498C273.005 204.349 272.2 203.772 271.14 203.772C270.802 203.764 270.465 203.83 270.155 203.965C269.845 204.1 269.568 204.302 269.344 204.555C268.799 205.223 268.434 206.02 268.284 206.868C268.014 208.129 267.889 209.417 267.913 210.706Z" fill="#333333"/>
<path d="M286.001 203.777C285.414 203.761 284.84 203.948 284.375 204.307C283.887 204.71 283.502 205.224 283.252 205.805C282.94 206.516 282.721 207.265 282.6 208.033C282.456 208.927 282.386 209.832 282.388 210.738C282.367 211.987 282.518 213.234 282.838 214.443C283.054 215.328 283.5 216.141 284.131 216.798C284.397 217.061 284.713 217.269 285.061 217.409C285.408 217.549 285.78 217.618 286.155 217.613C286.673 217.614 287.189 217.532 287.681 217.37C288.153 217.209 288.613 217.016 289.058 216.793V219.238C288.583 219.498 288.076 219.694 287.548 219.82C286.969 219.956 286.375 220.022 285.779 220.016C284.572 220.047 283.392 219.658 282.441 218.915C281.449 218.077 280.714 216.976 280.322 215.739C279.787 214.12 279.535 212.421 279.575 210.716C279.565 209.479 279.699 208.245 279.972 207.038C280.206 205.991 280.606 204.988 281.159 204.068C281.643 203.257 282.318 202.576 283.125 202.084C283.953 201.601 284.899 201.356 285.858 201.374C286.504 201.373 287.147 201.457 287.771 201.623C288.394 201.795 288.991 202.05 289.546 202.38L288.688 204.651C288.289 204.387 287.86 204.17 287.411 204.005C286.957 203.849 286.481 203.772 286.001 203.777Z" fill="#333333"/>
<path d="M296.608 219.794H293.901V204.053H290.436V201.66H300.063V204.053H296.608V219.794Z" fill="#333333"/>
<path d="M313.684 210.706C313.692 211.967 313.573 213.226 313.329 214.464C313.134 215.501 312.777 216.502 312.27 217.428C311.823 218.248 311.156 218.927 310.343 219.389C309.531 219.851 308.605 220.077 307.671 220.043C306.704 220.071 305.749 219.831 304.911 219.349C304.124 218.871 303.475 218.198 303.025 217.396C302.514 216.47 302.156 215.467 301.965 214.427C301.725 213.192 301.61 211.937 301.62 210.679C301.575 208.94 301.804 207.203 302.299 205.535C302.647 204.316 303.359 203.233 304.338 202.428C305.304 201.706 306.487 201.333 307.692 201.369C308.948 201.318 310.176 201.74 311.136 202.549C312.087 203.436 312.766 204.574 313.096 205.831C313.527 207.419 313.725 209.061 313.684 210.706ZM304.407 210.706C304.384 211.984 304.507 213.261 304.773 214.511C304.924 215.361 305.288 216.159 305.833 216.83C306.059 217.074 306.334 217.268 306.639 217.402C306.945 217.535 307.274 217.603 307.607 217.603C307.941 217.603 308.27 217.535 308.576 217.402C308.881 217.268 309.156 217.074 309.382 216.83C309.928 216.168 310.293 215.377 310.442 214.533C310.706 213.267 310.826 211.977 310.802 210.685C310.802 208.377 310.536 206.648 310.002 205.498C309.469 204.347 308.685 203.774 307.65 203.777C307.311 203.769 306.974 203.835 306.662 203.97C306.351 204.106 306.074 204.307 305.848 204.561C305.303 205.229 304.938 206.025 304.789 206.874C304.518 208.133 304.39 209.418 304.407 210.706Z" fill="#333333"/>
<path d="M320.54 201.66C322.352 201.66 323.719 202.11 324.567 203.021C325.415 203.931 325.881 205.291 325.881 207.117C325.894 207.957 325.779 208.794 325.542 209.6C325.342 210.283 324.997 210.915 324.53 211.452C324.066 211.969 323.484 212.366 322.834 212.611C322.064 212.892 321.249 213.026 320.429 213.008H319.332V219.794H316.604V201.66H320.54ZM320.365 204.005H319.306V210.658H320.138C320.718 210.681 321.296 210.56 321.817 210.304C322.268 210.058 322.615 209.658 322.792 209.176C323.026 208.527 323.134 207.839 323.11 207.149C323.11 206.037 322.882 205.238 322.432 204.746C322.16 204.486 321.836 204.286 321.482 204.159C321.128 204.031 320.751 203.979 320.376 204.005H320.365Z" fill="#333333"/>
<path d="M339.958 210.706C339.969 211.967 339.85 213.227 339.603 214.464C339.413 215.503 339.055 216.504 338.544 217.428C337.802 218.633 336.623 219.506 335.253 219.864C333.883 220.222 332.427 220.038 331.19 219.349C330.402 218.871 329.75 218.199 329.298 217.396C328.785 216.471 328.427 215.468 328.239 214.427C327.997 213.192 327.88 211.937 327.889 210.679C327.845 208.939 328.076 207.203 328.572 205.535C328.921 204.318 329.63 203.235 330.607 202.428C331.573 201.706 332.755 201.333 333.961 201.369C335.216 201.317 336.445 201.739 337.404 202.549C338.357 203.436 339.038 204.574 339.37 205.831C339.801 207.419 339.999 209.061 339.958 210.706ZM330.681 210.706C330.658 211.984 330.78 213.261 331.047 214.511C331.207 215.364 331.582 216.163 332.138 216.83C332.365 217.074 332.639 217.268 332.945 217.402C333.25 217.535 333.58 217.603 333.913 217.603C334.246 217.603 334.576 217.535 334.881 217.402C335.187 217.268 335.461 217.074 335.688 216.83C336.231 216.167 336.596 215.376 336.747 214.533C337.014 213.268 337.135 211.977 337.108 210.685C337.108 208.377 336.841 206.648 336.308 205.498C335.774 204.347 334.98 203.774 333.924 203.777C333.584 203.77 333.248 203.836 332.937 203.971C332.626 204.106 332.348 204.308 332.122 204.561C331.581 205.231 331.217 206.026 331.063 206.874C330.792 208.133 330.664 209.418 330.681 210.706Z" fill="#333333"/>
<path d="M345.632 210.367L341.065 201.66H343.995L348.366 210.367V201.66H351.015V210.367L355.413 201.66H358.306L353.723 210.367L358.369 219.794H355.386L351.015 210.494V219.794H348.366V210.494L343.969 219.794H341.012L345.632 210.367Z" fill="#333333"/>
<path d="M370.582 219.794H367.848V211.537H362.719V219.794H359.991V201.66H362.719V209.129H367.848V201.66H370.582V219.794Z" fill="#333333"/>
<path d="M385.618 210.706C385.628 211.967 385.51 213.227 385.263 214.464C385.073 215.503 384.715 216.504 384.203 217.428C383.462 218.633 382.283 219.506 380.913 219.864C379.542 220.222 378.087 220.038 376.849 219.349C376.062 218.871 375.41 218.199 374.958 217.396C374.445 216.471 374.087 215.468 373.898 214.427C373.646 213.186 373.52 211.924 373.522 210.658C373.478 208.918 373.709 207.182 374.206 205.513C374.554 204.296 375.264 203.213 376.24 202.407C377.206 201.685 378.388 201.312 379.594 201.348C380.849 201.296 382.079 201.717 383.038 202.528C383.99 203.415 384.672 204.552 385.003 205.81C385.445 207.403 385.652 209.053 385.618 210.706ZM376.341 210.706C376.317 211.984 376.44 213.261 376.706 214.511C376.859 215.361 377.224 216.158 377.766 216.83C377.994 217.073 378.269 217.267 378.575 217.4C378.88 217.533 379.21 217.601 379.544 217.601C379.877 217.601 380.207 217.533 380.513 217.4C380.818 217.267 381.094 217.073 381.321 216.83C381.865 216.167 382.229 215.376 382.381 214.533C382.647 213.268 382.768 211.977 382.741 210.685C382.741 208.377 382.474 206.648 381.941 205.498C381.408 204.347 380.622 203.774 379.583 203.777C379.244 203.77 378.907 203.836 378.596 203.971C378.285 204.106 378.007 204.308 377.782 204.561C377.239 205.23 376.874 206.026 376.722 206.874C376.451 208.133 376.323 209.418 376.341 210.706Z" fill="#333333"/>
<path d="M392.919 218.232C392.884 217.745 393.031 217.262 393.332 216.877C393.489 216.713 393.681 216.587 393.894 216.506C394.107 216.425 394.335 216.393 394.561 216.412C394.778 216.401 394.995 216.435 395.198 216.512C395.401 216.588 395.587 216.705 395.743 216.856C396.059 217.242 396.213 217.735 396.172 218.232C396.208 218.725 396.048 219.212 395.727 219.587C395.402 219.884 394.978 220.048 394.537 220.048C394.097 220.048 393.673 219.884 393.348 219.587C393.035 219.208 392.882 218.722 392.919 218.232ZM395.6 214.337H393.48L392.951 201.66H396.039L395.6 214.337Z" fill="#333333"/>
<path d="M399.118 218.232C399.082 217.746 399.227 217.263 399.526 216.877C399.684 216.714 399.876 216.588 400.088 216.508C400.301 216.427 400.528 216.394 400.755 216.412C400.973 216.4 401.19 216.434 401.395 216.511C401.599 216.587 401.785 216.705 401.942 216.856C402.258 217.242 402.412 217.735 402.371 218.232C402.389 218.477 402.359 218.722 402.282 218.955C402.204 219.188 402.082 219.402 401.921 219.587C401.596 219.883 401.173 220.048 400.734 220.048C400.294 220.048 399.871 219.883 399.547 219.587C399.234 219.208 399.081 218.722 399.118 218.232ZM401.799 214.337H399.679L399.15 201.66H402.244L401.799 214.337Z" fill="#333333"/>
<path d="M405.311 218.232C405.276 217.745 405.424 217.262 405.725 216.877C405.882 216.713 406.074 216.587 406.287 216.506C406.499 216.425 406.727 216.393 406.954 216.412C407.171 216.399 407.388 216.432 407.592 216.508C407.795 216.585 407.98 216.704 408.135 216.856C408.452 217.242 408.605 217.735 408.564 218.232C408.601 218.725 408.441 219.212 408.119 219.587C407.794 219.884 407.37 220.048 406.93 220.048C406.49 220.048 406.065 219.884 405.74 219.587C405.428 219.208 405.274 218.722 405.311 218.232ZM407.992 214.337H405.873L405.343 201.66H408.49L407.992 214.337Z" fill="#333333"/>
<path d="M243.129 262.635H245.778V272.31C245.778 272.559 245.778 272.839 245.778 273.093C245.778 273.348 245.778 273.66 245.751 273.977C245.725 274.295 245.751 274.644 245.709 275.036C245.666 275.428 245.666 275.814 245.64 276.253H245.741L251.526 262.656H254.843V280.789H252.194V270.886C252.194 270.622 252.194 270.357 252.194 270.045C252.194 269.732 252.194 269.447 252.226 269.124C252.257 268.801 252.257 268.457 252.284 268.097C252.31 267.737 252.337 267.367 252.369 266.975H252.268L246.44 280.768H243.129V262.635Z" fill="#333333"/>
<path d="M266.954 267.012V278.54H268.422V285.622H265.89V280.768H259.357V285.622H256.798V278.54H257.926C258.389 277.413 258.759 276.25 259.034 275.062C259.34 273.764 259.575 272.449 259.738 271.124C259.915 269.76 260.023 268.387 260.062 267.012H266.954ZM264.358 269.235H262.313C262.271 270.241 262.188 271.262 262.064 272.3C261.937 273.332 261.762 274.369 261.534 275.412C261.295 276.473 260.989 277.517 260.618 278.54H264.38L264.358 269.235Z" fill="#333333"/>
<path d="M274.557 266.763C275.447 266.731 276.32 267.01 277.026 267.552C277.72 268.12 278.237 268.875 278.515 269.727C278.863 270.749 279.031 271.824 279.013 272.903V274.491H272.454C272.454 275.946 272.714 277.031 273.185 277.746C273.415 278.092 273.732 278.371 274.104 278.557C274.476 278.743 274.889 278.828 275.304 278.805C275.831 278.805 276.354 278.727 276.857 278.572C277.418 278.393 277.952 278.14 278.446 277.82V280.054C277.94 280.359 277.392 280.589 276.82 280.736C276.221 280.888 275.605 280.963 274.987 280.959C273.933 281.007 272.894 280.695 272.041 280.075C271.254 279.435 270.682 278.571 270.398 277.598C270.028 276.398 269.849 275.148 269.868 273.893C269.84 272.566 270.018 271.242 270.398 269.971C270.675 269.02 271.228 268.172 271.988 267.536C272.729 266.989 273.637 266.716 274.557 266.763ZM274.594 268.843C274.286 268.841 273.982 268.923 273.717 269.081C273.452 269.238 273.235 269.466 273.09 269.738C272.659 270.612 272.45 271.579 272.48 272.554H276.592C276.6 271.912 276.525 271.271 276.369 270.648C276.257 270.161 276.028 269.709 275.702 269.33C275.561 269.18 275.389 269.062 275.197 268.984C275.006 268.906 274.801 268.871 274.594 268.88V268.843Z" fill="#333333"/>
<path d="M288.513 269.235H285.694V280.768H283.087V269.235H280.242V267.012H288.513V269.235Z" fill="#333333"/>
<path d="M299.348 281.017C298.385 281.052 297.437 280.78 296.64 280.239C295.878 279.642 295.322 278.822 295.051 277.894C294.341 275.369 294.341 272.697 295.051 270.172C295.336 269.194 295.897 268.319 296.667 267.652C297.455 267.035 298.437 266.716 299.438 266.753C299.974 266.749 300.508 266.817 301.027 266.954C301.501 267.082 301.955 267.272 302.378 267.52L301.61 269.637C301.293 269.448 300.953 269.3 300.598 269.198C300.272 269.104 299.935 269.056 299.597 269.055C299.347 269.05 299.099 269.097 298.868 269.192C298.637 269.288 298.429 269.431 298.256 269.611C297.841 270.078 297.554 270.645 297.424 271.257C297.215 272.144 297.119 273.055 297.138 273.967C297.121 274.857 297.215 275.746 297.419 276.613C297.548 277.208 297.835 277.756 298.251 278.201C298.432 278.377 298.647 278.514 298.883 278.605C299.119 278.696 299.37 278.739 299.623 278.73C300.056 278.73 300.485 278.658 300.895 278.519C301.342 278.368 301.769 278.164 302.166 277.91V280.133C301.757 280.425 301.3 280.644 300.815 280.779C300.339 280.923 299.845 281.003 299.348 281.017Z" fill="#333333"/>
<path d="M311.459 269.235H308.641V280.768H306.034V269.235H303.189V267.012H311.459V269.235Z" fill="#333333"/>
<path d="M318.908 266.763C319.53 266.751 320.143 266.916 320.674 267.24C321.205 267.563 321.633 268.031 321.907 268.589C322.614 269.803 322.967 271.576 322.967 273.909C322.994 275.203 322.837 276.495 322.501 277.746C322.275 278.664 321.811 279.505 321.155 280.186C320.875 280.459 320.543 280.674 320.179 280.818C319.816 280.963 319.427 281.034 319.036 281.028C318.609 281.032 318.187 280.947 317.796 280.779C317.398 280.615 317.037 280.372 316.736 280.064C316.412 279.724 316.144 279.335 315.941 278.91H315.83C315.862 279.339 315.888 279.726 315.904 280.075C315.92 280.424 315.904 280.726 315.904 280.991V286.876H313.292V267.028H315.412L315.772 268.939H315.91C316.12 268.476 316.4 268.05 316.741 267.674C317.016 267.375 317.352 267.14 317.727 266.985C318.103 266.837 318.504 266.761 318.908 266.763ZM318.188 268.997C317.955 268.989 317.722 269.028 317.504 269.111C317.286 269.193 317.086 269.318 316.916 269.478C316.535 269.893 316.275 270.403 316.164 270.955C315.983 271.791 315.901 272.646 315.92 273.501V274.173C315.901 275.044 315.983 275.915 316.164 276.767C316.272 277.33 316.535 277.852 316.922 278.275C317.092 278.438 317.293 278.564 317.514 278.648C317.734 278.732 317.968 278.77 318.204 278.762C318.424 278.765 318.643 278.72 318.844 278.628C319.044 278.536 319.222 278.401 319.364 278.233C319.728 277.771 319.969 277.225 320.063 276.645C320.239 275.753 320.319 274.844 320.302 273.935C320.361 272.68 320.192 271.425 319.804 270.23C319.708 269.874 319.499 269.56 319.207 269.335C318.915 269.11 318.557 268.988 318.188 268.986V268.997Z" fill="#333333"/>
<path d="M334.755 273.861C334.763 274.816 334.667 275.769 334.469 276.703C334.305 277.503 334.01 278.27 333.595 278.974C333.224 279.597 332.698 280.115 332.069 280.477C331.382 280.849 330.609 281.031 329.828 281.006C329.073 281.025 328.327 280.843 327.666 280.477C327.043 280.111 326.521 279.596 326.146 278.979C325.718 278.279 325.414 277.511 325.245 276.709C325.037 275.77 324.935 274.811 324.943 273.85C324.923 272.576 325.101 271.306 325.473 270.087C325.747 269.125 326.3 268.264 327.062 267.615C327.87 267.016 328.86 266.715 329.865 266.763C330.806 266.738 331.729 267.027 332.488 267.584C333.273 268.2 333.859 269.034 334.173 269.981C334.59 271.231 334.788 272.544 334.755 273.861ZM327.592 273.887C327.577 274.795 327.657 275.701 327.831 276.592C327.936 277.194 328.193 277.758 328.578 278.233C328.741 278.41 328.94 278.549 329.163 278.64C329.385 278.731 329.625 278.773 329.865 278.762C330.103 278.772 330.34 278.73 330.56 278.639C330.779 278.547 330.976 278.409 331.137 278.233C331.515 277.76 331.764 277.196 331.857 276.597C332.025 275.693 332.102 274.775 332.085 273.856C332.101 272.95 332.025 272.046 331.857 271.156C331.762 270.561 331.514 270.001 331.137 269.531C330.973 269.355 330.774 269.217 330.551 269.125C330.329 269.034 330.089 268.992 329.849 269.002C329.47 268.996 329.099 269.11 328.789 269.328C328.478 269.546 328.245 269.856 328.122 270.214C327.709 271.393 327.529 272.64 327.592 273.887Z" fill="#333333"/>
<path d="M339.82 267.012V273.723C339.82 274.004 339.82 274.279 339.82 274.544C339.82 274.808 339.82 275.073 339.82 275.343C339.82 275.613 339.794 275.872 339.773 276.185C339.752 276.497 339.73 276.793 339.704 277.121L344.091 267.012H346.957V280.773H344.462V274.136C344.462 273.755 344.462 273.369 344.462 272.988C344.462 272.607 344.493 272.215 344.515 271.834C344.536 271.453 344.557 271.056 344.584 270.659L340.186 280.768H337.32V267.007L339.82 267.012Z" fill="#333333"/>
<path d="M357.045 269.235H354.226V280.768H351.619V269.235H348.774V267.012H357.045V269.235Z" fill="#333333"/>
<path d="M363.032 266.763C363.922 266.73 364.795 267.009 365.501 267.552C366.195 268.12 366.711 268.875 366.989 269.727C367.337 270.749 367.505 271.824 367.488 272.903V274.491H360.934C360.934 275.946 361.188 277.031 361.66 277.746C361.89 278.092 362.206 278.371 362.578 278.557C362.95 278.743 363.364 278.828 363.779 278.805C364.305 278.806 364.828 278.727 365.331 278.572C365.892 278.392 366.426 278.139 366.921 277.82V280.054C366.414 280.357 365.866 280.587 365.294 280.736C364.693 280.888 364.075 280.963 363.456 280.959C362.402 281.006 361.363 280.695 360.51 280.075C359.725 279.433 359.153 278.57 358.867 277.598C358.497 276.398 358.318 275.148 358.338 273.893C358.309 272.566 358.488 271.242 358.867 269.971C359.146 269.021 359.699 268.174 360.457 267.536C361.2 266.988 362.11 266.715 363.032 266.763ZM363.069 268.843C362.76 268.841 362.457 268.923 362.192 269.081C361.926 269.238 361.709 269.466 361.564 269.738C361.134 270.612 360.924 271.579 360.955 272.554H365.045C365.053 271.912 364.978 271.271 364.823 270.648C364.708 270.163 364.481 269.711 364.16 269.33C364.02 269.183 363.85 269.067 363.662 268.989C363.474 268.912 363.272 268.875 363.069 268.88V268.843Z" fill="#333333"/>
<path d="M378.577 280.768H375.97V269.335H373.623C373.517 271.373 373.379 273.131 373.215 274.597C373.094 275.817 372.869 277.025 372.542 278.206C372.353 278.979 371.976 279.694 371.445 280.287C371.22 280.508 370.952 280.682 370.658 280.797C370.364 280.913 370.05 280.968 369.734 280.959C369.513 280.96 369.293 280.938 369.077 280.895C368.878 280.855 368.683 280.797 368.494 280.721V278.503C368.582 278.555 368.676 278.594 368.775 278.619C368.891 278.647 369.01 278.662 369.13 278.662C369.272 278.652 369.41 278.605 369.528 278.525C369.646 278.445 369.741 278.335 369.803 278.206C370.05 277.782 370.228 277.321 370.333 276.841C370.512 276.08 370.645 275.31 370.73 274.533C370.839 273.609 370.935 272.518 371.016 271.262C371.09 270.008 371.159 268.616 371.217 267.028H378.582L378.577 280.768Z" fill="#333333"/>
<path d="M384.288 272.495H385.443C386.347 272.467 387.248 272.62 388.092 272.945C388.754 273.209 389.312 273.681 389.682 274.29C390.062 274.982 390.245 275.766 390.211 276.555C390.241 277.366 390.058 278.17 389.682 278.889C389.326 279.514 388.778 280.008 388.119 280.297C387.325 280.633 386.469 280.794 385.607 280.768H381.681V267.007H384.288V272.495ZM387.615 276.677C387.649 276.099 387.46 275.531 387.086 275.089C386.873 274.893 386.622 274.742 386.348 274.647C386.075 274.551 385.785 274.512 385.496 274.533H384.288V278.767H385.507C385.794 278.79 386.082 278.754 386.355 278.663C386.628 278.572 386.88 278.428 387.096 278.238C387.286 278.028 387.43 277.781 387.52 277.512C387.609 277.243 387.642 276.959 387.615 276.677Z" fill="#333333"/>
<path d="M396.908 281.017C395.946 281.053 394.997 280.78 394.201 280.239C393.439 279.642 392.884 278.822 392.612 277.894C392.225 276.624 392.046 275.299 392.082 273.972C392.057 272.685 392.235 271.403 392.612 270.172C392.895 269.192 393.459 268.317 394.233 267.652C395.018 267.033 395.999 266.714 396.998 266.753C397.535 266.749 398.069 266.817 398.588 266.954C399.062 267.081 399.516 267.271 399.939 267.52L399.171 269.637C398.854 269.448 398.514 269.3 398.159 269.198C397.833 269.104 397.496 269.056 397.157 269.055C396.908 269.05 396.66 269.097 396.429 269.192C396.198 269.288 395.99 269.431 395.817 269.611C395.402 270.078 395.115 270.646 394.985 271.257C394.776 272.144 394.68 273.055 394.699 273.967C394.682 274.857 394.776 275.746 394.98 276.613C395.111 277.207 395.398 277.755 395.812 278.201C395.993 278.376 396.208 278.514 396.444 278.604C396.68 278.695 396.931 278.738 397.184 278.73C397.616 278.73 398.046 278.658 398.455 278.519C398.904 278.367 399.332 278.163 399.732 277.91V280.133C399.321 280.425 398.862 280.644 398.376 280.779C397.9 280.924 397.406 281.004 396.908 281.017Z" fill="#333333"/>
<path d="M409.02 269.235H406.201V280.768H403.595V269.235H400.75V267.012H409.02V269.235Z" fill="#333333"/>
<path d="M419.468 270.468C419.498 271.168 419.313 271.861 418.938 272.453C418.568 273 417.997 273.381 417.349 273.512V273.612C417.704 273.661 418.046 273.78 418.356 273.961C418.665 274.143 418.935 274.384 419.15 274.671C419.594 275.286 419.821 276.03 419.797 276.788C419.818 277.549 419.647 278.302 419.299 278.979C418.963 279.579 418.445 280.057 417.82 280.345C417.053 280.675 416.223 280.832 415.389 280.805H410.869V267.044H415.251C416.044 267.02 416.834 267.151 417.577 267.43C418.158 267.649 418.652 268.052 418.981 268.579C419.316 269.151 419.484 269.805 419.468 270.468ZM416.851 270.78C416.866 270.547 416.834 270.313 416.757 270.092C416.679 269.871 416.558 269.667 416.4 269.494C416.021 269.173 415.529 269.015 415.034 269.055H413.497V272.585H415.187C415.42 272.605 415.653 272.574 415.872 272.493C416.091 272.413 416.29 272.285 416.453 272.12C416.742 271.727 416.883 271.245 416.851 270.759V270.78ZM417.174 276.523C417.2 276.254 417.169 275.983 417.086 275.726C417.002 275.47 416.866 275.233 416.687 275.031C416.283 274.7 415.767 274.537 415.245 274.576H413.497V278.757H415.208C415.479 278.781 415.752 278.747 416.008 278.655C416.265 278.564 416.498 278.418 416.692 278.228C417.06 277.731 417.231 277.117 417.174 276.502V276.523Z" fill="#333333"/>
<path d="M431.553 273.861C431.561 274.816 431.465 275.769 431.267 276.703C431.104 277.504 430.806 278.272 430.388 278.974C430.016 279.597 429.491 280.115 428.862 280.477C428.175 280.849 427.401 281.031 426.621 281.006C425.866 281.025 425.12 280.843 424.459 280.477C423.839 280.108 423.317 279.594 422.938 278.979C422.513 278.278 422.209 277.51 422.038 276.709C421.834 275.77 421.734 274.811 421.741 273.85C421.721 272.576 421.899 271.306 422.271 270.087C422.543 269.124 423.097 268.263 423.86 267.615C424.661 267.009 425.648 266.7 426.652 266.742C427.602 266.714 428.534 267.002 429.302 267.562C430.085 268.179 430.669 269.013 430.981 269.96C431.401 271.216 431.594 272.537 431.553 273.861ZM424.385 273.887C424.368 274.795 424.45 275.702 424.629 276.592C424.729 277.195 424.987 277.761 425.376 278.233C425.538 278.409 425.737 278.547 425.958 278.639C426.18 278.73 426.418 278.772 426.658 278.762C426.896 278.775 427.134 278.734 427.354 278.642C427.574 278.551 427.771 278.411 427.929 278.233C428.308 277.76 428.556 277.196 428.65 276.597C428.82 275.694 428.898 274.775 428.883 273.856C428.898 272.95 428.819 272.046 428.65 271.156C428.555 270.561 428.307 270.001 427.929 269.531C427.767 269.355 427.568 269.216 427.347 269.125C427.125 269.033 426.887 268.991 426.647 269.002C426.268 268.995 425.896 269.109 425.586 269.327C425.275 269.545 425.042 269.855 424.92 270.214C424.504 271.392 424.322 272.64 424.385 273.887Z" fill="#333333"/>
<path d="M277.201 297.499V309.027H278.685V316.109H276.152V311.255H269.598V316.109H267.029V309.027H268.157C268.618 307.9 268.986 306.737 269.259 305.55C269.567 304.251 269.804 302.936 269.969 301.612C270.146 300.246 270.253 298.875 270.292 297.499H277.201ZM274.605 299.722H272.555C272.512 300.728 272.433 301.749 272.306 302.787C272.178 303.824 272.004 304.856 271.776 305.899C271.537 306.961 271.229 308.006 270.854 309.027H274.605V299.722Z" fill="#333333"/>
<path d="M289.927 304.343C289.935 305.298 289.839 306.251 289.641 307.185C289.477 307.985 289.182 308.752 288.767 309.456C288.396 310.079 287.87 310.597 287.241 310.959C286.554 311.33 285.781 311.513 285 311.488C284.245 311.507 283.499 311.325 282.838 310.959C282.223 310.595 281.707 310.086 281.334 309.477C280.906 308.777 280.602 308.009 280.433 307.206C280.227 306.268 280.127 305.309 280.136 304.348C280.116 303.074 280.295 301.804 280.666 300.585C280.94 299.622 281.493 298.762 282.256 298.113C283.059 297.507 284.048 297.199 285.053 297.24C286.003 297.209 286.936 297.498 287.702 298.06C288.487 298.677 289.073 299.511 289.387 300.458C289.791 301.712 289.974 303.026 289.927 304.343ZM282.764 304.343C282.749 305.25 282.829 306.157 283.003 307.048C283.108 307.649 283.365 308.214 283.75 308.688C283.913 308.865 284.112 309.004 284.335 309.095C284.557 309.187 284.797 309.229 285.037 309.218C285.275 309.228 285.512 309.186 285.732 309.094C285.952 309.003 286.148 308.864 286.309 308.688C286.687 308.215 286.936 307.651 287.029 307.053C287.198 306.149 287.274 305.23 287.257 304.311C287.273 303.406 287.197 302.501 287.029 301.612C286.935 301.017 286.686 300.457 286.309 299.987C286.145 299.811 285.946 299.672 285.723 299.581C285.501 299.489 285.261 299.447 285.021 299.457C284.643 299.451 284.272 299.565 283.962 299.783C283.653 300.001 283.421 300.311 283.299 300.67C282.877 301.857 282.696 303.116 282.764 304.375V304.343Z" fill="#333333"/>
<path d="M304.731 297.499V311.261H302.235V304.3C302.235 303.845 302.251 303.305 302.283 302.681C302.315 302.056 302.362 301.379 302.421 300.654H302.32L299.613 311.24H297.541L294.844 300.654H294.743C294.786 301.321 294.823 301.972 294.86 302.607C294.897 303.242 294.908 303.792 294.908 304.274V311.255H292.46V297.494H296.169L298.606 307.28L301.075 297.494L304.731 297.499Z" fill="#333333"/>
<path d="M312.063 297.24C313.37 297.24 314.334 297.649 314.956 298.468C315.581 299.288 315.888 300.484 315.888 302.067V311.255H313.955L313.541 309.36H313.483C313.257 309.789 312.976 310.186 312.646 310.541C312.349 310.855 311.987 311.103 311.586 311.266C311.149 311.433 310.683 311.514 310.214 311.504C309.564 311.533 308.925 311.324 308.418 310.917C307.94 310.507 307.586 309.971 307.395 309.371C307.179 308.715 307.069 308.029 307.072 307.339C307.033 306.75 307.119 306.159 307.323 305.606C307.528 305.052 307.847 304.548 308.259 304.126C309.199 303.324 310.398 302.892 311.634 302.908L313.271 302.824V302.077C313.318 301.372 313.181 300.666 312.874 300.029C312.737 299.811 312.544 299.635 312.314 299.519C312.084 299.404 311.827 299.353 311.57 299.373C311.145 299.38 310.723 299.453 310.32 299.59C309.813 299.767 309.325 299.994 308.863 300.267L308.105 298.319C308.681 297.963 309.306 297.692 309.96 297.515C310.645 297.328 311.353 297.235 312.063 297.24ZM313.292 304.65L312.201 304.713C311.514 304.703 310.849 304.955 310.341 305.417C309.904 305.926 309.685 306.585 309.732 307.254C309.688 307.827 309.825 308.399 310.124 308.889C310.248 309.063 310.413 309.202 310.605 309.294C310.796 309.387 311.008 309.43 311.221 309.419C311.534 309.419 311.84 309.333 312.108 309.17C312.375 309.008 312.592 308.775 312.736 308.498C313.135 307.718 313.318 306.847 313.266 305.973L313.292 304.65Z" fill="#333333"/>
<path d="M326.098 297.499V304.21C326.098 304.491 326.098 304.74 326.098 305.031C326.098 305.322 326.098 305.56 326.098 305.83C326.098 306.1 326.066 306.359 326.045 306.672C326.024 306.984 326.003 307.28 325.976 307.609L330.363 297.499H333.229V311.261H330.734V304.623C330.734 304.242 330.734 303.856 330.734 303.475C330.734 303.094 330.766 302.702 330.787 302.321C330.808 301.94 330.829 301.543 330.856 301.146L326.458 311.255H323.592V297.494L326.098 297.499Z" fill="#333333"/>
<path d="M343.619 297.24C344.339 297.221 345.054 297.369 345.707 297.674C346.27 297.943 346.742 298.372 347.063 298.907C347.389 299.492 347.552 300.154 347.535 300.823C347.551 301.505 347.366 302.176 347.005 302.755C346.674 303.288 346.171 303.693 345.58 303.904V304.015C346.064 304.123 346.516 304.344 346.899 304.66C347.268 304.971 347.556 305.367 347.736 305.814C347.941 306.318 348.04 306.859 348.027 307.402C348.034 308.141 347.852 308.87 347.498 309.519C347.148 310.139 346.625 310.643 345.993 310.97C345.256 311.339 344.438 311.521 343.614 311.499C343.172 311.501 342.731 311.469 342.295 311.404C341.901 311.34 341.514 311.237 341.14 311.097C340.771 310.954 340.416 310.776 340.08 310.567V308.207C340.545 308.524 341.046 308.784 341.574 308.979C342.114 309.177 342.684 309.277 343.259 309.276C343.656 309.289 344.051 309.205 344.409 309.032C344.717 308.88 344.97 308.633 345.129 308.328C345.307 307.972 345.393 307.577 345.378 307.18C345.387 306.796 345.3 306.415 345.124 306.074C344.947 305.755 344.675 305.499 344.345 305.343C343.913 305.154 343.444 305.065 342.973 305.084H342.014V303.073H342.872C343.436 303.109 343.992 302.931 344.43 302.575C344.619 302.376 344.764 302.139 344.856 301.88C344.947 301.621 344.982 301.346 344.96 301.072C344.977 300.846 344.948 300.619 344.873 300.404C344.798 300.19 344.68 299.994 344.525 299.828C344.358 299.681 344.163 299.568 343.952 299.497C343.741 299.425 343.518 299.395 343.296 299.41C342.925 299.413 342.556 299.476 342.205 299.595C341.804 299.728 341.421 299.906 341.06 300.124L340.128 298.166C340.676 297.849 341.264 297.605 341.876 297.441C342.446 297.3 343.032 297.233 343.619 297.24Z" fill="#333333"/>
<path d="M354.735 297.24C356.045 297.24 357.01 297.649 357.628 298.468C358.248 299.288 358.56 300.484 358.56 302.067V311.255H356.621L356.213 309.36H356.149C355.925 309.789 355.646 310.186 355.318 310.541C355.018 310.853 354.657 311.1 354.258 311.266C353.82 311.433 353.354 311.514 352.886 311.504C352.234 311.532 351.594 311.323 351.084 310.917C350.609 310.505 350.257 309.97 350.067 309.371C349.85 308.715 349.741 308.029 349.744 307.339C349.705 306.75 349.79 306.159 349.995 305.606C350.199 305.052 350.518 304.548 350.931 304.126C351.869 303.325 353.066 302.892 354.3 302.908L355.943 302.824V302.077C355.99 301.372 355.853 300.666 355.545 300.029C355.409 299.811 355.215 299.635 354.985 299.519C354.756 299.404 354.499 299.353 354.242 299.373C353.817 299.38 353.395 299.453 352.992 299.59C352.485 299.767 351.997 299.994 351.535 300.267L350.777 298.319C351.352 297.962 351.977 297.691 352.631 297.515C353.317 297.328 354.024 297.235 354.735 297.24ZM355.964 304.65L354.873 304.713C354.184 304.704 353.518 304.956 353.008 305.417C352.574 305.927 352.358 306.586 352.404 307.254C352.36 307.826 352.496 308.397 352.79 308.889C352.915 309.062 353.082 309.201 353.274 309.294C353.467 309.386 353.679 309.429 353.892 309.419C354.205 309.418 354.512 309.332 354.779 309.17C355.046 309.007 355.263 308.775 355.408 308.498C355.816 307.721 356.008 306.849 355.964 305.973V304.65Z" fill="#333333"/>
<path d="M361.156 302.66C361.142 301.206 361.266 299.755 361.527 298.325C361.735 297.15 362.188 296.032 362.857 295.043C363.529 294.095 364.459 293.36 365.538 292.926C366.187 292.613 366.872 292.38 367.578 292.233C368.574 292.008 369.585 291.854 370.603 291.772L370.868 294.117C370.518 294.149 370.115 294.196 369.654 294.26C369.194 294.323 368.733 294.392 368.256 294.477C367.779 294.562 367.35 294.657 366.952 294.768C366.625 294.852 366.308 294.975 366.009 295.133C365.481 295.414 365.033 295.824 364.706 296.324C364.373 296.875 364.142 297.481 364.023 298.113C363.871 298.899 363.781 299.695 363.752 300.495H363.901C364.077 300.102 364.321 299.744 364.621 299.436C364.913 299.133 365.263 298.89 365.649 298.722C366.033 298.554 366.448 298.467 366.868 298.468C367.666 298.445 368.448 298.697 369.082 299.182C369.744 299.738 370.23 300.473 370.481 301.299C370.829 302.394 370.992 303.539 370.963 304.687C370.996 305.947 370.801 307.202 370.386 308.392C370.068 309.324 369.48 310.14 368.696 310.737C367.899 311.292 366.944 311.576 365.972 311.546C365.236 311.569 364.508 311.381 363.875 311.005C363.242 310.629 362.729 310.081 362.396 309.424C361.937 308.568 361.623 307.641 361.469 306.682C361.241 305.354 361.136 304.007 361.156 302.66ZM366.025 309.286C366.497 309.298 366.954 309.123 367.297 308.799C367.685 308.396 367.952 307.892 368.065 307.344C368.251 306.55 368.336 305.735 368.319 304.92C368.378 303.835 368.197 302.751 367.79 301.744C367.654 301.424 367.425 301.152 367.134 300.964C366.842 300.775 366.5 300.678 366.152 300.685C365.794 300.69 365.446 300.81 365.162 301.029C364.836 301.265 364.558 301.56 364.34 301.898C364.113 302.232 363.935 302.598 363.811 302.983C363.811 303.999 363.869 304.904 363.954 305.693C364.019 306.37 364.155 307.039 364.362 307.688C364.492 308.143 364.724 308.563 365.04 308.916C365.17 309.041 365.325 309.139 365.494 309.203C365.664 309.266 365.844 309.295 366.025 309.286Z" fill="#333333"/>
<path d="M382.789 304.343C382.796 305.298 382.7 306.251 382.503 307.185C382.338 307.985 382.043 308.752 381.628 309.456C381.254 310.078 380.727 310.596 380.097 310.959C379.41 311.33 378.637 311.513 377.856 311.488C377.101 311.507 376.355 311.325 375.694 310.959C375.074 310.59 374.552 310.076 374.174 309.461C373.749 308.76 373.444 307.992 373.273 307.19C373.075 306.254 372.981 305.299 372.992 304.343C372.975 303.069 373.153 301.799 373.522 300.58C373.795 299.616 374.348 298.756 375.112 298.108C375.913 297.501 376.9 297.193 377.904 297.234C378.854 297.206 379.786 297.495 380.553 298.055C381.336 298.673 381.922 299.506 382.238 300.453C382.646 301.708 382.832 303.024 382.789 304.343ZM375.62 304.343C375.606 305.25 375.688 306.157 375.864 307.047C375.965 307.65 376.222 308.216 376.611 308.688C376.773 308.864 376.972 309.003 377.194 309.094C377.415 309.186 377.654 309.228 377.893 309.218C378.131 309.23 378.369 309.189 378.589 309.098C378.81 309.006 379.006 308.866 379.165 308.688C379.543 308.215 379.792 307.651 379.885 307.053C380.056 306.149 380.134 305.23 380.118 304.311C380.133 303.406 380.055 302.501 379.885 301.612C379.791 301.017 379.542 300.457 379.165 299.987C379.003 299.81 378.804 299.672 378.582 299.58C378.361 299.489 378.122 299.447 377.883 299.457C377.503 299.451 377.132 299.564 376.821 299.782C376.511 300 376.278 300.311 376.155 300.67C375.743 301.859 375.568 303.118 375.642 304.375L375.62 304.343Z" fill="#333333"/>
<path d="M390.932 297.24C391.554 297.228 392.166 297.393 392.698 297.716C393.229 298.04 393.657 298.508 393.931 299.066C394.637 300.28 394.99 302.053 394.99 304.385C395.017 305.68 394.86 306.972 394.524 308.223C394.297 309.139 393.833 309.981 393.178 310.663C392.898 310.936 392.567 311.15 392.203 311.295C391.839 311.439 391.45 311.51 391.059 311.504C390.633 311.509 390.211 311.424 389.819 311.255C389.42 311.093 389.06 310.85 388.76 310.541C388.435 310.201 388.167 309.811 387.965 309.387H387.827C387.859 309.816 387.88 310.202 387.901 310.551C387.923 310.901 387.901 311.202 387.901 311.467V317.348H385.295V297.499H387.414L387.774 299.41H387.907C388.121 298.95 388.401 298.524 388.738 298.145C389.016 297.847 389.354 297.613 389.729 297.457C390.112 297.306 390.521 297.232 390.932 297.24ZM390.211 299.473C389.978 299.465 389.745 299.503 389.527 299.586C389.309 299.669 389.109 299.794 388.94 299.955C388.557 300.368 388.296 300.879 388.187 301.432C388.004 302.268 387.921 303.122 387.938 303.978V304.645C387.921 305.516 388.004 306.386 388.187 307.238C388.294 307.802 388.556 308.324 388.945 308.747C389.116 308.909 389.317 309.036 389.537 309.119C389.757 309.203 389.992 309.242 390.227 309.234C390.448 309.237 390.666 309.191 390.867 309.099C391.068 309.008 391.246 308.873 391.388 308.704C391.748 308.24 391.988 307.695 392.087 307.116C392.262 306.224 392.342 305.316 392.325 304.406C392.382 303.152 392.213 301.897 391.827 300.701C391.728 300.349 391.517 300.038 391.225 299.817C390.934 299.595 390.578 299.475 390.211 299.473Z" fill="#333333"/>
<path d="M401.751 297.24C402.296 297.197 402.844 297.286 403.348 297.5C403.851 297.714 404.296 298.046 404.644 298.468C405.264 299.288 405.571 300.484 405.571 302.067V311.255H403.637L403.224 309.361H403.192C402.968 309.789 402.688 310.186 402.36 310.541C402.061 310.853 401.7 311.1 401.301 311.266C400.863 311.432 400.397 311.513 399.928 311.504C399.276 311.533 398.636 311.324 398.127 310.917C397.649 310.508 397.296 309.972 397.11 309.371C396.89 308.716 396.781 308.029 396.787 307.339C396.746 306.75 396.831 306.159 397.036 305.605C397.24 305.052 397.56 304.547 397.973 304.126C398.911 303.325 400.109 302.892 401.343 302.908L402.98 302.824V302.077C403.027 301.372 402.89 300.666 402.583 300.029C402.446 299.811 402.252 299.635 402.023 299.519C401.793 299.404 401.536 299.353 401.279 299.373C400.849 299.374 400.422 299.444 400.013 299.579C399.504 299.755 399.014 299.982 398.551 300.257L397.793 298.309C398.37 297.951 398.997 297.68 399.653 297.504C400.337 297.321 401.043 297.232 401.751 297.24ZM402.98 304.65L401.883 304.713C401.195 304.697 400.527 304.943 400.013 305.401C399.576 305.91 399.357 306.57 399.404 307.238C399.362 307.811 399.499 308.382 399.796 308.874C399.919 309.047 400.085 309.186 400.276 309.279C400.468 309.371 400.68 309.414 400.893 309.403C401.205 309.403 401.512 309.317 401.78 309.155C402.047 308.992 402.264 308.759 402.408 308.482C402.818 307.706 403.012 306.834 402.97 305.957L402.98 304.65Z" fill="#333333"/>
</svg>
