<svg width="829" height="604" viewBox="0 0 829 604" fill="none" xmlns="http://www.w3.org/2000/svg">
<g clip-path="url(#clip0_182_555)">
<path d="M0 369.099V391.47L403.796 604V581.635L0 369.099Z" fill="#BCBCBC"/>
<path d="M0.155823 369.157L403.952 581.693L829 357.964L425.204 145.435L0.155823 369.157Z" fill="#A7A7A7"/>
<g filter="url(#filter0_d_182_555)">
<path d="M403.796 604L828.844 380.278L828.851 357.906L403.796 581.628V604Z" fill="#919191"/>
</g>
<path d="M150.191 336.29V269.176L128.938 280.361V347.476L150.191 336.29Z" fill="#E2E2E2"/>
<path d="M150.191 269.176L148.774 268.427L127.529 279.612L128.938 280.361L150.191 269.176Z" fill="#EFEFEF"/>
<path d="M127.529 279.612V346.733L128.938 347.476V280.361L128.23 279.987V347.102L128.938 347.476V280.361L128.23 279.987" fill="#FCFCFC"/>
<path d="M192.689 313.912V246.798L171.436 257.983V325.098L192.689 313.912Z" fill="#E2E2E2"/>
<path d="M192.689 246.798L191.272 246.055L170.019 257.234L171.436 257.983L192.689 246.798Z" fill="#EFEFEF"/>
<path d="M170.019 257.234V324.355L171.436 325.098V257.983L170.728 257.609V324.73L171.436 325.098V257.983L170.728 257.609" fill="#FCFCFC"/>
<path d="M235.2 291.547V224.433L213.948 235.618V302.733L235.2 291.547Z" fill="#E2E2E2"/>
<path d="M235.201 224.433L233.784 223.683L212.538 234.869L213.948 235.618L235.201 224.433Z" fill="#EFEFEF"/>
<path d="M212.538 234.869V301.99L213.948 302.733V235.618L213.24 235.244V302.358L213.948 302.733V235.618L213.24 235.244" fill="#FCFCFC"/>
<path d="M277.705 269.182V202.061L256.453 213.247V280.368L277.705 269.182Z" fill="#E2E2E2"/>
<path d="M277.705 202.061L276.288 201.318L255.036 212.498L256.453 213.247L277.705 202.061Z" fill="#EFEFEF"/>
<path d="M255.036 212.498L255.043 279.619L256.453 280.368V213.247L255.744 212.879V279.993L256.453 280.368V213.247L255.744 212.879" fill="#FCFCFC"/>
<path d="M320.21 246.798V179.683L298.958 190.869V257.983L320.21 246.798Z" fill="#E2E2E2"/>
<path d="M320.21 179.683L318.793 178.94L297.541 190.12L298.958 190.869L320.21 179.683Z" fill="#EFEFEF"/>
<path d="M297.541 190.12L297.548 257.241L298.958 257.983V190.869L298.249 190.494V257.615L298.958 257.983V190.869L298.249 190.494" fill="#FCFCFC"/>
<path d="M362.715 224.426V157.305L341.463 168.491V235.612L362.715 224.426Z" fill="#E2E2E2"/>
<path d="M362.715 157.305L361.298 156.562L340.046 167.748L341.462 168.491L362.715 157.305Z" fill="#EFEFEF"/>
<path d="M340.046 167.748L340.053 234.869L341.462 235.612V168.491L340.754 168.123V235.237L341.462 235.612V168.491L340.754 168.123" fill="#FCFCFC"/>
<path d="M447.732 179.683L447.71 112.568L426.479 123.754V190.869L447.732 179.683Z" fill="#E2E2E2"/>
<path d="M447.725 112.562L446.301 111.819L425.07 123.005L426.479 123.754L447.725 112.562Z" fill="#EFEFEF"/>
<path d="M425.07 123.005V190.126L426.479 190.869V123.754L425.771 123.379V190.494L426.479 190.869V123.754L425.771 123.379" fill="#FCFCFC"/>
<path d="M405.213 202.055V134.94L383.96 146.126V213.24L405.213 202.055Z" fill="#E2E2E2"/>
<path d="M405.213 134.94L403.796 134.191L382.543 145.376L383.96 146.126L405.213 134.94Z" fill="#EFEFEF"/>
<path d="M382.543 145.376V212.498L383.96 213.24V146.126L383.252 145.751V212.866L383.96 213.24V146.126L383.252 145.751" fill="#FCFCFC"/>
<path d="M87.8575 348.264L446.301 159.598V163.324L87.8575 351.978V348.264Z" fill="#E2E2E2"/>
<path d="M445.592 159.171L446.301 159.546L87.985 348.199L86.5611 347.444L445.592 159.171Z" fill="#EFEFEF"/>
<path d="M107.686 358.668V291.547L86.4336 302.733V369.854L107.686 358.668Z" fill="#E2E2E2"/>
<path d="M107.686 291.547L106.269 290.805L85.0238 301.984L86.4336 302.733L107.686 291.547Z" fill="#EFEFEF"/>
<path d="M85.0238 301.984V369.105L86.4336 369.854V302.733L85.7251 302.365V369.48L86.4336 369.854V302.733L85.7251 302.365" fill="#FCFCFC"/>
<path d="M87.8575 322.114L446.301 133.448V137.174L87.8575 325.834V322.114Z" fill="#E2E2E2"/>
<path d="M445.599 133.08L446.301 133.448L87.985 322.05L86.5611 321.301L445.599 133.08Z" fill="#EFEFEF"/>
<path d="M742.425 336.29V269.163L763.691 280.349V347.463L742.425 336.29Z" fill="#FCFCFC"/>
<path d="M742.425 269.163L743.835 268.42L765.08 279.599L763.691 280.349L742.425 269.163Z" fill="#EFEFEF"/>
<path d="M763.691 280.349L765.08 279.599L765.087 346.721L763.691 347.463V280.349Z" fill="#E2E2E2"/>
<path d="M701.33 314.636V247.508L722.596 258.694V325.802L701.33 314.636Z" fill="#FCFCFC"/>
<path d="M701.33 247.508L702.746 246.765L723.992 257.945L722.596 258.694L701.33 247.508Z" fill="#EFEFEF"/>
<path d="M722.596 258.694L723.992 257.945L723.999 325.066L722.596 325.802V258.694Z" fill="#E2E2E2"/>
<path d="M446.308 180.432V113.304L467.574 124.49V191.605L446.308 180.432Z" fill="#FCFCFC"/>
<path d="M446.308 113.304L447.725 112.562L468.97 123.748L467.574 124.49L446.308 113.304Z" fill="#EFEFEF"/>
<path d="M467.574 124.49L468.97 123.748L468.977 190.869L467.574 191.605V124.49Z" fill="#E2E2E2"/>
<path d="M488.813 202.817V135.689L510.079 146.875V213.989L488.813 202.817Z" fill="#FCFCFC"/>
<path d="M488.813 135.689L490.222 134.946L511.468 146.126L510.079 146.875L488.813 135.689Z" fill="#EFEFEF"/>
<path d="M510.079 146.875L511.468 146.126L511.475 213.253L510.079 213.989V146.875Z" fill="#E2E2E2"/>
<path d="M529.886 224.433V157.305L551.146 168.491V235.605L529.886 224.433Z" fill="#FCFCFC"/>
<path d="M529.886 157.305L531.296 156.562L552.542 167.742L551.146 168.491L529.886 157.305Z" fill="#EFEFEF"/>
<path d="M551.146 168.491L552.542 167.742L552.549 234.863L551.146 235.605V168.491Z" fill="#E2E2E2"/>
<path d="M572.377 246.804V179.676L593.644 190.862V257.977L572.377 246.804Z" fill="#FCFCFC"/>
<path d="M572.377 179.676L573.794 178.934L595.039 190.12L593.644 190.862L572.377 179.676Z" fill="#EFEFEF"/>
<path d="M593.644 190.862L595.039 190.12L595.046 257.241L593.644 257.977V190.862Z" fill="#E2E2E2"/>
<path d="M614.903 269.176V202.048L636.17 213.234V280.349L614.903 269.176Z" fill="#FCFCFC"/>
<path d="M614.903 202.048L616.32 201.305L637.565 212.485L636.17 213.234L614.903 202.048Z" fill="#EFEFEF"/>
<path d="M636.17 213.234L637.565 212.485L637.573 279.606L636.17 280.349V213.234Z" fill="#E2E2E2"/>
<path d="M657.387 291.547V224.426L678.653 235.605V302.72L657.387 291.547Z" fill="#FCFCFC"/>
<path d="M657.387 224.426L658.804 223.683L680.049 234.863L678.653 235.605L657.387 224.426Z" fill="#EFEFEF"/>
<path d="M678.653 235.605L680.049 234.863L680.056 301.984L678.653 302.72V235.605Z" fill="#E2E2E2"/>
<path d="M762.593 299.949L761.226 300.686L445.585 133.816L446.301 133.448L762.593 299.949Z" fill="#EFEFEF"/>
<path d="M445.599 133.823L762.253 300.486V304.206L445.592 137.549L445.599 133.823Z" fill="#FCFCFC"/>
<path d="M762.586 326.099L761.219 326.835L445.592 159.921L446.301 159.546L762.586 326.099Z" fill="#EFEFEF"/>
<path d="M445.592 159.921L762.253 326.584L762.246 330.304L445.585 163.653L445.592 159.921Z" fill="#FCFCFC"/>
<path d="M86.4336 347.483L405.05 515.179L405.043 519.047L86.4407 351.351L86.4336 347.483Z" fill="#FCFCFC"/>
<path d="M406.254 514.533V518.408L405.021 519.047L405.028 515.179L406.254 514.533Z" fill="#E2E2E2"/>
<path d="M406.254 514.533L405.029 515.179L86.5682 347.554L87.8504 346.882L406.254 514.533Z" fill="#EFEFEF"/>
<path d="M406.254 488.274V492.149L405.021 492.788L405.028 488.919L406.254 488.274Z" fill="#E2E2E2"/>
<path d="M406.254 488.274L405.029 488.919L86.5682 321.294L87.8504 320.623L406.254 488.274Z" fill="#EFEFEF"/>
<path d="M86.4336 321.223L405.05 488.919L405.043 492.788L86.4407 325.092L86.4336 321.223Z" fill="#FCFCFC"/>
<path d="M170.041 413.829L170.026 346.708L191.279 357.893V425.015L170.041 413.829Z" fill="#FCFCFC"/>
<path d="M170.026 346.714L171.252 346.062L192.497 357.241L191.279 357.893L170.026 346.714Z" fill="#EFEFEF"/>
<path d="M191.279 357.893L192.497 357.241L192.504 424.369L191.279 425.015V357.893Z" fill="#E2E2E2"/>
<path d="M212.545 436.213L212.531 369.092L233.784 380.278V447.399L212.545 436.213Z" fill="#FCFCFC"/>
<path d="M212.531 369.099L213.757 368.446L235.002 379.626L233.784 380.278L212.531 369.099Z" fill="#EFEFEF"/>
<path d="M233.784 380.278L235.002 379.626L235.009 446.753L233.784 447.399V380.278Z" fill="#E2E2E2"/>
<path d="M255.05 458.598L255.036 391.477L276.288 402.662V469.784L255.05 458.598Z" fill="#FCFCFC"/>
<path d="M255.036 391.483L256.262 390.831L277.507 402.01L276.288 402.662L255.036 391.483Z" fill="#EFEFEF"/>
<path d="M276.288 402.662L277.507 402.01L277.514 469.131L276.288 469.784V402.662Z" fill="#E2E2E2"/>
<path d="M297.555 480.982L297.541 413.861L318.793 425.047V492.168L297.555 480.982Z" fill="#FCFCFC"/>
<path d="M297.541 413.868L298.766 413.215L320.012 424.395L318.793 425.047L297.541 413.868Z" fill="#EFEFEF"/>
<path d="M318.793 425.047L320.012 424.395L320.019 491.516L318.793 492.168V425.047Z" fill="#E2E2E2"/>
<path d="M340.06 503.36L340.046 436.246L361.298 447.431V514.552L340.06 503.36Z" fill="#FCFCFC"/>
<path d="M340.046 436.252L341.271 435.6L362.517 446.779L361.298 447.431L340.046 436.252Z" fill="#EFEFEF"/>
<path d="M361.298 447.431L362.517 446.779L362.524 513.9L361.298 514.552V447.431Z" fill="#E2E2E2"/>
<path d="M127.536 391.444L127.522 324.323L148.774 335.509V402.63L127.536 391.444Z" fill="#FCFCFC"/>
<path d="M127.522 324.33L128.747 323.677L149.992 334.863L148.774 335.509L127.522 324.33Z" fill="#EFEFEF"/>
<path d="M148.774 335.509L149.992 334.863L150 401.984L148.774 402.63V335.509Z" fill="#E2E2E2"/>
<path d="M85.0309 369.099L85.0167 301.984L106.269 313.17V380.284L85.0309 369.099Z" fill="#FCFCFC"/>
<path d="M85.0167 301.984L86.2423 301.338L107.488 312.517L106.269 313.17L85.0167 301.984Z" fill="#EFEFEF"/>
<path d="M106.269 313.17L107.488 312.517L107.495 379.639L106.269 380.284V313.17Z" fill="#E2E2E2"/>
<path d="M382.551 525.693V458.572L403.796 469.751V536.879L382.551 525.693Z" fill="#FCFCFC"/>
<path d="M382.543 458.585L383.776 457.933L405.014 469.157L403.796 469.809L382.543 458.585Z" fill="#EFEFEF"/>
<path d="M403.796 469.751L405.021 469.118V536.233L403.796 536.879V469.751Z" fill="#E2E2E2"/>
<path d="M401.345 490.838L764.357 299.775V303.65L405.021 492.775L401.345 490.838Z" fill="#E2E2E2"/>
<path d="M763.642 299.401L764.357 299.775L401.309 490.844L401.316 489.494L763.642 299.401Z" fill="#FCFCFC"/>
<path d="M401.345 515.831L764.357 324.769V328.644L405.021 517.769L401.345 515.831Z" fill="#E2E2E2"/>
<path d="M763.642 324.394L764.357 324.769L401.309 515.838L401.316 514.488L763.642 324.394Z" fill="#FCFCFC"/>
<path d="M467.553 503.334V436.213L446.301 447.405V514.52L467.553 503.334Z" fill="#E2E2E2"/>
<path d="M467.553 436.213L466.136 435.471L444.891 446.656L446.301 447.405L467.553 436.213Z" fill="#EFEFEF"/>
<path d="M444.891 446.656V513.778L446.301 514.52V447.406L445.592 447.031V514.146L446.301 514.52V447.406L445.592 447.031" fill="#FCFCFC"/>
<path d="M510.051 480.937V413.816L488.798 425.008V492.123L510.051 480.937Z" fill="#E2E2E2"/>
<path d="M510.051 413.816L508.634 413.073L487.382 424.252L488.798 425.008L510.051 413.816Z" fill="#EFEFEF"/>
<path d="M487.382 424.253V491.38L488.798 492.123V425.008L488.09 424.634V491.748L488.798 492.123V425.008L488.09 424.634" fill="#FCFCFC"/>
<path d="M552.563 458.565V391.451L531.31 402.637V469.751L552.563 458.565Z" fill="#E2E2E2"/>
<path d="M552.563 391.451L551.146 390.702L529.901 401.887L531.31 402.637L552.563 391.451Z" fill="#EFEFEF"/>
<path d="M529.901 401.887V469.009L531.31 469.751V402.637L530.602 402.262V469.377L531.31 469.751V402.637L530.602 402.262" fill="#FCFCFC"/>
<path d="M595.068 436.213V369.099L573.815 380.284V447.406L595.068 436.213Z" fill="#E2E2E2"/>
<path d="M595.068 369.099L593.651 368.356L572.406 379.535L573.815 380.284L595.068 369.099Z" fill="#EFEFEF"/>
<path d="M572.406 379.535V446.663L573.815 447.406V380.284L573.107 379.91V447.031L573.815 447.406V380.284L573.107 379.91" fill="#FCFCFC"/>
<path d="M637.572 413.816V346.701L616.32 357.887V425.008L637.572 413.816Z" fill="#E2E2E2"/>
<path d="M637.572 346.701L636.156 345.958L614.91 357.138L616.32 357.887L637.572 346.701Z" fill="#EFEFEF"/>
<path d="M614.91 357.138V424.259L616.32 425.008V357.887L615.612 357.512V424.634L616.32 425.008V357.887L615.612 357.512" fill="#FCFCFC"/>
<path d="M680.077 391.47V324.355L658.825 335.535V402.656L680.077 391.47Z" fill="#E2E2E2"/>
<path d="M680.077 324.355L678.66 323.606L657.415 334.786L658.825 335.535L680.077 324.355Z" fill="#EFEFEF"/>
<path d="M657.415 334.786V401.913L658.825 402.656V335.535L658.116 335.167V402.281L658.825 402.656V335.535L658.116 335.167" fill="#FCFCFC"/>
<path d="M722.582 369.099V301.984L701.33 313.17V380.284L722.582 369.099Z" fill="#E2E2E2"/>
<path d="M722.582 301.984L721.165 301.235L699.92 312.421L701.33 313.17L722.582 301.984Z" fill="#EFEFEF"/>
<path d="M699.92 312.42V379.542L701.33 380.284V313.17L700.621 312.795V379.91L701.33 380.284V313.17L700.621 312.795" fill="#FCFCFC"/>
<path d="M425.048 525.706V458.591L403.796 469.777V536.892L425.048 525.706Z" fill="#E2E2E2"/>
<path d="M425.048 458.591L423.631 457.842L402.386 469.028L403.796 469.777L425.048 458.591Z" fill="#EFEFEF"/>
<path d="M402.386 469.028V536.149L403.796 536.892V469.777L403.087 469.403V536.517L403.796 536.892V469.777L403.087 469.403" fill="#FCFCFC"/>
<path d="M765.087 346.72V279.606L743.834 290.792V357.906L765.087 346.72Z" fill="#E2E2E2"/>
<path d="M765.087 279.606L763.67 278.857L742.425 290.042L743.835 290.792L765.087 279.606Z" fill="#EFEFEF"/>
<path d="M742.425 290.042V357.164L743.835 357.906V290.792L743.126 290.417V357.538L743.835 357.906V290.792L743.126 290.417" fill="#FCFCFC"/>
<path d="M424.963 212.498L339.954 257.241L509.966 346.727L594.983 301.984L424.963 212.498Z" fill="#919191"/>
<path d="M361.326 246.094L276.281 290.798L446.308 380.291L531.303 335.535L361.326 246.094Z" fill="#A08964"/>
<path d="M276.281 290.798V178.934L446.308 268.426V380.291L276.281 290.798Z" fill="#D3C5A2"/>
<path d="M531.303 223.683V335.535L446.308 380.291V268.427L531.303 223.683Z" fill="#B5A07D"/>
<path d="M531.303 223.683L361.291 134.191L276.281 178.934L446.308 268.427L531.303 223.683Z" fill="#CCB68B"/>
<path d="M403.796 357.913L361.291 335.541V268.427L403.796 290.798V357.913Z" fill="#9FCDED"/>
<path opacity="0.7" d="M403.095 358.287L360.583 335.916L360.59 268.801L403.095 291.173V358.287Z" fill="url(#paint0_linear_182_555)"/>
<path d="M361.291 268.427L360.583 268.801L403.087 291.173L403.796 290.798L361.291 268.427Z" fill="#848484"/>
<path d="M403.796 290.798L403.088 291.173V358.287L403.796 357.913V290.798Z" fill="#606060"/>
<path d="M340.039 324.355L297.534 301.984V234.869L340.039 257.241V324.355Z" fill="#9FCDED"/>
<path opacity="0.7" d="M339.337 324.73L296.825 302.358L296.833 235.244L339.337 257.609V324.73Z" fill="url(#paint1_linear_182_555)"/>
<path d="M297.534 234.869L296.825 235.244L339.33 257.615L340.039 257.241L297.534 234.869Z" fill="#848484"/>
<path d="M340.039 257.241L339.33 257.609V324.73L340.039 324.355V257.241Z" fill="#606060"/>
<path d="M446.308 380.291V381.776L531.31 337.033L531.303 335.535L446.308 380.291V381.776V380.291Z" fill="#75654E"/>
<path d="M403.909 111.903L318.871 156.601L488.806 246.055L573.815 201.312L403.909 111.903Z" fill="#A08964"/>
<path d="M318.786 156.562L318.793 44.7044L488.82 134.191L488.806 246.055L318.786 156.562Z" fill="#D3C5A2"/>
<path d="M573.815 89.4475V201.312L488.806 246.055V134.184L573.815 89.4475Z" fill="#B5A07D"/>
<path d="M573.815 89.4475L403.881 0L318.793 44.7044L488.806 134.191L573.815 89.4475Z" fill="#CCB68B"/>
<path d="M446.386 223.722L403.874 201.344L403.881 134.236L446.386 156.601V223.722Z" fill="#9FCDED"/>
<path opacity="0.7" d="M445.677 224.09L403.172 201.719V134.61L445.677 156.976V224.09Z" fill="url(#paint2_linear_182_555)"/>
<path d="M403.881 134.236L403.172 134.604L445.677 156.976L446.386 156.601L403.881 134.236Z" fill="#848484"/>
<path d="M446.386 156.601L445.677 156.976V224.09L446.386 223.722V156.601Z" fill="#606060"/>
<path d="M382.628 190.165L340.117 167.787L340.124 100.679L382.628 123.044V190.165Z" fill="#9FCDED"/>
<path opacity="0.7" d="M381.92 190.533L339.415 168.161V101.047L381.92 123.418V190.533Z" fill="url(#paint3_linear_182_555)"/>
<path d="M340.124 100.679L339.415 101.047L381.92 123.418L382.628 123.044L340.124 100.679Z" fill="#848484"/>
<path d="M382.628 123.044L381.92 123.418V190.533L382.628 190.165V123.044Z" fill="#606060"/>
<path d="M573.815 201.312L573.829 313.163L570.996 314.668L570.982 202.804L573.815 201.312Z" fill="#4F4F4F"/>
<path d="M570.996 314.668L568.148 313.17V204.289L570.982 202.804L570.996 314.668Z" fill="#606060"/>
<path d="M488.813 223.677L487.389 224.426L487.396 246.791L488.805 246.055L488.813 223.677Z" fill="#8E8E8E"/>
<path d="M488.806 246.055L446.308 268.427L446.301 267.135L487.396 245.5V246.791" fill="#8E8E8E"/>
<path d="M447.718 266.392V246.597V245.306L446.301 246.055V267.135L447.718 266.392Z" fill="#8E8E8E"/>
<path d="M447.718 245.306V246.597L487.389 225.718V224.426L447.718 245.306Z" fill="#8E8E8E"/>
<path d="M446.301 246.055L444.877 245.299V267.658L446.308 268.426L446.301 246.055Z" fill="#B2B2B2"/>
<path d="M320.203 157.305L318.786 156.562L276.281 178.934L277.698 179.696L320.203 157.305Z" fill="#8E8E8E"/>
<path d="M276.281 177.642V178.934L318.786 156.562V155.271L276.281 177.642V178.934V177.642Z" fill="#A3A3A3"/>
<path d="M444.877 245.299V246.804L276.281 158.054L276.296 156.556L444.877 245.299Z" fill="#B2B2B2"/>
<path d="M320.203 134.933L318.779 134.191L318.786 156.562L320.203 157.305V134.933Z" fill="#A3A3A3"/>
<path d="M445.585 245.674L446.308 245.299L276.99 156.168L276.296 156.556L277.712 157.305L320.203 134.933L318.779 134.191L276.296 156.556" fill="#A3A3A3"/>
<path d="M444.877 267.658V266.379L276.281 177.642V178.934L444.877 267.658Z" fill="#B2B2B2"/>
<path d="M276.281 158.054L277.698 158.803V179.696L276.281 178.953V158.054Z" fill="#B2B2B2"/>
<path d="M488.813 223.677L488.076 223.296L445.585 245.674L446.301 246.055L488.813 223.677Z" fill="#A3A3A3"/>
<path d="M446.308 380.291L403.81 402.649L233.776 313.163L276.281 290.798L446.308 380.291Z" fill="#7C4B12"/>
<path d="M403.81 402.649L403.796 404.148L446.308 381.776V380.291L403.81 402.649Z" fill="#63380D"/>
<path d="M403.81 402.649L403.796 404.148L233.776 314.662V313.163L403.81 402.649Z" fill="#8E551C"/>
<path d="M536.978 334.049L403.803 404.154L425.048 415.34L559.647 344.492L536.978 334.049Z" fill="#49A56E"/>
<path d="M536.978 332.538L403.803 402.656L425.084 413.829L559.647 343.007L536.978 332.538Z" fill="#49A56E"/>
<path d="M403.803 404.154V402.656L425.048 413.842V415.34L403.803 404.154Z" fill="#51AF77"/>
<path d="M425.055 413.842L425.048 415.34L559.647 344.492V343.007L425.055 413.842Z" fill="#3D915F"/>
<path d="M556.813 344.486L423.631 414.591L444.884 425.777L579.483 354.929L556.813 344.486Z" fill="#49A56E"/>
<path d="M556.813 342.981L423.631 413.099L444.912 424.272L579.483 353.45L556.813 342.981Z" fill="#49A56E"/>
<path d="M423.631 414.591V413.099L444.884 424.285V425.777L423.631 414.591Z" fill="#51AF77"/>
<path d="M444.884 424.285V425.777L579.483 354.929V353.45L444.884 424.285Z" fill="#3D915F"/>
<path d="M444.898 419.796V418.317L579.483 347.463V348.955L444.898 419.796Z" fill="#E2E2E2"/>
<path d="M444.884 418.311L443.474 417.568L579.482 345.984V347.463L444.884 418.311Z" fill="#EFEFEF"/>
<path d="M444.884 419.803L443.46 419.041L443.474 417.568L444.884 418.311V419.803Z" fill="#FCFCFC"/>
<path d="M444.898 411.614V410.135L579.483 339.287V340.772L444.898 411.614Z" fill="#E2E2E2"/>
<path d="M444.884 410.128L443.474 409.385L579.482 337.802V339.287L444.884 410.128Z" fill="#EFEFEF"/>
<path d="M444.884 411.62L443.46 410.858L443.474 409.385L444.884 410.128V411.62Z" fill="#FCFCFC"/>
<path d="M444.884 425.777L446.301 426.519L453.385 422.793L451.968 422.05L444.884 425.777Z" fill="#E2E2E2"/>
<path d="M444.884 425.77L444.891 403.405L451.968 399.685V422.05L444.884 425.77Z" fill="#E2E2E2"/>
<path d="M451.968 422.05L453.385 422.793V400.421L451.968 399.685V422.05Z" fill="#E2E2E2"/>
<path d="M444.884 425.777L446.301 426.519L446.308 404.154L444.891 403.412L444.884 425.777Z" fill="#FCFCFC"/>
<path d="M444.891 403.405L446.294 404.135L453.385 400.421L451.968 399.685L444.891 403.405Z" fill="#EFEFEF"/>
<path d="M446.301 426.519L453.385 422.793V400.421L446.294 404.135L446.301 426.519Z" fill="#E2E2E2"/>
<path d="M459.052 418.324L460.469 419.066L467.553 415.34L466.136 414.591L459.052 418.324Z" fill="#E2E2E2"/>
<path d="M459.052 418.311L459.059 395.952L466.136 392.226V414.591L459.052 418.311Z" fill="#E2E2E2"/>
<path d="M466.136 414.591L467.553 415.34V392.962L466.136 392.226V414.591Z" fill="#E2E2E2"/>
<path d="M459.052 418.324L460.469 419.066L460.476 396.695L459.059 395.959L459.052 418.324Z" fill="#FCFCFC"/>
<path d="M459.059 395.952L460.462 396.682L467.553 392.962L466.136 392.226L459.059 395.952Z" fill="#EFEFEF"/>
<path d="M460.469 419.066L467.553 415.34V392.962L460.462 396.682L460.469 419.066Z" fill="#E2E2E2"/>
<path d="M473.185 410.884L474.602 411.626L481.686 407.9L480.269 407.151L473.185 410.884Z" fill="#E2E2E2"/>
<path d="M473.185 410.871L473.192 388.512L480.269 384.786V407.151L473.185 410.871Z" fill="#E2E2E2"/>
<path d="M480.269 407.151L481.686 407.9V385.522L480.269 384.786V407.151Z" fill="#E2E2E2"/>
<path d="M473.185 410.884L474.602 411.626L474.609 389.255L473.192 388.519L473.185 410.884Z" fill="#FCFCFC"/>
<path d="M473.192 388.512L474.595 389.242L481.686 385.522L480.269 384.786L473.192 388.512Z" fill="#EFEFEF"/>
<path d="M474.602 411.627L481.686 407.9V385.522L474.595 389.242L474.602 411.627Z" fill="#E2E2E2"/>
<path d="M487.396 403.412L488.813 404.161L495.897 400.428L494.48 399.685L487.396 403.412Z" fill="#E2E2E2"/>
<path d="M487.396 403.405V381.04L494.473 377.32L494.48 399.685L487.396 403.405Z" fill="#E2E2E2"/>
<path d="M494.48 399.685L495.897 400.428V378.056L494.473 377.32L494.48 399.685Z" fill="#E2E2E2"/>
<path d="M487.396 403.412L488.813 404.161L488.82 381.789L487.396 381.053V403.412Z" fill="#FCFCFC"/>
<path d="M487.396 381.04L488.805 381.77L495.897 378.056L494.473 377.32L487.396 381.04Z" fill="#EFEFEF"/>
<path d="M488.813 404.161L495.897 400.428V378.056L488.806 381.77L488.813 404.161Z" fill="#E2E2E2"/>
<path d="M501.564 395.952L502.981 396.701L510.065 392.968L508.648 392.226L501.564 395.952Z" fill="#E2E2E2"/>
<path d="M501.564 395.946L501.571 373.581L508.648 369.861V392.226L501.564 395.946Z" fill="#E2E2E2"/>
<path d="M508.648 392.226L510.065 392.968V370.597L508.648 369.861V392.226Z" fill="#E2E2E2"/>
<path d="M501.564 395.952L502.981 396.701L502.988 374.33L501.571 373.594L501.564 395.952Z" fill="#FCFCFC"/>
<path d="M501.571 373.581L502.974 374.31L510.065 370.597L508.648 369.861L501.571 373.581Z" fill="#EFEFEF"/>
<path d="M502.981 396.701L510.065 392.968V370.597L502.974 374.31L502.981 396.701Z" fill="#E2E2E2"/>
<path d="M515.576 388.59L516.993 389.332L524.077 385.606L522.661 384.857L515.576 388.59Z" fill="#E2E2E2"/>
<path d="M515.576 388.577V366.218L522.654 362.492L522.661 384.857L515.576 388.577Z" fill="#E2E2E2"/>
<path d="M522.661 384.857L524.077 385.606L524.07 363.228L522.654 362.492L522.661 384.857Z" fill="#E2E2E2"/>
<path d="M515.576 388.59L516.993 389.332L517 366.961L515.576 366.225V388.59Z" fill="#FCFCFC"/>
<path d="M515.576 366.218L516.979 366.948L524.07 363.228L522.654 362.492L515.576 366.218Z" fill="#EFEFEF"/>
<path d="M516.993 389.332L524.077 385.606L524.07 363.228L516.979 366.948L516.993 389.332Z" fill="#E2E2E2"/>
<path d="M529.894 381.046L531.31 381.789L538.395 378.063L536.978 377.314L529.894 381.046Z" fill="#E2E2E2"/>
<path d="M529.894 381.033V358.675L536.978 354.948V377.314L529.894 381.033Z" fill="#E2E2E2"/>
<path d="M536.978 377.314L538.394 378.063V355.685L536.978 354.948V377.314Z" fill="#E2E2E2"/>
<path d="M529.894 381.046L531.31 381.789L531.317 359.418L529.894 358.681V381.046Z" fill="#FCFCFC"/>
<path d="M529.894 358.675L531.303 359.405L538.395 355.685L536.978 354.948L529.894 358.675Z" fill="#EFEFEF"/>
<path d="M531.31 381.789L538.394 378.063V355.685L531.303 359.405L531.31 381.789Z" fill="#E2E2E2"/>
<path d="M544.083 373.581L545.5 374.323L552.584 370.597L551.167 369.848L544.083 373.581Z" fill="#E2E2E2"/>
<path d="M544.083 373.568V351.209L551.167 347.483V369.848L544.083 373.568Z" fill="#E2E2E2"/>
<path d="M551.167 369.848L552.584 370.597V348.219L551.167 347.483V369.848Z" fill="#E2E2E2"/>
<path d="M544.083 373.581L545.5 374.323L545.507 351.952L544.083 351.216V373.581Z" fill="#FCFCFC"/>
<path d="M544.083 351.209L545.493 351.939L552.584 348.219L551.167 347.483L544.083 351.209Z" fill="#EFEFEF"/>
<path d="M545.5 374.323L552.584 370.597V348.219L545.493 351.939L545.5 374.323Z" fill="#E2E2E2"/>
<path d="M558.23 366.115L559.647 366.864L566.731 363.131L565.314 362.388L558.23 366.115Z" fill="#E2E2E2"/>
<path d="M558.23 366.108V343.743L565.314 340.023V362.388L558.23 366.108Z" fill="#E2E2E2"/>
<path d="M565.314 362.388L566.731 363.131V340.76L565.314 340.023V362.388Z" fill="#E2E2E2"/>
<path d="M558.23 366.115L559.647 366.864L559.654 344.492L558.23 343.756V366.115Z" fill="#FCFCFC"/>
<path d="M558.23 343.743L559.64 344.473L566.731 340.76L565.314 340.023L558.23 343.743Z" fill="#EFEFEF"/>
<path d="M559.647 366.864L566.731 363.131V340.76L559.64 344.473L559.647 366.864Z" fill="#E2E2E2"/>
<path d="M572.398 358.675L573.815 359.424L580.899 355.691L579.483 354.948L572.398 358.675Z" fill="#E2E2E2"/>
<path d="M572.398 358.668V336.303L579.483 332.583V354.948L572.398 358.668Z" fill="#E2E2E2"/>
<path d="M579.482 354.948L580.899 355.691V333.32L579.482 332.583V354.948Z" fill="#E2E2E2"/>
<path d="M572.398 358.675L573.815 359.424L573.822 337.052L572.398 336.316V358.675Z" fill="#FCFCFC"/>
<path d="M572.398 336.303L573.808 337.033L580.899 333.32L579.483 332.583L572.398 336.303Z" fill="#EFEFEF"/>
<path d="M573.815 359.424L580.899 355.691V333.32L573.808 337.033L573.815 359.424Z" fill="#E2E2E2"/>
</g>
<defs>
<filter id="filter0_d_182_555" x="399.796" y="357.906" width="433.055" height="254.094" filterUnits="userSpaceOnUse" color-interpolation-filters="sRGB">
<feFlood flood-opacity="0" result="BackgroundImageFix"/>
<feColorMatrix in="SourceAlpha" type="matrix" values="0 0 0 0 0 0 0 0 0 0 0 0 0 0 0 0 0 0 127 0" result="hardAlpha"/>
<feOffset dy="4"/>
<feGaussianBlur stdDeviation="2"/>
<feComposite in2="hardAlpha" operator="out"/>
<feColorMatrix type="matrix" values="0 0 0 0 0 0 0 0 0 0 0 0 0 0 0 0 0 0 0.25 0"/>
<feBlend mode="normal" in2="BackgroundImageFix" result="effect1_dropShadow_182_555"/>
<feBlend mode="normal" in="SourceGraphic" in2="effect1_dropShadow_182_555" result="shape"/>
</filter>
<linearGradient id="paint0_linear_182_555" x1="360.583" y1="313.544" x2="403.095" y2="313.544" gradientUnits="userSpaceOnUse">
<stop stop-color="#BDDFF2"/>
<stop offset="1" stop-color="#9FCDED"/>
</linearGradient>
<linearGradient id="paint1_linear_182_555" x1="296.825" y1="279.987" x2="339.337" y2="279.987" gradientUnits="userSpaceOnUse">
<stop stop-color="#BDDFF2"/>
<stop offset="1" stop-color="#9FCDED"/>
</linearGradient>
<linearGradient id="paint2_linear_182_555" x1="403.172" y1="179.347" x2="445.677" y2="179.347" gradientUnits="userSpaceOnUse">
<stop stop-color="#BDDFF2"/>
<stop offset="1" stop-color="#9FCDED"/>
</linearGradient>
<linearGradient id="paint3_linear_182_555" x1="339.408" y1="145.79" x2="381.92" y2="145.79" gradientUnits="userSpaceOnUse">
<stop stop-color="#BDDFF2"/>
<stop offset="1" stop-color="#9FCDED"/>
</linearGradient>
<clipPath id="clip0_182_555">
<rect width="829" height="604" fill="white"/>
</clipPath>
</defs>
</svg>
