<svg width="500" height="317" viewBox="0 0 500 317" fill="none" xmlns="http://www.w3.org/2000/svg">
<g clip-path="url(#clip0_65_261)">
<path d="M0 167.893L241.624 28.3856L499.313 177.192L257.64 316.725L0 167.893Z" fill="#58A577"/>
<path d="M0 167.893V149.295L257.71 298.068V316.742L0 167.893Z" fill="#77C998"/>
<g filter="url(#filter0_d_65_261)">
<path d="M499.313 177.192V158.594L257.71 298.068L257.64 316.806L499.313 177.192Z" fill="#58A577"/>
</g>
<path d="M241.603 9.7876L241.624 28.3857L499.313 177.192V158.594L241.603 9.7876Z" fill="#58A577"/>
<path d="M0 149.295L241.603 9.7876L241.624 28.3857L0 167.893V149.295Z" fill="#77C998"/>
<path d="M500 158.798L241.603 9.7876L0 149.295L258.397 298.294L500 158.798Z" fill="#62B784"/>
<path d="M97.3337 130.589V93.393L105.511 88.6737L105.317 125.983L97.3337 130.589Z" fill="#EAEAEA" stroke="#D6D6D6" stroke-width="2" stroke-miterlimit="10"/>
<path d="M81.2269 140.028V102.832L89.4039 98.1123L89.2106 135.421L81.2269 140.028Z" fill="#EAEAEA" stroke="#D6D6D6" stroke-width="2" stroke-miterlimit="10"/>
<path d="M65.4153 149.144V111.948L73.5869 107.229L73.3936 144.538L65.4153 149.144Z" fill="#EAEAEA" stroke="#D6D6D6" stroke-width="2" stroke-miterlimit="10"/>
<path d="M113.441 121.15V83.9543L121.618 79.235L121.424 116.544L113.441 121.15Z" fill="#EAEAEA" stroke="#D6D6D6" stroke-width="2" stroke-miterlimit="10"/>
<path d="M129.547 111.712V74.5157L137.724 69.7964L137.531 107.105L129.547 111.712Z" fill="#EAEAEA" stroke="#D6D6D6" stroke-width="2" stroke-miterlimit="10"/>
<path d="M145.654 102.273V65.0771L153.831 60.3578L153.638 97.6667L145.654 102.273Z" fill="#EAEAEA" stroke="#D6D6D6" stroke-width="2" stroke-miterlimit="10"/>
<path d="M161.761 92.8346V55.6385L169.938 50.9192L169.745 88.2281L161.761 92.8346Z" fill="#EAEAEA" stroke="#D6D6D6" stroke-width="2" stroke-miterlimit="10"/>
<path d="M177.868 83.396V46.1999L186.045 41.4806L185.852 78.7895L177.868 83.396Z" fill="#EAEAEA" stroke="#D6D6D6" stroke-width="2" stroke-miterlimit="10"/>
<path d="M193.975 73.9573V36.7612L202.152 32.0419L201.959 69.3507L193.975 73.9573Z" fill="#EAEAEA" stroke="#D6D6D6" stroke-width="2" stroke-miterlimit="10"/>
<path d="M210.082 64.5187V27.3226L218.259 22.6033L218.065 59.9121L210.082 64.5187Z" fill="#EAEAEA" stroke="#D6D6D6" stroke-width="2" stroke-miterlimit="10"/>
<path d="M226.189 55.0801V17.884L234.366 13.1647L234.172 50.4735L226.189 55.0801Z" fill="#EAEAEA" stroke="#D6D6D6" stroke-width="2" stroke-miterlimit="10"/>
<path d="M242.296 45.6415V8.44538L250.472 3.72607L250.279 41.0349L242.296 45.6415Z" fill="#EAEAEA" stroke="#D6D6D6" stroke-width="2" stroke-miterlimit="10"/>
<path d="M65.1201 141.606L258.408 30.0125L258.402 32.1976L65.1093 143.797L65.1201 141.606Z" fill="#EAEAEA" stroke="#D6D6D6" stroke-width="2" stroke-miterlimit="10"/>
<path d="M64.6637 120.952L258.402 9.13794L258.397 11.3338L64.653 123.142L64.6637 120.952Z" fill="#EAEAEA" stroke="#D6D6D6" stroke-width="2" stroke-miterlimit="10"/>
<path d="M250.762 250.983L65.5334 144.044V141.977L250.628 248.712L250.762 250.983Z" fill="#EAEAEA"/>
<path d="M250.784 251.031C250.569 250.66 64.8731 144.629 65.0986 144.044V141.23L65.7429 141.601C116.834 170.781 176.692 205.513 227.644 235.16L250.687 248.663H250.719C250.762 249.452 250.789 250.274 250.816 251.02L250.784 251.031ZM250.725 250.94C250.666 250.183 250.596 249.452 250.553 248.717L250.585 248.776L227.365 235.59C184.842 211.333 130.782 180.289 88.4052 155.769L65.3187 142.347L65.963 141.977V144.044C64.3845 142.433 251.111 251.391 250.736 250.94H250.725Z" fill="#D6D6D6"/>
<path d="M250.644 230.151L65.4153 123.212V121.145L250.51 227.88L250.644 230.151Z" fill="#EAEAEA"/>
<path d="M250.671 230.199C250.456 229.829 64.7603 123.797 64.9858 123.212V120.404L65.6301 120.769C116.716 149.95 176.596 184.66 227.499 214.318L250.542 227.821H250.574C250.623 228.61 250.644 229.405 250.671 230.178V230.199ZM250.617 230.108C250.553 229.351 250.489 228.621 250.44 227.885L250.472 227.944L227.246 214.758C184.746 190.501 130.664 159.458 88.2871 134.943L65.2006 121.521L65.8448 121.15V123.218C64.2664 121.607 250.993 230.564 250.623 230.113L250.617 230.108Z" fill="#D6D6D6"/>
<path d="M65.1201 149.418V112.222L73.1735 116.871V154.068L65.1201 149.418Z" fill="white"/>
<path d="M65.0717 149.445L64.7549 112.211V111.583L65.2918 111.894L73.3882 116.506L73.5976 116.624C73.7372 122.906 73.7587 129.193 73.7265 135.475C73.7265 137.789 73.6942 142.454 73.6513 144.774C73.6137 148.065 73.5708 151.351 73.4849 154.642C70.9507 153.144 67.579 151.013 65.0717 149.45V149.445ZM65.1684 149.391C67.5683 150.637 70.999 152.521 73.3345 153.788L72.8513 154.068C72.7708 150.97 72.7332 147.872 72.6956 144.769C72.6151 138.739 72.5882 132.178 72.6258 126.17C72.6258 123.071 72.6652 119.971 72.7439 116.871L72.9587 117.242L64.9643 112.539L65.5012 112.222L65.1845 149.391H65.1684Z" fill="#EAEAEA"/>
<path d="M81.2269 158.604V121.408L89.2804 126.058V163.254L81.2269 158.604Z" fill="white"/>
<path d="M81.1786 158.631L80.8618 121.408V120.802L81.3987 121.118L89.4844 125.709L89.6937 125.832C89.8333 132.114 89.8548 138.396 89.8226 144.683C89.8226 146.997 89.7904 151.662 89.7474 153.982C89.7099 157.267 89.6669 160.559 89.581 163.844C87.0469 162.352 83.6751 160.22 81.1678 158.658L81.1786 158.631ZM81.2752 158.577C83.6752 159.823 87.1059 161.708 89.4414 162.975L88.9582 163.254C88.8777 160.156 88.8401 157.053 88.8025 153.955C88.722 147.925 88.6951 141.365 88.7327 135.357C88.7327 132.253 88.7721 129.154 88.8508 126.058L89.0656 126.428L81.0712 121.725L81.6081 121.408L81.2913 158.577H81.2752Z" fill="#EAEAEA"/>
<path d="M97.3337 167.785V130.589L105.387 135.239V172.44L97.3337 167.785Z" fill="white"/>
<path d="M97.2855 167.817L96.9687 130.589V129.961L97.5056 130.272L105.591 134.868L105.801 134.986C105.94 141.273 105.962 147.555 105.929 153.837C105.929 156.156 105.897 160.816 105.854 163.136C105.817 166.427 105.774 169.718 105.688 173.004C103.154 171.506 99.782 169.374 97.2747 167.817H97.2855ZM97.3821 167.764C99.782 169.004 103.213 170.894 105.548 172.156L105.065 172.44C104.985 169.337 104.947 166.239 104.909 163.136C104.829 157.106 104.802 150.546 104.84 144.538C104.84 141.442 104.879 138.342 104.958 135.239L105.172 135.614L97.1781 130.906L97.715 130.589L97.3982 167.764H97.3821Z" fill="#EAEAEA"/>
<path d="M113.441 177.315V140.119L121.494 144.769V181.965L113.441 177.315Z" fill="white"/>
<path d="M113.392 177.342L113.076 140.13V139.502L113.612 139.813L121.709 144.425L121.918 144.543C122.058 150.825 122.079 157.112 122.047 163.393C122.047 165.707 122.015 170.373 121.972 172.692C121.934 175.984 121.891 179.269 121.805 182.561C119.271 181.063 115.9 178.931 113.392 177.369V177.342ZM113.489 177.288C115.889 178.534 119.32 180.418 121.655 181.685L121.172 181.965C121.091 178.867 121.054 175.769 121.016 172.666C120.936 166.636 120.909 160.075 120.946 154.068C120.946 150.971 120.986 147.872 121.065 144.769L121.279 145.139L113.285 140.436L113.822 140.119L113.505 177.288H113.489Z" fill="#EAEAEA"/>
<path d="M129.547 186.34V149.144L137.601 153.794V190.99L129.547 186.34Z" fill="white"/>
<path d="M129.499 186.367L129.182 149.144V148.511L129.719 148.827L137.805 153.418L138.014 153.536C138.154 159.823 138.175 166.105 138.143 172.392C138.143 174.706 138.111 179.371 138.068 181.691C138.03 184.977 137.988 188.268 137.902 191.554C135.367 190.056 131.996 187.929 129.488 186.367H129.499ZM129.596 186.313C131.996 187.559 135.427 189.444 137.762 190.711L137.279 190.99C137.198 187.887 137.161 184.789 137.123 181.691C137.043 175.661 137.016 169.101 137.053 163.093C137.053 159.989 137.093 156.89 137.171 153.794L137.386 154.164L129.392 149.461L129.929 149.144L129.596 186.303V186.313Z" fill="#EAEAEA"/>
<path d="M145.654 195.983V158.781L153.708 163.431V200.632L145.654 195.983Z" fill="white"/>
<path d="M145.606 196.01L145.289 158.781V158.153L145.826 158.465L153.912 163.061L154.121 163.179C154.261 169.466 154.282 175.747 154.25 182.029C154.25 184.348 154.218 189.009 154.175 191.333C154.137 194.619 154.094 197.91 154.008 201.196C151.474 199.698 148.103 197.567 145.595 196.01H145.606ZM145.703 195.956C148.103 197.196 151.533 199.086 153.869 200.348L153.386 200.632C153.305 197.529 153.268 194.431 153.23 191.333C153.149 185.299 153.123 178.743 153.16 172.73C153.16 169.63 153.2 166.531 153.278 163.431L153.493 163.807L145.499 159.098L146.036 158.781L145.703 195.967V195.956Z" fill="#EAEAEA"/>
<path d="M161.761 204.981V167.785L169.815 172.435V209.631L161.761 204.981Z" fill="white"/>
<path d="M161.713 205.008L161.396 167.785V167.157L161.933 167.468L170.019 172.064L170.228 172.182C170.368 178.464 170.389 184.751 170.357 191.033C170.357 193.347 170.325 198.012 170.282 200.332C170.244 203.623 170.201 206.909 170.115 210.2C167.581 208.702 164.209 206.57 161.702 205.008H161.713ZM161.81 204.954C164.209 206.2 167.64 208.085 169.976 209.352L169.493 209.631C169.412 206.533 169.374 203.43 169.337 200.332C169.256 194.302 169.229 187.742 169.267 181.734C169.267 178.638 169.306 175.538 169.385 172.435L169.6 172.805L161.606 168.102L162.142 167.785L161.826 204.954H161.81Z" fill="#EAEAEA"/>
<path d="M177.868 214.259V177.063L185.922 181.712V218.908L177.868 214.259Z" fill="white"/>
<path d="M177.82 214.286L177.503 177.063V176.429L178.04 176.746L186.126 181.336L186.335 181.455C186.475 187.742 186.496 194.023 186.464 200.31C186.464 202.624 186.432 207.29 186.389 209.609C186.351 212.895 186.308 216.186 186.222 219.472C183.688 217.974 180.316 215.848 177.809 214.286H177.82ZM177.916 214.232C180.316 215.478 183.747 217.362 186.083 218.629L185.599 218.908C185.519 215.805 185.481 212.707 185.444 209.609C185.363 203.58 185.336 197.019 185.374 191.011C185.374 187.908 185.413 184.808 185.492 181.712L185.707 182.083L177.712 177.38L178.249 177.063L177.916 214.221V214.232Z" fill="#EAEAEA"/>
<path d="M194.249 223.912V186.711L202.302 191.366V228.562L194.249 223.912Z" fill="white"/>
<path d="M194.206 223.939L193.884 186.716V186.083L194.421 186.399L202.506 190.99L202.716 191.108C202.855 197.395 202.877 203.677 202.844 209.964C202.844 212.278 202.812 216.943 202.769 219.263C202.732 222.549 202.689 225.84 202.603 229.126C200.069 227.628 196.724 225.502 194.195 223.939H194.206ZM194.297 223.885C196.697 225.126 200.128 227.016 202.463 228.283L201.98 228.562C201.9 225.459 201.862 222.361 201.824 219.263C201.744 213.228 201.717 206.673 201.755 200.665C201.755 197.561 201.794 194.462 201.873 191.366L202.087 191.736L194.066 187.028L194.603 186.716L194.297 223.885Z" fill="#EAEAEA"/>
<path d="M210.082 233.115V195.913L218.135 200.563V237.764L210.082 233.115Z" fill="white"/>
<path d="M210.033 233.142L209.717 195.913V195.285L210.254 195.602L218.339 200.192L218.549 200.31C218.688 206.597 218.71 212.879 218.677 219.166C218.677 221.48 218.645 226.146 218.602 228.465C218.565 231.751 218.522 235.042 218.436 238.328C215.902 236.83 212.53 234.699 210.023 233.142H210.033ZM210.13 233.088C212.53 234.328 215.961 236.218 218.296 237.485L217.813 237.764C217.733 234.661 217.695 231.563 217.657 228.465C217.577 222.43 217.55 215.875 217.588 209.867C217.588 206.764 217.627 203.664 217.706 200.568L217.92 200.939L209.926 196.23L210.463 195.913L210.146 233.088H210.13Z" fill="#EAEAEA"/>
<path d="M226.189 242.177V204.981L234.242 209.631V246.827L226.189 242.177Z" fill="white"/>
<path d="M226.14 242.204L225.824 204.981V204.348L226.361 204.665L234.446 209.255L234.656 209.373C234.795 215.66 234.817 221.942 234.784 228.229C234.784 230.543 234.752 235.209 234.709 237.528C234.672 240.814 234.629 244.105 234.543 247.391C232.009 245.893 228.637 243.767 226.13 242.204H226.14ZM226.237 242.151C228.637 243.396 232.068 245.281 234.403 246.548L233.92 246.827C233.839 243.724 233.802 240.626 233.764 237.528C233.684 231.499 233.657 224.938 233.694 218.93C233.694 215.827 233.734 212.727 233.813 209.631L234.027 210.001L226.033 205.298L226.57 204.981L226.237 242.14V242.151Z" fill="#EAEAEA"/>
<path d="M242.296 251.541V214.345L250.349 218.994V256.196L242.296 251.541Z" fill="white"/>
<path d="M242.247 251.573L241.93 214.345V213.717L242.467 214.028L250.553 218.624L250.762 218.742C250.902 225.029 250.923 231.311 250.891 237.592C250.891 239.912 250.859 244.572 250.816 246.891C250.778 250.182 250.736 253.474 250.65 256.759C248.115 255.262 244.744 253.13 242.236 251.573H242.247ZM242.344 251.519C244.744 252.76 248.175 254.649 250.51 255.911L250.027 256.196C249.946 253.092 249.909 249.995 249.871 246.891C249.791 240.862 249.764 234.301 249.801 228.293C249.801 225.197 249.841 222.098 249.919 218.994L250.134 219.37L242.14 214.661L242.677 214.345L242.36 251.519H242.344Z" fill="#EAEAEA"/>
<path d="M258.08 37.8297V0.628174L266.134 5.27769V42.4792L258.08 37.8297Z" fill="white"/>
<path d="M258.037 37.8565L257.71 0.628168V0L258.247 0.316768L266.354 4.90722L266.563 5.02534C266.703 11.3124 266.724 17.5941 266.692 23.8811C266.692 26.1951 266.66 30.8608 266.617 33.1801C266.579 36.4659 266.536 39.7571 266.45 43.0429C263.916 41.545 260.571 39.4135 258.043 37.8565H258.037ZM258.129 37.8028C260.529 39.043 263.959 40.9329 266.295 42.2L265.812 42.4792C265.731 39.3759 265.693 36.278 265.656 33.1801C265.575 27.1454 265.549 20.5899 265.586 14.5767C265.586 11.477 265.625 8.37736 265.704 5.27768L265.919 5.65351L257.898 0.944936L258.435 0.628168L258.118 37.8028H258.129Z" fill="#EAEAEA"/>
<path d="M274.187 47.0106V9.81445L282.241 14.464V51.6601L274.187 47.0106Z" fill="white"/>
<path d="M274.144 47.0374L273.817 9.81445V9.18628L274.354 9.49768L282.455 14.0935L282.665 14.2116C282.804 20.4933 282.826 26.7803 282.794 33.062C282.794 35.376 282.761 40.0417 282.718 42.361C282.681 45.6522 282.638 48.938 282.552 52.2292C280.018 50.7312 276.673 48.5998 274.144 47.0374ZM274.235 46.9837C276.635 48.2293 280.066 50.1138 282.402 51.3809L281.918 51.6601C281.838 48.5622 281.8 45.4643 281.763 42.361C281.682 36.3317 281.655 29.7708 281.693 23.763C281.693 20.6669 281.732 17.5672 281.811 14.464L282.026 14.8344L274.005 10.1312L274.541 9.81445L274.225 46.9837H274.235Z" fill="#EAEAEA"/>
<path d="M290.294 56.1968V19.0007L298.347 23.6502V60.8464L290.294 56.1968Z" fill="white"/>
<path d="M290.251 56.2237L289.924 19.0007V18.3672L290.46 18.684L298.562 23.2744L298.772 23.3979C298.911 29.6796 298.933 35.9613 298.9 42.2483C298.9 44.5623 298.868 49.2279 298.825 51.5473C298.788 54.8331 298.745 58.1243 298.659 61.4101C296.125 59.9175 292.78 57.7861 290.251 56.2237ZM290.342 56.17C292.742 57.4156 296.173 59.3001 298.509 60.5672L298.025 60.8464C297.945 57.7485 297.907 54.6452 297.87 51.5473C297.789 45.518 297.762 38.9571 297.8 32.9493C297.8 29.846 297.839 26.7463 297.918 23.6502L298.133 24.0207L290.111 19.3282L290.648 19.0115L290.332 56.1807L290.342 56.17Z" fill="#EAEAEA"/>
<path d="M306.401 65.7268V28.5306L314.454 33.1802V70.3763L306.401 65.7268Z" fill="white"/>
<path d="M306.358 65.7536L306.03 28.5306V27.9186L306.567 28.2353L314.674 32.8043L314.884 32.9224C315.023 39.2095 315.045 45.4912 315.013 51.7782C315.013 54.0922 314.98 58.7579 314.938 61.0772C314.9 64.363 314.857 67.6542 314.771 70.94C312.237 69.4421 308.892 67.316 306.363 65.7536H306.358ZM306.449 65.6999C308.849 66.9455 312.28 68.83 314.615 70.0971L314.132 70.3763C314.052 67.273 314.014 64.1751 313.976 61.0772C313.896 55.0479 313.869 48.487 313.907 42.4792C313.907 39.3759 313.946 36.2763 314.025 33.1802L314.24 33.5506L306.218 28.842L306.755 28.5306L306.438 65.6999H306.449Z" fill="#EAEAEA"/>
<path d="M322.508 74.7465V37.5504L330.561 42.1999V79.396L322.508 74.7465Z" fill="white"/>
<path d="M322.465 74.7734L322.137 37.5504V36.9222L322.674 37.2336L330.776 41.8295L330.985 41.9476C331.125 48.2293 331.146 54.5163 331.114 60.798C331.114 63.112 331.082 67.7776 331.039 70.097C331.001 73.3882 330.958 76.674 330.873 79.9652C328.338 78.4672 324.993 76.3357 322.465 74.7734ZM322.556 74.7197C324.956 75.9653 328.387 77.8498 330.722 79.1169L330.239 79.396C330.158 76.2982 330.121 73.2003 330.083 70.097C330.003 64.0677 329.976 57.5068 330.013 51.499C330.013 48.4029 330.053 45.3032 330.132 42.1999L330.346 42.5704L322.325 37.8672L322.862 37.5504L322.545 74.7197H322.556Z" fill="#EAEAEA"/>
<path d="M338.615 84.3892V47.1931L346.668 51.8426V89.0387L338.615 84.3892Z" fill="white"/>
<path d="M338.572 84.4161L338.244 47.1931V46.5596L338.781 46.8763L346.883 51.4668L347.092 51.5903C347.232 57.872 347.253 64.1536 347.221 70.4407C347.221 72.7547 347.189 77.4203 347.146 79.7397C347.108 83.0255 347.065 86.3167 346.979 89.6025C344.445 88.1099 341.1 85.9784 338.572 84.4161ZM338.663 84.3624C341.063 85.608 344.494 87.4925 346.829 88.7596L346.346 89.0387C346.265 85.9408 346.228 82.8376 346.19 79.7397C346.11 73.7104 346.083 67.1495 346.12 61.1416C346.12 58.0384 346.16 54.9387 346.239 51.8426L346.453 52.2131L338.432 47.5099L338.969 47.1931L338.652 84.3624H338.663Z" fill="#EAEAEA"/>
<path d="M354.721 93.3876V56.1915L362.775 60.841V98.0425L354.721 93.3876Z" fill="white"/>
<path d="M354.679 93.4199L354.356 56.1915V55.5634L354.893 55.8748L362.995 60.4706L363.204 60.5887C363.344 66.8757 363.366 73.1574 363.333 79.4391C363.333 81.7585 363.301 86.4187 363.258 88.7435C363.221 92.0293 363.178 95.3205 363.092 98.6063C360.558 97.1083 357.213 94.9769 354.684 93.4199H354.679ZM354.77 93.3662C357.17 94.6064 360.601 96.4963 362.936 97.758L362.453 98.0425C362.372 94.9393 362.335 91.8414 362.297 88.7435C362.217 82.7088 362.19 76.1533 362.227 70.1401C362.227 67.044 362.267 63.9443 362.345 60.841L362.56 61.2169L354.539 56.5083L355.076 56.1915L354.759 93.3662H354.77Z" fill="#EAEAEA"/>
<path d="M370.828 102.665V65.469L378.882 70.1185V107.315L370.828 102.665Z" fill="white"/>
<path d="M370.785 102.692L370.463 65.469V64.8408L371 65.1522L379.102 69.748L379.311 69.8662C379.451 76.1478 379.472 82.4349 379.44 88.7166C379.44 91.0306 379.408 95.6962 379.365 98.0156C379.327 101.307 379.284 104.593 379.199 107.884C376.664 106.386 373.32 104.254 370.791 102.692H370.785ZM370.877 102.638C373.277 103.884 376.707 105.768 379.043 107.035L378.56 107.315C378.479 104.217 378.442 101.119 378.404 98.0156C378.323 91.9863 378.297 85.4254 378.334 79.4175C378.334 76.3214 378.374 73.2218 378.452 70.1185L378.667 70.489L370.646 65.7858L371.183 65.469L370.866 102.638H370.877Z" fill="#EAEAEA"/>
<path d="M387.209 112.319V75.1224L395.262 79.772V116.968L387.209 112.319Z" fill="white"/>
<path d="M387.155 112.345L386.833 75.1224V74.4889L387.37 74.8057L395.456 79.4015L395.665 79.5196C395.805 85.8013 395.826 92.0883 395.794 98.37C395.794 100.684 395.762 105.35 395.719 107.669C395.681 110.955 395.638 114.246 395.552 117.537C393.018 116.039 389.646 113.908 387.145 112.345H387.155ZM387.247 112.292C389.646 113.537 393.077 115.422 395.413 116.689L394.93 116.968C394.849 113.87 394.811 110.767 394.774 107.669C394.693 101.64 394.666 95.0788 394.704 89.071C394.704 85.9713 394.743 82.8716 394.822 79.7719L395.037 80.1424L387.016 75.4392L387.553 75.1224L387.236 112.292H387.247Z" fill="#EAEAEA"/>
<path d="M403.042 121.521V84.3248L411.095 88.9743V126.17L403.042 121.521Z" fill="white"/>
<path d="M402.999 121.548L402.677 84.3248V83.6913L403.214 84.0081L411.316 88.5878L411.525 88.7059C411.665 94.9876 411.686 101.275 411.654 107.556C411.654 109.87 411.622 114.536 411.579 116.855C411.541 120.141 411.498 123.432 411.412 126.723C408.878 125.226 405.533 123.094 403.005 121.532L402.999 121.548ZM403.09 121.494C405.49 122.74 408.921 124.624 411.257 125.891L410.773 126.17C410.693 123.073 410.655 119.969 410.618 116.871C410.537 110.842 410.51 104.281 410.548 98.2734C410.548 95.1773 410.587 92.0776 410.666 88.9743L410.881 89.3448L402.86 84.6416L403.396 84.3248L403.08 121.494H403.09Z" fill="#EAEAEA"/>
<path d="M419.149 130.584V93.3876L427.202 98.0371V135.233L419.149 130.584Z" fill="white"/>
<path d="M419.106 130.611L418.784 93.3876V92.7594L419.321 93.0708L427.422 97.6666L427.632 97.7847C427.771 104.066 427.793 110.353 427.761 116.635C427.761 118.949 427.729 123.615 427.686 125.934C427.648 129.225 427.605 132.511 427.519 135.802C424.985 134.304 421.64 132.173 419.111 130.611H419.106ZM419.197 130.557C421.597 131.802 425.028 133.687 427.363 134.954L426.88 135.233C426.8 132.135 426.762 129.037 426.724 125.934C426.644 119.905 426.617 113.344 426.655 107.336C426.655 104.24 426.694 101.14 426.773 98.0371L426.988 98.4075L418.966 93.7043L419.503 93.3876L419.186 130.557H419.197Z" fill="#EAEAEA"/>
<path d="M435.256 139.953V102.756L443.309 107.406V144.602L435.256 139.953Z" fill="white"/>
<path d="M435.213 139.979L434.891 102.756V102.123L435.428 102.44L443.529 107.03L443.739 107.154C443.878 113.435 443.9 119.717 443.868 126.004C443.868 128.318 443.835 132.984 443.792 135.303C443.755 138.589 443.712 141.88 443.626 145.166C441.092 143.673 437.747 141.542 435.218 139.979H435.213ZM435.304 139.926C437.704 141.171 441.135 143.056 443.47 144.323L442.987 144.602C442.906 141.504 442.869 138.401 442.831 135.303C442.751 129.274 442.724 122.713 442.761 116.705C442.761 113.602 442.801 110.502 442.88 107.406L443.094 107.776L435.073 103.084L435.61 102.767L435.293 139.936L435.304 139.926Z" fill="#EAEAEA"/>
<path d="M443.723 139.394L258.402 32.1976L258.408 30.0125L443.588 137.123L443.723 139.394Z" fill="white" stroke="#EAEAEA" stroke-width="2" stroke-miterlimit="10"/>
<path d="M443.604 118.563L258.397 11.3338L258.402 9.13794L443.47 116.292L443.604 118.563Z" fill="white"/>
<path d="M443.604 118.563C397.351 91.7178 303.475 38.5974 257.839 11.3285V8.20911C310.615 38.8121 391.418 85.7153 443.443 116.281C443.443 116.281 443.567 118.552 443.572 118.563H443.604ZM443.604 118.563L443.476 116.292C443.508 116.329 397.077 89.7259 397.082 89.7367C367.634 72.8513 288.522 27.1561 258.134 9.59967L258.939 9.13794V11.3338C302.965 35.972 398.162 92.346 443.631 118.563H443.604Z" fill="#EAEAEA"/>
<path d="M250.773 227.998L444.512 116.184L444.507 118.38L250.762 230.194L250.773 227.998Z" fill="#DBDBDB" stroke="#C4C4C4" stroke-width="2" stroke-miterlimit="10"/>
<path d="M251.229 248.652L444.512 137.064V139.249L251.219 250.843L251.229 248.652Z" fill="#DBDBDB" stroke="#C4C4C4" stroke-width="2" stroke-miterlimit="10"/>
<path d="M283.443 237.641V200.439L291.615 195.72L291.421 233.029L283.443 237.641Z" fill="#DBDBDB" stroke="#C4C4C4" stroke-width="2" stroke-miterlimit="10"/>
<path d="M267.336 247.079V209.878L275.508 205.158L275.315 242.467L267.336 247.079Z" fill="#DBDBDB" stroke="#C4C4C4" stroke-width="2" stroke-miterlimit="10"/>
<path d="M251.519 256.196V218.994L259.696 214.275L259.503 251.584L251.519 256.196Z" fill="#DBDBDB" stroke="#C4C4C4" stroke-width="2" stroke-miterlimit="10"/>
<path d="M299.55 228.202V191.001L307.722 186.281L307.528 223.59L299.55 228.202Z" fill="#DBDBDB" stroke="#C4C4C4" stroke-width="2" stroke-miterlimit="10"/>
<path d="M315.657 218.763V181.567L323.829 176.843L323.635 214.152L315.657 218.763Z" fill="#DBDBDB" stroke="#C4C4C4" stroke-width="2" stroke-miterlimit="10"/>
<path d="M331.764 209.325V172.129L339.935 167.409L339.742 204.713L331.764 209.325Z" fill="#DBDBDB" stroke="#C4C4C4" stroke-width="2" stroke-miterlimit="10"/>
<path d="M347.871 199.886V162.685L356.042 157.971L355.849 195.274L347.871 199.886Z" fill="#DBDBDB" stroke="#C4C4C4" stroke-width="2" stroke-miterlimit="10"/>
<path d="M363.978 190.448V153.251L372.149 148.527L371.956 185.836L363.978 190.448Z" fill="#DBDBDB" stroke="#C4C4C4" stroke-width="2" stroke-miterlimit="10"/>
<path d="M380.084 181.009V143.813L388.256 139.088L388.063 176.397L380.084 181.009Z" fill="#DBDBDB" stroke="#C4C4C4" stroke-width="2" stroke-miterlimit="10"/>
<path d="M396.191 171.57V134.374L404.363 129.655L404.169 166.958L396.191 171.57Z" fill="#DBDBDB" stroke="#C4C4C4" stroke-width="2" stroke-miterlimit="10"/>
<path d="M412.298 162.132V124.93L420.47 120.216L420.276 157.52L412.298 162.132Z" fill="#DBDBDB" stroke="#C4C4C4" stroke-width="2" stroke-miterlimit="10"/>
<path d="M428.405 152.693V115.497L436.577 110.772L436.383 148.081L428.405 152.693Z" fill="#DBDBDB" stroke="#C4C4C4" stroke-width="2" stroke-miterlimit="10"/>
</g>
<defs>
<filter id="filter0_d_65_261" x="253.64" y="158.594" width="249.673" height="166.212" filterUnits="userSpaceOnUse" color-interpolation-filters="sRGB">
<feFlood flood-opacity="0" result="BackgroundImageFix"/>
<feColorMatrix in="SourceAlpha" type="matrix" values="0 0 0 0 0 0 0 0 0 0 0 0 0 0 0 0 0 0 127 0" result="hardAlpha"/>
<feOffset dy="4"/>
<feGaussianBlur stdDeviation="2"/>
<feComposite in2="hardAlpha" operator="out"/>
<feColorMatrix type="matrix" values="0 0 0 0 0 0 0 0 0 0 0 0 0 0 0 0 0 0 0.25 0"/>
<feBlend mode="normal" in2="BackgroundImageFix" result="effect1_dropShadow_65_261"/>
<feBlend mode="normal" in="SourceGraphic" in2="effect1_dropShadow_65_261" result="shape"/>
</filter>
<clipPath id="clip0_65_261">
<rect width="500" height="316.806" fill="white"/>
</clipPath>
</defs>
</svg>
