<svg width="68" height="68" viewBox="0 0 68 68" fill="none" xmlns="http://www.w3.org/2000/svg">
<path d="M34 68C52.7777 68 68 52.7777 68 34C68 15.2223 52.7777 0 34 0C15.2223 0 0 15.2223 0 34C0 52.7777 15.2223 68 34 68Z" fill="#FBFBFB"/>
<path d="M16.4037 18.3076V20.8184L51.5963 20.8184V18.3076L16.4037 18.3076Z" fill="#767676" stroke="#767676" stroke-miterlimit="10"/>
<path d="M16.4037 47.1816V49.6924H51.5963V47.1816H16.4037Z" fill="#767676" stroke="#767676" stroke-miterlimit="10"/>
<path d="M22.6806 10.4614H20.1698V57.5384H22.6806V10.4614Z" fill="#767676" stroke="#767676" stroke-miterlimit="10"/>
<path d="M27.7022 10.4614H25.1914V57.5384H27.7022V10.4614Z" fill="#767676" stroke="#767676" stroke-miterlimit="10"/>
<path d="M32.7237 10.4614H30.2129V57.5384H32.7237V10.4614Z" fill="#767676" stroke="#767676" stroke-miterlimit="10"/>
<path d="M37.7452 10.4614H35.2345V57.5384H37.7452V10.4614Z" fill="#767676" stroke="#767676" stroke-miterlimit="10"/>
<path d="M42.7668 10.4614H40.256V57.5384H42.7668V10.4614Z" fill="#767676" stroke="#767676" stroke-miterlimit="10"/>
<path d="M47.7883 10.4614H45.2775V57.5384H47.7883V10.4614Z" fill="#767676" stroke="#767676" stroke-miterlimit="10"/>
</svg>
