<svg width="48" height="48" viewBox="0 0 48 48" fill="none" xmlns="http://www.w3.org/2000/svg">
<path d="M24 48C37.2548 48 48 37.2548 48 24C48 10.7452 37.2548 0 24 0C10.7452 0 0 10.7452 0 24C0 37.2548 10.7452 48 24 48Z" fill="#444444"/>
<path d="M11.5791 12.9231V14.6954L36.4209 14.6954V12.9231L11.5791 12.9231Z" fill="white"/>
<path d="M11.5791 33.3046V35.0769H36.4209V33.3046H11.5791Z" fill="white"/>
<path d="M16.0098 7.38461H14.2375V40.6154H16.0098V7.38461Z" fill="white"/>
<path d="M19.5545 7.38461H17.7822V40.6154H19.5545V7.38461Z" fill="white"/>
<path d="M23.0991 7.38461H21.3268V40.6154H23.0991V7.38461Z" fill="white"/>
<path d="M26.6437 7.38461H24.8714V40.6154H26.6437V7.38461Z" fill="white"/>
<path d="M30.1883 7.38461H28.416V40.6154H30.1883V7.38461Z" fill="white"/>
<path d="M33.7329 7.38461H31.9606V40.6154H33.7329V7.38461Z" fill="white"/>
</svg>
