<svg width="46" height="46" viewBox="0 0 46 46" fill="none" xmlns="http://www.w3.org/2000/svg">
<path d="M23 46C35.7025 46 46 35.7025 46 23C46 10.2975 35.7025 0 23 0C10.2975 0 0 10.2975 0 23C0 35.7025 10.2975 46 23 46Z" fill="#FBFBFB"/>
<path d="M28.8853 32.4233C27.0395 33.2623 25.0268 33.6694 23 33.6139C17.5409 33.6139 12.9274 30.0421 12.9274 24.2854C12.9071 18.143 17.6559 12.853 25.0294 12.853C30.8133 12.853 34.6759 16.4992 34.6759 21.4713C34.6759 25.9495 31.8956 28.581 28.7838 28.581C28.4396 28.6071 28.0939 28.5561 27.7718 28.4316C27.4498 28.3072 27.1596 28.1125 26.9224 27.8617C26.6852 27.6108 26.5069 27.3102 26.4006 26.9818C26.2943 26.6533 26.2627 26.3053 26.308 25.963H26.1997C25.7187 26.7772 25.0298 27.4487 24.2036 27.9088C23.3774 28.3689 22.4437 28.6008 21.4983 28.581C21.0112 28.5885 20.5278 28.4951 20.0785 28.3068C19.6293 28.1184 19.2238 27.8392 18.8877 27.4865C18.5516 27.1339 18.2921 26.7156 18.1255 26.2578C17.9589 25.8 17.8889 25.3127 17.9197 24.8266C17.9197 21.1195 21.1803 17.7371 25.7803 17.7371C26.9999 17.7203 28.2117 17.9337 29.3521 18.3663L28.2224 23.778C27.7285 26.051 28.1074 27.0995 29.2168 27.1604C30.9215 27.201 32.8156 25.131 32.8156 21.708C32.8156 17.3651 29.9135 14.2669 24.7453 14.2669C19.3335 14.2669 14.7944 18.1227 14.7944 24.1907C14.7944 29.1627 18.4135 32.261 23.318 32.261C25.0635 32.2734 26.7883 31.8822 28.3577 31.1177L28.8853 32.4233ZM27.0588 19.523C26.5165 19.3633 25.9533 19.2857 25.388 19.293C23.9727 19.3231 22.6256 19.9065 21.6354 20.9182C20.6452 21.9298 20.0909 23.2892 20.0912 24.7048C20.057 25.0068 20.0912 25.3127 20.1911 25.5998C20.291 25.8869 20.4541 26.1478 20.6684 26.3634C20.8827 26.579 21.1427 26.7437 21.4292 26.8454C21.7156 26.947 22.0213 26.983 22.3235 26.9507C24.2447 26.9507 26.0103 24.7319 26.3824 22.8919L27.0588 19.523Z" fill="#767676"/>
</svg>
