<svg width="46" height="46" viewBox="0 0 46 46" fill="none" xmlns="http://www.w3.org/2000/svg">
<path d="M23 46C35.7025 46 46 35.7025 46 23C46 10.2975 35.7025 0 23 0C10.2975 0 0 10.2975 0 23C0 35.7025 10.2975 46 23 46Z" fill="#FBFBFB"/>
<path d="M31.0432 30.6714L33.7085 14.7338C33.7085 14.7338 33.837 12.5217 31.4964 13.1711C29.1558 13.8205 13.2858 20.6529 12.3117 21.1129C11.3376 21.5729 9.83583 22.2155 9.83583 22.2155C9.83583 22.2155 8.34083 23.1897 9.83583 23.9067C11.0619 24.443 12.323 24.895 13.6105 25.2597C13.6105 25.2597 14.8485 25.9361 16.6682 24.8064C18.4879 23.6767 22.912 20.9708 22.912 20.9708C22.912 20.9708 25.0497 19.4961 26.2944 18.6979C27.5391 17.8997 28.6282 17.7102 27.0655 19.1782C25.5029 20.6461 20.2129 25.7602 20.2129 25.7602C20.2129 25.7602 18.772 26.687 20.1385 27.6882C21.5049 28.6894 28.1411 33.0999 28.1411 33.0999C28.1411 33.0999 30.4817 34.5002 31.0432 30.6714Z" stroke="#767676" stroke-width="2" stroke-linecap="round" stroke-linejoin="round"/>
</svg>
