<svg width="30.94px" height="25.59px" viewBox="0 0 34 29" fill="none" xmlns="http://www.w3.org/2000/svg">
<path d="M29.1414 23.6724L32.502 3.57707C32.502 3.57707 32.6641 0.787951 29.7129 1.60677C26.7617 2.4256 6.75174 11.0403 5.52351 11.6203C4.29527 12.2003 2.40174 13.0106 2.40174 13.0106C2.40174 13.0106 0.516743 14.2388 2.40174 15.143C3.9476 15.8191 5.53776 16.389 7.16115 16.8488C7.16115 16.8488 8.72204 17.7018 11.0164 16.2774C13.3109 14.853 18.8891 11.4412 18.8891 11.4412C18.8891 11.4412 21.5844 9.58177 23.1538 8.5753C24.7232 7.56883 26.0964 7.33001 24.1262 9.18089C22.1559 11.0318 15.4859 17.48 15.4859 17.48C15.4859 17.48 13.6691 18.6485 15.392 19.9109C17.115 21.1732 25.4823 26.7344 25.4823 26.7344C25.4823 26.7344 28.4335 28.5 29.1414 23.6724Z" stroke="#FFE145" stroke-width="2" stroke-linecap="round" stroke-linejoin="round"/>
</svg>
