<svg width="58" height="58" viewBox="0 0 58 58" fill="none" xmlns="http://www.w3.org/2000/svg">
<path d="M19.1315 35.5079C17.3918 32.9888 16.6497 29.9133 17.0492 26.8781C17.4487 23.8428 18.9613 21.0641 21.2935 19.0809C23.6257 17.0976 26.6114 16.0513 29.6715 16.1448C32.7315 16.2383 35.6477 17.465 37.8545 19.587C40.0613 21.7089 41.4014 24.5748 41.6148 27.6288C41.8281 30.6828 40.8997 33.7072 39.0094 36.1154C37.1192 38.5236 34.4019 40.1439 31.3846 40.6621C28.3673 41.1802 25.2651 40.5593 22.6797 38.9197L16.385 41.7941L19.1315 35.5079Z" stroke="#72E3A2" stroke-width="2" stroke-linecap="round" stroke-linejoin="round"/>
<path d="M30.3988 31.7379C30.8338 31.9512 31.2518 32.3776 31.6868 31.8744C32.1218 31.3712 32.8468 30.4329 32.9321 30.3476C33.0173 30.2623 33.5376 30.4159 34.2541 30.6973C34.9706 30.9788 35.6444 31.3797 36.0709 31.5503C36.4973 31.7209 36.6423 32.19 36.395 33.0088C36.1476 33.8276 36.0709 34.3735 34.6123 34.9706C34.2367 35.1744 33.8196 35.2904 33.3926 35.3096C32.9656 35.3288 32.5398 35.2508 32.1473 35.0814C29.8965 34.477 27.8371 33.3084 26.164 31.686C24.4908 30.0636 23.2593 28.0411 22.5859 25.81C22.579 25.2162 22.69 24.627 22.9126 24.0765C23.1351 23.526 23.4648 23.0251 23.8823 22.6029C24.1265 22.3408 24.4605 22.1802 24.8178 22.1534C25.1751 22.1265 25.5293 22.2352 25.81 22.4579C26.3918 23.4992 26.8881 24.586 27.2941 25.7076C27.3623 26.3132 26.7994 26.7738 26.5094 27.0638C26.2194 27.3538 25.8697 27.422 26.3644 28.1641C27.2777 29.7681 28.6963 31.0248 30.3988 31.7379V31.7379Z" stroke="#72E3A2" stroke-width="2" stroke-linecap="round" stroke-linejoin="round"/>
</svg>
