<svg width="46" height="46" viewBox="0 0 46 46" fill="none" xmlns="http://www.w3.org/2000/svg">
<path d="M23 46C35.7025 46 46 35.7025 46 23C46 10.2975 35.7025 0 23 0C10.2975 0 0 10.2975 0 23C0 35.7025 10.2975 46 23 46Z" fill="#FBFBFB"/>
<path d="M15.1732 28.1618C13.7935 26.1639 13.2049 23.7247 13.5218 21.3174C13.8386 18.9101 15.0382 16.7063 16.8879 15.1334C18.7376 13.5605 21.1056 12.7307 23.5325 12.8049C25.9594 12.879 28.2723 13.8519 30.0225 15.5348C31.7727 17.2177 32.8355 19.4907 33.0048 21.9128C33.174 24.335 32.4377 26.7336 30.9385 28.6436C29.4393 30.5535 27.2842 31.8386 24.8912 32.2496C22.4982 32.6605 20.0378 32.1681 17.9873 30.8677L12.995 33.1474L15.1732 28.1618Z" stroke="#767676" stroke-width="2" stroke-linecap="round" stroke-linejoin="round"/>
<path d="M24.1094 25.1711C24.4544 25.3402 24.7858 25.6785 25.1308 25.2794C25.4758 24.8802 26.0508 24.1361 26.1185 24.0685C26.1861 24.0008 26.5988 24.1226 27.167 24.3458C27.7353 24.5691 28.2697 24.887 28.6079 25.0223C28.9461 25.1576 29.0611 25.5297 28.865 26.1791C28.6688 26.8285 28.6079 27.2614 27.4511 27.735C27.1532 27.8966 26.8224 27.9886 26.4838 28.0038C26.1451 28.019 25.8074 27.9572 25.4961 27.8229C23.711 27.3435 22.0777 26.4167 20.7507 25.1299C19.4237 23.8432 18.447 22.2392 17.9129 20.4697C17.9074 19.9987 17.9955 19.5314 18.172 19.0948C18.3485 18.6582 18.6099 18.261 18.9411 17.9261C19.1348 17.7182 19.3997 17.5909 19.6831 17.5696C19.9664 17.5483 20.2474 17.6345 20.47 17.8111C20.9314 18.637 21.325 19.499 21.647 20.3885C21.7011 20.8688 21.2547 21.2341 21.0247 21.4641C20.7947 21.6941 20.5173 21.7482 20.9097 22.3367C21.634 23.6089 22.7591 24.6055 24.1094 25.1711V25.1711Z" stroke="#767676" stroke-width="2" stroke-linecap="round" stroke-linejoin="round"/>
</svg>
