<svg width="1062" height="600" viewBox="0 0 1062 600" fill="none" xmlns="http://www.w3.org/2000/svg">
<g filter="url(#filter0_d_101_626)">
<rect x="34" y="11" width="994" height="578" rx="50" fill="white"/>
</g>
<path d="M34 489H1028V539C1028 566.614 1005.61 589 978 589H84C56.3857 589 34 566.614 34 539V489Z" fill="white"/>
<path d="M89.25 526.621V528.73C91.0859 528.77 92.5469 529.082 93.6328 529.668C94.7266 530.246 95.5117 531.008 95.9883 531.953C96.4727 532.898 96.7148 533.949 96.7148 535.105C96.7148 535.871 96.5898 536.633 96.3398 537.391C96.0898 538.148 95.6797 538.84 95.1094 539.465C94.5391 540.09 93.7734 540.594 92.8125 540.977C91.8516 541.359 90.6641 541.566 89.25 541.598V544.234H86.625V541.598C85.1797 541.566 83.9766 541.355 83.0156 540.965C82.0547 540.574 81.2891 540.066 80.7188 539.441C80.1562 538.809 79.7539 538.117 79.5117 537.367C79.2773 536.609 79.1602 535.859 79.1602 535.117C79.1602 534.266 79.2891 533.461 79.5469 532.703C79.8125 531.945 80.2383 531.273 80.8242 530.688C81.4102 530.102 82.1797 529.637 83.1328 529.293C84.0859 528.949 85.25 528.762 86.625 528.73V526.621H89.25ZM86.625 530.992C85.4609 531.031 84.5312 531.227 83.8359 531.578C83.1406 531.922 82.6406 532.395 82.3359 532.996C82.0312 533.598 81.8789 534.297 81.8789 535.094C81.8789 535.945 82.0469 536.684 82.3828 537.309C82.7188 537.934 83.2383 538.426 83.9414 538.785C84.6445 539.137 85.5391 539.332 86.625 539.371V530.992ZM89.25 530.992V539.371C90.3594 539.332 91.2617 539.133 91.957 538.773C92.6602 538.414 93.1758 537.922 93.5039 537.297C93.8398 536.664 94.0078 535.926 94.0078 535.082C94.0078 534.277 93.8555 533.578 93.5508 532.984C93.2461 532.383 92.7461 531.91 92.0508 531.566C91.3555 531.223 90.4219 531.031 89.25 530.992ZM113.752 537.484C113.752 538.562 113.611 539.52 113.33 540.355C113.048 541.191 112.638 541.898 112.099 542.477C111.56 543.047 110.912 543.484 110.154 543.789C109.396 544.086 108.541 544.234 107.587 544.234C106.697 544.234 105.88 544.086 105.138 543.789C104.396 543.484 103.752 543.047 103.205 542.477C102.666 541.898 102.248 541.191 101.951 540.355C101.654 539.52 101.505 538.562 101.505 537.484C101.505 536.055 101.752 534.844 102.244 533.852C102.744 532.852 103.455 532.09 104.377 531.566C105.298 531.043 106.396 530.781 107.67 530.781C108.865 530.781 109.92 531.043 110.834 531.566C111.748 532.09 112.462 532.852 112.978 533.852C113.494 534.852 113.752 536.062 113.752 537.484ZM104.341 537.484C104.341 538.43 104.455 539.238 104.681 539.91C104.916 540.582 105.275 541.098 105.759 541.457C106.244 541.809 106.869 541.984 107.634 541.984C108.4 541.984 109.025 541.809 109.509 541.457C109.994 541.098 110.349 540.582 110.576 539.91C110.802 539.238 110.916 538.43 110.916 537.484C110.916 536.539 110.802 535.738 110.576 535.082C110.349 534.418 109.994 533.914 109.509 533.57C109.025 533.219 108.396 533.043 107.623 533.043C106.482 533.043 105.65 533.426 105.127 534.191C104.603 534.957 104.341 536.055 104.341 537.484ZM129.112 533.195H124.847V544H122.105V533.195H117.862V531.027H129.112V533.195ZM145.505 537.484C145.505 538.562 145.364 539.52 145.083 540.355C144.802 541.191 144.391 541.898 143.852 542.477C143.313 543.047 142.665 543.484 141.907 543.789C141.149 544.086 140.294 544.234 139.341 544.234C138.45 544.234 137.634 544.086 136.891 543.789C136.149 543.484 135.505 543.047 134.958 542.477C134.419 541.898 134.001 541.191 133.704 540.355C133.407 539.52 133.259 538.562 133.259 537.484C133.259 536.055 133.505 534.844 133.997 533.852C134.497 532.852 135.208 532.09 136.13 531.566C137.052 531.043 138.149 530.781 139.423 530.781C140.618 530.781 141.673 531.043 142.587 531.566C143.501 532.09 144.216 532.852 144.731 533.852C145.247 534.852 145.505 536.062 145.505 537.484ZM136.095 537.484C136.095 538.43 136.208 539.238 136.434 539.91C136.669 540.582 137.028 541.098 137.513 541.457C137.997 541.809 138.622 541.984 139.388 541.984C140.153 541.984 140.778 541.809 141.263 541.457C141.747 541.098 142.102 540.582 142.329 539.91C142.555 539.238 142.669 538.43 142.669 537.484C142.669 536.539 142.555 535.738 142.329 535.082C142.102 534.418 141.747 533.914 141.263 533.57C140.778 533.219 140.149 533.043 139.376 533.043C138.235 533.043 137.403 533.426 136.88 534.191C136.356 534.957 136.095 536.055 136.095 537.484ZM159.483 531.027V533.195H153.834V544H151.069V531.027H159.483ZM171.047 530.781C172.586 530.781 173.82 531.344 174.75 532.469C175.688 533.594 176.156 535.266 176.156 537.484C176.156 538.953 175.938 540.191 175.5 541.199C175.07 542.199 174.465 542.957 173.684 543.473C172.91 543.98 172.008 544.234 170.977 544.234C170.32 544.234 169.75 544.148 169.266 543.977C168.781 543.805 168.367 543.582 168.023 543.309C167.68 543.027 167.391 542.723 167.156 542.395H166.992C167.031 542.707 167.066 543.055 167.098 543.438C167.137 543.812 167.156 544.156 167.156 544.469V549.754H164.391V531.027H166.641L167.027 532.82H167.156C167.398 532.453 167.691 532.113 168.035 531.801C168.387 531.488 168.809 531.242 169.301 531.062C169.801 530.875 170.383 530.781 171.047 530.781ZM170.309 533.031C169.551 533.031 168.941 533.184 168.48 533.488C168.027 533.785 167.695 534.234 167.484 534.836C167.281 535.438 167.172 536.191 167.156 537.098V537.484C167.156 538.445 167.254 539.262 167.449 539.934C167.652 540.598 167.984 541.105 168.445 541.457C168.914 541.801 169.547 541.973 170.344 541.973C171.016 541.973 171.57 541.789 172.008 541.422C172.453 541.055 172.785 540.531 173.004 539.852C173.223 539.172 173.332 538.371 173.332 537.449C173.332 536.051 173.082 534.965 172.582 534.191C172.09 533.418 171.332 533.031 170.309 533.031ZM186.83 530.781C188.47 530.781 189.709 531.145 190.545 531.871C191.388 532.598 191.81 533.73 191.81 535.27V544H189.853L189.326 542.16H189.232C188.865 542.629 188.486 543.016 188.095 543.32C187.705 543.625 187.252 543.852 186.736 544C186.228 544.156 185.607 544.234 184.873 544.234C184.099 544.234 183.408 544.094 182.798 543.812C182.189 543.523 181.709 543.086 181.357 542.5C181.005 541.914 180.83 541.172 180.83 540.273C180.83 538.938 181.326 537.934 182.318 537.262C183.318 536.59 184.826 536.219 186.841 536.148L189.091 536.066V535.387C189.091 534.488 188.88 533.848 188.459 533.465C188.045 533.082 187.459 532.891 186.701 532.891C186.052 532.891 185.423 532.984 184.814 533.172C184.205 533.359 183.611 533.59 183.033 533.863L182.142 531.918C182.775 531.582 183.494 531.309 184.298 531.098C185.111 530.887 185.955 530.781 186.83 530.781ZM189.08 537.801L187.404 537.859C186.029 537.906 185.064 538.141 184.509 538.562C183.955 538.984 183.677 539.562 183.677 540.297C183.677 540.938 183.869 541.406 184.252 541.703C184.634 541.992 185.138 542.137 185.763 542.137C186.716 542.137 187.505 541.867 188.13 541.328C188.763 540.781 189.08 539.98 189.08 538.926V537.801ZM206.585 525.766V530.898C207.976 531.016 209.167 531.359 210.159 531.93C211.152 532.492 211.913 533.246 212.445 534.191C212.976 535.137 213.241 536.242 213.241 537.508C213.241 538.758 212.984 539.859 212.468 540.812C211.96 541.766 211.21 542.527 210.218 543.098C209.234 543.668 208.023 544.016 206.585 544.141V549.766H203.972V544.141C202.581 544.023 201.39 543.68 200.398 543.109C199.405 542.539 198.64 541.777 198.101 540.824C197.562 539.871 197.292 538.766 197.292 537.508C197.292 536.234 197.546 535.121 198.054 534.168C198.562 533.215 199.312 532.457 200.304 531.895C201.296 531.332 202.53 531 204.007 530.898V525.766H206.585ZM204.007 533.043C203.163 533.137 202.452 533.379 201.874 533.77C201.304 534.152 200.874 534.66 200.585 535.293C200.296 535.926 200.152 536.664 200.152 537.508C200.152 538.359 200.292 539.105 200.573 539.746C200.863 540.379 201.292 540.887 201.863 541.27C202.441 541.652 203.155 541.891 204.007 541.984V533.043ZM206.585 533.078V541.984C207.429 541.891 208.132 541.652 208.695 541.27C209.265 540.879 209.691 540.367 209.972 539.734C210.261 539.094 210.405 538.352 210.405 537.508C210.405 536.242 210.077 535.223 209.421 534.449C208.773 533.676 207.827 533.219 206.585 533.078ZM221.466 531.027V537.648C221.466 537.859 221.458 538.129 221.442 538.457C221.434 538.777 221.419 539.113 221.395 539.465C221.372 539.809 221.348 540.125 221.325 540.414C221.302 540.703 221.282 540.918 221.266 541.059L227.794 531.027H231.145V544H228.509V537.449C228.509 537.105 228.516 536.707 228.532 536.254C228.555 535.801 228.579 535.363 228.602 534.941C228.634 534.52 228.653 534.199 228.661 533.98L222.157 544H218.817V531.027H221.466ZM240.155 531.027V537.648C240.155 537.859 240.147 538.129 240.131 538.457C240.123 538.777 240.108 539.113 240.084 539.465C240.061 539.809 240.038 540.125 240.014 540.414C239.991 540.703 239.971 540.918 239.955 541.059L246.483 531.027H249.834V544H247.198V537.449C247.198 537.105 247.205 536.707 247.221 536.254C247.245 535.801 247.268 535.363 247.291 534.941C247.323 534.52 247.342 534.199 247.35 533.98L240.846 544H237.506V531.027H240.155ZM275.423 531.027V541.867H277.298V548.57H274.755V544H265.802V548.57H263.259V541.867H264.314C264.97 540.914 265.517 539.852 265.955 538.68C266.4 537.508 266.744 536.273 266.986 534.977C267.236 533.672 267.392 532.355 267.455 531.027H275.423ZM272.693 533.137H269.822C269.728 534.191 269.568 535.242 269.341 536.289C269.115 537.328 268.822 538.324 268.462 539.277C268.111 540.223 267.689 541.086 267.197 541.867H272.693V533.137ZM293.597 537.484C293.597 538.562 293.456 539.52 293.175 540.355C292.894 541.191 292.484 541.898 291.945 542.477C291.405 543.047 290.757 543.484 289.999 543.789C289.241 544.086 288.386 544.234 287.433 544.234C286.542 544.234 285.726 544.086 284.984 543.789C284.241 543.484 283.597 543.047 283.05 542.477C282.511 541.898 282.093 541.191 281.796 540.355C281.499 539.52 281.351 538.562 281.351 537.484C281.351 536.055 281.597 534.844 282.089 533.852C282.589 532.852 283.3 532.09 284.222 531.566C285.144 531.043 286.241 530.781 287.515 530.781C288.71 530.781 289.765 531.043 290.679 531.566C291.593 532.09 292.308 532.852 292.823 533.852C293.339 534.852 293.597 536.062 293.597 537.484ZM284.187 537.484C284.187 538.43 284.3 539.238 284.527 539.91C284.761 540.582 285.12 541.098 285.605 541.457C286.089 541.809 286.714 541.984 287.48 541.984C288.245 541.984 288.87 541.809 289.355 541.457C289.839 541.098 290.195 540.582 290.421 539.91C290.648 539.238 290.761 538.43 290.761 537.484C290.761 536.539 290.648 535.738 290.421 535.082C290.195 534.418 289.839 533.914 289.355 533.57C288.87 533.219 288.241 533.043 287.468 533.043C286.327 533.043 285.495 533.426 284.972 534.191C284.448 534.957 284.187 536.055 284.187 537.484ZM310.071 534.355C310.071 535.105 309.841 535.719 309.38 536.195C308.927 536.664 308.302 536.973 307.505 537.121V537.215C308.356 537.324 309.067 537.625 309.637 538.117C310.208 538.609 310.493 539.293 310.493 540.168C310.493 540.91 310.305 541.57 309.93 542.148C309.563 542.719 308.977 543.172 308.173 543.508C307.376 543.836 306.333 544 305.044 544H299.161V531.027H305.02C305.989 531.027 306.852 531.133 307.61 531.344C308.376 531.555 308.977 531.902 309.415 532.387C309.852 532.871 310.071 533.527 310.071 534.355ZM307.622 540.074C307.622 539.434 307.376 538.973 306.884 538.691C306.399 538.41 305.688 538.27 304.751 538.27H301.927V541.973H304.809C305.684 541.973 306.372 541.828 306.872 541.539C307.372 541.242 307.622 540.754 307.622 540.074ZM307.27 534.602C307.27 534.094 307.079 533.719 306.696 533.477C306.313 533.227 305.712 533.102 304.891 533.102H301.927V536.242H304.516C305.423 536.242 306.106 536.113 306.567 535.855C307.036 535.59 307.27 535.172 307.27 534.602ZM327.483 537.484C327.483 538.562 327.342 539.52 327.061 540.355C326.78 541.191 326.37 541.898 325.83 542.477C325.291 543.047 324.643 543.484 323.885 543.789C323.127 544.086 322.272 544.234 321.319 544.234C320.428 544.234 319.612 544.086 318.87 543.789C318.127 543.484 317.483 543.047 316.936 542.477C316.397 541.898 315.979 541.191 315.682 540.355C315.385 539.52 315.237 538.562 315.237 537.484C315.237 536.055 315.483 534.844 315.975 533.852C316.475 532.852 317.186 532.09 318.108 531.566C319.03 531.043 320.127 530.781 321.401 530.781C322.596 530.781 323.651 531.043 324.565 531.566C325.479 532.09 326.194 532.852 326.709 533.852C327.225 534.852 327.483 536.062 327.483 537.484ZM318.073 537.484C318.073 538.43 318.186 539.238 318.413 539.91C318.647 540.582 319.006 541.098 319.491 541.457C319.975 541.809 320.6 541.984 321.366 541.984C322.131 541.984 322.756 541.809 323.241 541.457C323.725 541.098 324.08 540.582 324.307 539.91C324.534 539.238 324.647 538.43 324.647 537.484C324.647 536.539 324.534 535.738 324.307 535.082C324.08 534.418 323.725 533.914 323.241 533.57C322.756 533.219 322.127 533.043 321.354 533.043C320.213 533.043 319.381 533.426 318.858 534.191C318.334 534.957 318.073 536.055 318.073 537.484ZM343.723 544H340.945V533.184H337.348C337.191 535.152 336.996 536.836 336.762 538.234C336.527 539.633 336.234 540.773 335.883 541.656C335.531 542.531 335.098 543.172 334.582 543.578C334.066 543.984 333.445 544.188 332.719 544.188C332.398 544.188 332.109 544.164 331.852 544.117C331.594 544.078 331.363 544.016 331.16 543.93V541.762C331.293 541.809 331.438 541.848 331.594 541.879C331.75 541.91 331.91 541.926 332.074 541.926C332.363 541.926 332.629 541.809 332.871 541.574C333.121 541.332 333.352 540.953 333.562 540.438C333.773 539.922 333.965 539.242 334.137 538.398C334.309 537.547 334.465 536.516 334.605 535.305C334.746 534.086 334.871 532.66 334.98 531.027H343.723V544ZM352.837 536.207H356.06C357.279 536.207 358.287 536.348 359.084 536.629C359.888 536.902 360.49 537.316 360.888 537.871C361.287 538.426 361.486 539.121 361.486 539.957C361.486 540.777 361.298 541.492 360.923 542.102C360.548 542.703 359.962 543.172 359.166 543.508C358.377 543.836 357.345 544 356.072 544H350.072V531.027H352.837V536.207ZM358.72 540.027C358.72 539.379 358.478 538.922 357.994 538.656C357.509 538.383 356.818 538.246 355.92 538.246H352.837V541.973H355.943C356.763 541.973 357.431 541.824 357.947 541.527C358.462 541.223 358.72 540.723 358.72 540.027ZM369.698 531.027V536.242H375.769V531.027H378.534V544H375.769V538.398H369.698V544H366.933V531.027H369.698ZM384.872 544V531.027H387.638V536.207H390.251C391.47 536.207 392.473 536.348 393.263 536.629C394.052 536.902 394.638 537.316 395.02 537.871C395.403 538.426 395.595 539.121 395.595 539.957C395.595 540.777 395.411 541.492 395.044 542.102C394.677 542.703 394.102 543.172 393.321 543.508C392.54 543.836 391.516 544 390.251 544H384.872ZM387.638 541.973H390.063C390.891 541.973 391.559 541.824 392.067 541.527C392.583 541.223 392.841 540.723 392.841 540.027C392.841 539.379 392.602 538.922 392.126 538.656C391.657 538.383 390.97 538.246 390.063 538.246H387.638V541.973ZM397.598 544V531.027H400.364V544H397.598ZM409.573 537.367L405.237 531.027H408.377L411.342 535.586L414.319 531.027H417.448L413.088 537.367L417.67 544H414.518L411.342 539.137L408.155 544H405.026L409.573 537.367ZM438.994 531.027H442.029L436.662 537.262L442.486 544H439.31L433.72 537.414V544H430.955V531.027H433.72V537.32L438.994 531.027ZM457.671 544H454.894V533.184H451.296C451.14 535.152 450.945 536.836 450.71 538.234C450.476 539.633 450.183 540.773 449.831 541.656C449.48 542.531 449.046 543.172 448.53 543.578C448.015 543.984 447.394 544.188 446.667 544.188C446.347 544.188 446.058 544.164 445.8 544.117C445.542 544.078 445.312 544.016 445.109 543.93V541.762C445.241 541.809 445.386 541.848 445.542 541.879C445.698 541.91 445.859 541.926 446.023 541.926C446.312 541.926 446.577 541.809 446.82 541.574C447.07 541.332 447.3 540.953 447.511 540.438C447.722 539.922 447.913 539.242 448.085 538.398C448.257 537.547 448.413 536.516 448.554 535.305C448.695 534.086 448.82 532.66 448.929 531.027H457.671V544ZM466.669 531.027V537.648C466.669 537.859 466.661 538.129 466.645 538.457C466.638 538.777 466.622 539.113 466.598 539.465C466.575 539.809 466.552 540.125 466.528 540.414C466.505 540.703 466.485 540.918 466.47 541.059L472.997 531.027H476.348V544H473.712V537.449C473.712 537.105 473.72 536.707 473.735 536.254C473.759 535.801 473.782 535.363 473.805 534.941C473.837 534.52 473.856 534.199 473.864 533.98L467.36 544H464.02V531.027H466.669ZM487.877 530.781C489.034 530.781 490.026 531.02 490.854 531.496C491.682 531.973 492.319 532.648 492.764 533.523C493.209 534.398 493.432 535.445 493.432 536.664V538.141H484.772C484.803 539.398 485.139 540.367 485.78 541.047C486.428 541.727 487.334 542.066 488.498 542.066C489.327 542.066 490.069 541.988 490.725 541.832C491.389 541.668 492.073 541.43 492.776 541.117V543.355C492.127 543.66 491.467 543.883 490.795 544.023C490.123 544.164 489.319 544.234 488.381 544.234C487.108 544.234 485.987 543.988 485.018 543.496C484.057 542.996 483.303 542.254 482.756 541.27C482.217 540.285 481.948 539.062 481.948 537.602C481.948 536.148 482.194 534.914 482.686 533.898C483.178 532.883 483.87 532.109 484.76 531.578C485.651 531.047 486.69 530.781 487.877 530.781ZM487.877 532.855C487.01 532.855 486.307 533.137 485.768 533.699C485.237 534.262 484.924 535.086 484.83 536.172H490.737C490.729 535.523 490.62 534.949 490.409 534.449C490.205 533.949 489.893 533.559 489.471 533.277C489.057 532.996 488.526 532.855 487.877 532.855ZM501.703 531.027V536.242H507.773V531.027H510.539V544H507.773V538.398H501.703V544H498.938V531.027H501.703ZM526.673 533.195H522.408V544H519.666V533.195H515.423V531.027H526.673V533.195ZM543.066 537.484C543.066 538.562 542.925 539.52 542.644 540.355C542.362 541.191 541.952 541.898 541.413 542.477C540.874 543.047 540.226 543.484 539.468 543.789C538.71 544.086 537.855 544.234 536.902 544.234C536.011 544.234 535.195 544.086 534.452 543.789C533.71 543.484 533.066 543.047 532.519 542.477C531.98 541.898 531.562 541.191 531.265 540.355C530.968 539.52 530.82 538.562 530.82 537.484C530.82 536.055 531.066 534.844 531.558 533.852C532.058 532.852 532.769 532.09 533.691 531.566C534.612 531.043 535.71 530.781 536.984 530.781C538.179 530.781 539.234 531.043 540.148 531.566C541.062 532.09 541.777 532.852 542.292 533.852C542.808 534.852 543.066 536.062 543.066 537.484ZM533.655 537.484C533.655 538.43 533.769 539.238 533.995 539.91C534.23 540.582 534.589 541.098 535.073 541.457C535.558 541.809 536.183 541.984 536.948 541.984C537.714 541.984 538.339 541.809 538.823 541.457C539.308 541.098 539.663 540.582 539.89 539.91C540.116 539.238 540.23 538.43 540.23 537.484C540.23 536.539 540.116 535.738 539.89 535.082C539.663 534.418 539.308 533.914 538.823 533.57C538.339 533.219 537.71 533.043 536.937 533.043C535.796 533.043 534.964 533.426 534.441 534.191C533.917 534.957 533.655 536.055 533.655 537.484ZM559.54 534.355C559.54 535.105 559.309 535.719 558.848 536.195C558.395 536.664 557.77 536.973 556.973 537.121V537.215C557.825 537.324 558.536 537.625 559.106 538.117C559.677 538.609 559.962 539.293 559.962 540.168C559.962 540.91 559.774 541.57 559.399 542.148C559.032 542.719 558.446 543.172 557.641 543.508C556.845 543.836 555.802 544 554.513 544H548.63V531.027H554.489C555.458 531.027 556.321 531.133 557.079 531.344C557.845 531.555 558.446 531.902 558.884 532.387C559.321 532.871 559.54 533.527 559.54 534.355ZM557.091 540.074C557.091 539.434 556.845 538.973 556.352 538.691C555.868 538.41 555.157 538.27 554.22 538.27H551.395V541.973H554.278C555.153 541.973 555.841 541.828 556.341 541.539C556.841 541.242 557.091 540.754 557.091 540.074ZM556.739 534.602C556.739 534.094 556.548 533.719 556.165 533.477C555.782 533.227 555.18 533.102 554.36 533.102H551.395V536.242H553.985C554.891 536.242 555.575 536.113 556.036 535.855C556.505 535.59 556.739 535.172 556.739 534.602Z" fill="#767676"/>
<defs>
<filter id="filter0_d_101_626" x="23" y="0" width="1016" height="600" filterUnits="userSpaceOnUse" color-interpolation-filters="sRGB">
<feFlood flood-opacity="0" result="BackgroundImageFix"/>
<feColorMatrix in="SourceAlpha" type="matrix" values="0 0 0 0 0 0 0 0 0 0 0 0 0 0 0 0 0 0 127 0" result="hardAlpha"/>
<feMorphology radius="1" operator="dilate" in="SourceAlpha" result="effect1_dropShadow_101_626"/>
<feOffset/>
<feGaussianBlur stdDeviation="5"/>
<feComposite in2="hardAlpha" operator="out"/>
<feColorMatrix type="matrix" values="0 0 0 0 0.668142 0 0 0 0 0.841187 0 0 0 0 0.895833 0 0 0 1 0"/>
<feBlend mode="normal" in2="BackgroundImageFix" result="effect1_dropShadow_101_626"/>
<feBlend mode="normal" in="SourceGraphic" in2="effect1_dropShadow_101_626" result="shape"/>
</filter>
</defs>
</svg>
